<svg xmlns="http://www.w3.org/2000/svg" width="463.35" height="339.347" viewBox="0 0 463.35 339.347">
  <g id="_5155720_2672333" data-name="5155720_2672333" transform="translate(-15.725 -85.328)">
    <g id="OBJECTS">
      <g id="Group_933" data-name="Group 933">
        <path id="Path_619" data-name="Path 619" d="M216.787,158.1c-15.627-56.689-86.048-74.951-126.406-32.584q-.87.912-1.737,1.856c-57.859,62.9-30.526,217.887,90.224,257.171s246.346-32.452,253.4-96.579-48.652-84.277-135.1-66.345C248.321,231.754,226.515,193.4,216.787,158.1Z" fill="#bbe2f2"/>
        <path id="Path_620" data-name="Path 620" d="M317.235,167.8c-16.156,2.63-20.633,16.944-8.159,27.1,4.123,3.356,10.011,6.145,18.4,7.536,31.954,5.3,48.911-8.837,36.1-27.167C355.672,163.955,333.245,165.2,317.235,167.8Z" fill="#bbe2f2"/>
        <path id="Path_621" data-name="Path 621" d="M59.635,282.345c-10.044-12.925-24.754-10-27.7,5.81-.973,5.227-.6,11.731,2.192,19.762,10.644,30.592,31.174,38.711,41.135,18.69C81.414,314.25,69.589,295.153,59.635,282.345Z" fill="#bbe2f2"/>
        <path id="Path_622" data-name="Path 622" d="M443.658,295.421c-1.488,7.791,4.945,13.31,12.235,10.307a15.421,15.421,0,0,0,7-6.269c8.236-12.813,4.065-23.8-7.4-22.675C448.414,277.481,445.133,287.7,443.658,295.421Z" fill="#bbe2f2"/>
        <path id="Path_623" data-name="Path 623" d="M402.815,213.2c7.765,1.621,13.392-4.718,10.514-12.057a15.428,15.428,0,0,0-6.148-7.108c-12.67-8.453-23.731-4.47-22.8,7.016C384.959,208.143,395.12,211.6,402.815,213.2Z" fill="#bbe2f2"/>
        <path id="Path_624" data-name="Path 624" d="M214.089,129.83c6.148,5.012,14.061,1.975,14.884-5.866a15.424,15.424,0,0,0-2.188-9.14c-7.359-13.336-19.011-14.889-23.469-4.263C200.565,117.12,208,124.863,214.089,129.83Z" fill="#bbe2f2"/>
      </g>
      <g id="Group_943" data-name="Group 943">
        <path id="Path_625" data-name="Path 625" d="M462.909,334.4c12.329-12.394,21.718-26.4,12.378-28.584s-25.05,22.223-27.786,44.44l-2.738,7.335c2.277-16.156-3.259-35.836-11.365-36.647-8.054-.806-3.179,11.959,3.218,22.876,4.869,8.31,6.153,14.866,6.473,18.254l-12.932,34.643c3.532-25.6-5.238-56.648-18.063-57.931-12.779-1.278-5.044,18.976,5.105,36.3,7.67,13.09,9.735,23.443,10.262,28.853l-2.578,6.908q1.692.953,3.394,1.884l15.385-41.216a49.714,49.714,0,0,1,13.892-7.065c11.986-4.055,24.033-10.5,17.421-15.172-5.738-4.052-19.228,3.747-28.52,14.754l5.321-14.254C454.175,345.646,457.588,339.745,462.909,334.4Z" fill="#08aefe"/>
        <path id="Path_626" data-name="Path 626" d="M74.272,172.7c1.6-14.969.354-29.437-7.1-25.869s-4.843,28.428,5.295,44.823l2.115,6.4C67.406,185.978,53.08,175.746,47.2,179.57c-5.843,3.8,4.312,9.745,14.492,13.628,7.75,2.956,12.145,6.667,14.187,8.77l9.99,30.237c-11.425-19.093-34.054-35.219-43.358-29.168-9.271,6.03,6.841,15.463,23,21.625,12.207,4.656,19.175,10.5,22.445,13.845l1.992,6.029q1.65-.271,3.295-.564L81.353,208a42.826,42.826,0,0,1,5.521-12.233c5.864-9.184,10.478-20.008,3.521-19.58-6.038.372-10.893,12.882-11.2,25.282l-4.11-12.44A62.239,62.239,0,0,1,74.272,172.7Z" fill="#08aefe"/>
        <g id="Group_936" data-name="Group 936">
          <g id="Group_934" data-name="Group 934">
            <path id="Path_627" data-name="Path 627" d="M379.684,375.569c.157.848.338,1.774.55,2.758v0c2.22,10.322,7.67,27.218,19.933,30.541,0,0-6.675-34.8,17.115-43.869s21.159-17.7,19.8-33.059-6.617-18.292,9.89-32.683,13.35-35.826,13.35-35.826-15.622,24.474-32.307,25.042-19.608,14.812-18.9,25.4-13.459,11.79-21.127,17.934-9.112,38.408-9.112,38.408S379.091,372.332,379.684,375.569Z" fill="#009cf8"/>
          </g>
          <g id="Group_935" data-name="Group 935">
            <path id="Path_628" data-name="Path 628" d="M379.684,375.569c.157.848.338,1.774.55,2.758a52.714,52.714,0,0,1,6.37-12.867c5.336-7.907,12.852-14.4,19.611-16.951,10.762-4.055,16.018-14.611,17.036-34.228.59-11.386,12.5-18.112,12.625-18.178a.723.723,0,0,0-.7-1.265c-.52.287-12.737,7.171-13.369,19.367-.983,18.964-5.95,29.128-16.1,32.954-7.132,2.687-14.721,9.226-20.3,17.491A54.86,54.86,0,0,0,379.684,375.569Z" fill="#006bde"/>
          </g>
        </g>
        <g id="Group_939" data-name="Group 939">
          <g id="Group_937" data-name="Group 937">
            <path id="Path_629" data-name="Path 629" d="M116.358,408.681h16.717c-9.033-1.493-31.428-11.107-33.425-30.386-2.529-24.419-11.225-24.114-25.876-26.667s-18.688,1.616-27.991-17.342-30.058-21.347-30.058-21.347,18.917,20.641,15.3,36.327,8.924,21.951,18.97,23.923,7.638,15.471,11.455,24.143c1.742,3.957,8.873,8.059,16.111,11.349h38.8Z" fill="#08aefe"/>
          </g>
          <g id="Group_938" data-name="Group 938">
            <path id="Path_630" data-name="Path 630" d="M80.149,384.643c.73,7.313,4.935,16.01,11.248,23.263.222.255.453.514.689.774h1.9c-.544-.573-1.06-1.139-1.539-1.69-6.039-6.938-10.222-15.555-10.916-22.486-1.1-11.035-9.629-18.557-27.653-24.384-10.462-3.381-13.766-16.152-13.8-16.283a.7.7,0,0,0-1.353.336c.138.556,3.514,13.65,14.719,17.272C70.873,367.079,79.108,374.233,80.149,384.643Z" fill="#1c31b5"/>
          </g>
        </g>
        <g id="Group_942" data-name="Group 942">
          <g id="Group_940" data-name="Group 940">
            <path id="Path_631" data-name="Path 631" d="M125.374,363.362c-.354,1.186-.755,2.478-1.208,3.85v0c-4.753,14.384-14.5,38.61-32.508,41.465,0,0,14.25-49.585-18.295-66.174S45.9,314.009,50.2,292.3s12.251-25.078-9.085-48.145S27.577,191,27.577,191s18.524,37.315,42.239,40.69,25.695,24.145,23.052,39.147,17.388,18.888,27.382,28.832,7.1,56.192,7.1,56.192S126.718,358.834,125.374,363.362Z" fill="#009cf8"/>
          </g>
          <g id="Group_941" data-name="Group 941">
            <path id="Path_632" data-name="Path 632" d="M125.374,363.362c-.354,1.186-.755,2.478-1.208,3.85a75.644,75.644,0,0,0-7.109-19.335c-6.4-12.1-16.12-22.521-25.37-27.2-14.73-7.439-20.6-23.306-19.042-51.447.909-16.334-15.051-27.761-15.216-27.872a1.037,1.037,0,0,1,1.192-1.7c.7.489,17.067,12.188,16.095,29.684-1.512,27.2,4.01,42.467,17.9,49.487,9.761,4.93,19.583,15.425,26.271,28.073A78.594,78.594,0,0,1,125.374,363.362Z" fill="#006bde"/>
          </g>
        </g>
      </g>
      <g id="Group_978" data-name="Group 978">
        <g id="Group_944" data-name="Group 944">
          <path id="Path_633" data-name="Path 633" d="M138.283,397.02c.055,3.77.123,7.693.206,11.66h36.36c.069-4.343.122-8.505.162-12.41.109-10.583.122-19.292.113-24.7,0-3.84-.02-6.017-.02-6.017l-37.076-.393s0,3.2.028,8.442C138.08,379.419,138.145,387.755,138.283,397.02Z" fill="#18315b"/>
          <path id="Path_634" data-name="Path 634" d="M138.056,373.6c.024,5.823.089,14.159.227,23.424a182.163,182.163,0,0,0,36.728-.75c.11-10.583.122-19.292.114-24.7Z" fill="#000b29"/>
        </g>
        <g id="Group_945" data-name="Group 945">
          <path id="Path_635" data-name="Path 635" d="M92.46,388.66c.041,5.927.111,12.716.229,20.021h36.363c.09-4.277.162-8.5.221-12.54.126-8.665.191-16.466.223-22.074.028-5.519.028-8.912.028-8.912l-37.093.393s-.028,3.933-.02,10.55C92.412,379.6,92.428,383.843,92.46,388.66Z" fill="#18315b"/>
          <path id="Path_636" data-name="Path 636" d="M92.412,376.1c0,3.5.016,7.744.049,12.562a227.338,227.338,0,0,0,36.813,7.481c.126-8.665.191-16.466.223-22.074Z" fill="#000b29"/>
        </g>
        <g id="Group_954" data-name="Group 954">
          <path id="Path_637" data-name="Path 637" d="M153.366,170.081s5.843-5.627,5.824-11.184-3.8-3.915-5.824-9.093-8.05-8.336-11.353-7.7-10.277-12.251-19.735-9.978-8.636,14.4-12.71,16.166-2.938,8.967-.79,10.609,3.056,8.24,4.264,8.091S153.366,170.081,153.366,170.081Z" fill="#18315b"/>
          <g id="Group_948" data-name="Group 948">
            <path id="Path_638" data-name="Path 638" d="M114.041,169.948s-3.674-4.9-6.4-.848,1.13,16.012,7.818,13.092Z" fill="#f97853"/>
            <g id="Group_946" data-name="Group 946">
              <path id="Path_639" data-name="Path 639" d="M113.994,178.5a.565.565,0,0,1-.544-.413c-1.036-3.693-4.863-5.19-4.9-5.205a.565.565,0,0,1,.4-1.057,9.732,9.732,0,0,1,5.589,5.957.566.566,0,0,1-.391.7A.6.6,0,0,1,113.994,178.5Z" fill="#ea5143"/>
            </g>
            <g id="Group_947" data-name="Group 947">
              <path id="Path_640" data-name="Path 640" d="M110.132,176.635a.559.559,0,0,1-.305-.09.565.565,0,0,1-.169-.781,5.155,5.155,0,0,1,2.121-1.71.565.565,0,1,1,.461,1.031,4.094,4.094,0,0,0-1.632,1.29A.565.565,0,0,1,110.132,176.635Z" fill="#ea5143"/>
            </g>
          </g>
          <g id="Group_952" data-name="Group 952">
            <path id="Path_641" data-name="Path 641" d="M151.9,169.948s3.673-4.9,6.4-.848-1.13,16.012-7.818,13.092Z" fill="#f97853"/>
            <g id="Group_949" data-name="Group 949">
              <path id="Path_642" data-name="Path 642" d="M151.946,178.5a.565.565,0,0,0,.544-.413c1.036-3.693,4.862-5.19,4.9-5.205a.565.565,0,0,0-.4-1.057,9.732,9.732,0,0,0-5.589,5.957.566.566,0,0,0,.392.7A.582.582,0,0,0,151.946,178.5Z" fill="#ea5143"/>
            </g>
            <g id="Group_951" data-name="Group 951">
              <g id="Group_950" data-name="Group 950">
                <path id="Path_643" data-name="Path 643" d="M155.808,176.635a.559.559,0,0,0,.3-.09.565.565,0,0,0,.169-.781,5.155,5.155,0,0,0-2.121-1.71.565.565,0,1,0-.462,1.031,4.094,4.094,0,0,1,1.632,1.29A.567.567,0,0,0,155.808,176.635Z" fill="#ea5143"/>
              </g>
            </g>
          </g>
          <path id="Path_644" data-name="Path 644" d="M142.013,192.339v11.9s-3.548,6.059-8.345,6.471-9.052-5.216-9.052-5.216V193.176Z" fill="#ffa681"/>
          <path id="Path_645" data-name="Path 645" d="M142.013,192.339v5.279c-3.219,3.573-8.937,4.465-17.4,3.216v-7.658Z" fill="#f97853"/>
          <path id="Path_646" data-name="Path 646" d="M154.555,161.787a115.626,115.626,0,0,1-1.543,15.027c-.22,1.153-.469,2.238-.746,3.21-2.5,8.765-8.765,23.8-26.3,17.536-7.743-2.763-11.331-11.387-12.931-20.159a84.816,84.816,0,0,1-1.17-16.276,12.42,12.42,0,0,1,6.3-10.568c10.348-5.866,21.267-3.679,28.455-.916A12.382,12.382,0,0,1,154.555,161.787Z" fill="#ffa681"/>
          <path id="Path_647" data-name="Path 647" d="M113.04,177.4s1.7,10.135,3.308,13.83,6,4.391,7.647,7.513c2.351,4.452,5.935,7.981,11.83,5.831,4.9-1.789,4.683-4.3,7.431-6.237,4.708-3.324,7.041-6.982,7.231-10.013s2.527-11.511,2.527-11.511l-2.527-.178a65.768,65.768,0,0,1-3.558,6.267c-2.126-4.668-12.367-1.273-12.367-1.273l-1.955.633-2.008-.633s-10.363-3.251-12.409,1.644a18.477,18.477,0,0,1-2.736-6.358Zm19.566,6.441c11.746-2.016,9.647,4.861,9.571,5.108v0l0,0a11.645,11.645,0,0,1-2.414,1.83c-4.551,2.459-5.043,2.088-6.839,2.167a13.51,13.51,0,0,1-6.9-1.883,19.617,19.617,0,0,1-3.289-2.5S120.883,182.262,132.606,183.842Z" fill="#18315b"/>
          <path id="Path_648" data-name="Path 648" d="M125.547,171.5c0,1.27-.654,2.3-1.462,2.3s-1.462-1.029-1.462-2.3.655-2.3,1.462-2.3S125.547,170.23,125.547,171.5Z" fill="#18315b"/>
          <path id="Path_649" data-name="Path 649" d="M142.925,171.5c0,1.27-.655,2.3-1.462,2.3S140,172.77,140,171.5s.654-2.3,1.462-2.3S142.925,170.23,142.925,171.5Z" fill="#18315b"/>
          <path id="Path_650" data-name="Path 650" d="M147.217,163.929s-6.041-2.387-10.692-.378l.465,2.587s6.826-.577,10.266.816A4.479,4.479,0,0,0,147.217,163.929Z" fill="#18315b"/>
          <path id="Path_651" data-name="Path 651" d="M118.5,163.941s6.085-2.4,10.77-.381l-.469,2.606s-6.877-.582-10.342.822A4.525,4.525,0,0,1,118.5,163.941Z" fill="#18315b"/>
          <g id="Group_953" data-name="Group 953">
            <path id="Path_652" data-name="Path 652" d="M133.166,181.137a6.028,6.028,0,0,0,2.046-.431.565.565,0,0,0-.427-1.046,3.392,3.392,0,0,1-2.267.214.612.612,0,0,1-.278-.526,85.387,85.387,0,0,1,.342-8.655.565.565,0,1,0-1.126-.092,83.633,83.633,0,0,0-.339,8.864,1.725,1.725,0,0,0,.822,1.38A2.39,2.39,0,0,0,133.166,181.137Z" fill="#f97853"/>
          </g>
          <path id="Path_653" data-name="Path 653" d="M125.962,184.973c.429,2.159,1.855,6.13,6.659,6.13s6.166-3.629,6.63-6.13Z" fill="#fff"/>
          <path id="Path_654" data-name="Path 654" d="M154.555,161.787a115.626,115.626,0,0,1-1.543,15.027l-2.526-.179s.612-3.9.9-6.447.763-7.3-1.408-7.89-.894-6.011-3.906-8.362-9.7-4.431-14.146-1.7-9.5,1.221-11.54,1.7-4.832,3.295-4.08,5.934-1.5,4.239-2.051,6.968,1.2,10.076,1.2,10.076l-2.413.486a84.816,84.816,0,0,1-1.17-16.276,12.42,12.42,0,0,1,6.3-10.568c10.348-5.866,21.267-3.679,28.455-.916A12.385,12.385,0,0,1,154.555,161.787Z" fill="#18315b"/>
        </g>
        <g id="Group_975" data-name="Group 975">
          <g id="Group_955" data-name="Group 955">
            <path id="Path_655" data-name="Path 655" d="M182.787,383.424a201.035,201.035,0,0,1-34.313,5.631c-.519.038-1.033.076-1.552.111q-2.359.159-4.718.262a194.712,194.712,0,0,1-23.354-.4q-2.355-.182-4.708-.421-.751-.072-1.507-.159a204.542,204.542,0,0,1-27.891-5.028c-.093-8.569.013-35.661.539-65.041.061-3.531.129-7.1.207-10.664.824-38.721,2.414-78.026,5.275-81.963,2.742-3.768,11.007-8.557,18.908-12.877l1.411-.769c1.777-.965,3.513-1.9,5.147-2.788,3.5-1.9,6.52-3.6,8.385-4.907v1.076s4.254,5.631,9.048,5.215c4.37-.375,7.7-5.424,8.262-6.329a110.859,110.859,0,0,0,10.056,5.721c1.2.633,2.43,1.28,3.69,1.948q.7.366,1.4.741c8.738,4.635,18.159,9.86,20.987,13.744a4.8,4.8,0,0,1,.6,1.429c1.674,5.666,2.712,24.468,3.344,47.237,0,.081.005.164.008.247.028.92.05,1.847.073,2.78.005.121.007.245.01.368.207,7.987.363,16.395.484,24.844.01.67.023,1.341.03,2.011,0,.338.008.67.01,1.008.028,1.663.045,3.327.061,4.983q.027,1.833.043,3.665C183.042,345.641,182.913,374.446,182.787,383.424Z" fill="#08aefe"/>
          </g>
          <g id="Group_956" data-name="Group 956">
            <path id="Path_656" data-name="Path 656" d="M182.089,278.225c-2.752-4.494-5.706-9.081-8.489-13.139a.174.174,0,0,1-.02-.03c-1.169-1.7-2.306-3.312-3.387-4.781a.644.644,0,0,0-.055-.076c-.338-.461-.673-.91-1-1.346a.834.834,0,0,1-.118-.237l0,0a.76.76,0,0,1,1.334-.673c3.342,4.428,7.617,10.8,11.659,17.257,0,.081.005.164.008.247C182.044,276.365,182.066,277.293,182.089,278.225Z" fill="#264cbe"/>
          </g>
          <path id="Path_657" data-name="Path 657" d="M178.176,225.907s17.245,31.594,27.757,47.607c0,0,5.978-5.492,13.753-12.839,8.43-7.966,19.959-21.279,19.959-21.279l6.38,7.566s-25.9,46.615-37.522,52.474-33.029-35.608-33.029-35.608Z" fill="#08aefe"/>
          <g id="Group_957" data-name="Group 957">
            <path id="Path_658" data-name="Path 658" d="M105.16,350.427h-.028a.781.781,0,0,1-.752-.808c.9-25.515-12.326-33.781-12.46-33.861a.78.78,0,0,1,.8-1.34c.147.087,3.645,2.212,7.032,7.657,3.092,4.97,6.676,13.793,6.186,27.6A.779.779,0,0,1,105.16,350.427Z" fill="#264cbe"/>
          </g>
          <g id="Group_958" data-name="Group 958">
            <path id="Path_659" data-name="Path 659" d="M161.6,326.389a.78.78,0,0,1-.777-.719c-.419-5.373,1.351-9.292,3.592-14.254.656-1.452,1.333-2.952,2.027-4.635,4.349-10.547,2.163-22.606,2.141-22.727a.78.78,0,0,1,1.533-.287c.1.511,2.291,12.638-2.232,23.609-.7,1.707-1.387,3.219-2.048,4.683-2.233,4.944-3.846,8.516-3.458,13.491a.78.78,0,0,1-.717.838Z" fill="#264cbe"/>
          </g>
          <g id="Group_971" data-name="Group 971">
            <path id="Path_660" data-name="Path 660" d="M116.231,209.322c.333,2.512.822,5.771,1.356,9.472.163,1.1.326,2.239.493,3.41.542,3.823,1.1,7.983,1.58,12.189.129,1.129.25,2.262.364,3.391.421,4.164.739,8.3.853,12.147.038,1.163.053,2.3.046,3.4a54.21,54.21,0,0,1-.527,7.942q-.342,2.189-.606,4.278-.222,1.734-.4,3.41c-.455,4.339-.682,8.378-.746,12.185q-.028,1.734-.011,3.4c.034,4.323.28,8.351.636,12.185q.159,1.722.345,3.391c.466,4.191,1.034,8.18,1.569,12.125q.232,1.693.455,3.38c.231,1.8.451,3.607.64,5.422.2,1.925.33,4.175.39,6.672.03,1.091.045,2.232.049,3.41.015,3.732-.08,7.866-.254,12.189q-.067,1.693-.151,3.429c-.193,4.016-.447,8.146-.731,12.223q-.125,1.722-.254,3.425c-.315,4.244-.663,8.378-1.016,12.223-.106,1.167-.212,2.308-.318,3.414-.406,4.232-.8,7.995-1.144,11a194.528,194.528,0,0,0,23.355.394c.182-3.194.678-8.347,1.167-14.413.091-1.11.178-2.254.265-3.421.292-3.857.557-7.979.731-12.14.049-1.14.091-2.285.121-3.425.118-4.153.121-8.279-.057-12.147-.053-1.175-.121-2.323-.212-3.44-.091-1.144-.2-2.258-.333-3.334a68.016,68.016,0,0,1-.5-8.843c0-1.144.034-2.281.087-3.421.178-3.956.61-7.919,1.11-12.128.133-1.118.273-2.255.413-3.414.451-3.743.921-7.714,1.292-12.06q.147-1.671.269-3.421c.258-3.728.432-7.733.459-12.1q.011-1.687-.011-3.448c-.042-3.778-.2-7.82-.508-12.174-.027-.386-.053-.777-.083-1.171-.057-.762-.106-1.531-.14-2.3a115.618,115.618,0,0,1,.076-12.128q.092-1.716.224-3.433c.314-4.077.773-8.116,1.3-11.988q.232-1.728.485-3.414c.637-4.244,1.322-8.237,1.951-11.806.209-1.174.409-2.3.6-3.38.428-2.41.8-4.558,1.072-6.377a111.317,111.317,0,0,1-10.056-5.721c-.565.906-3.891,5.952-8.264,6.328-4.793.417-9.048-5.214-9.048-5.214v-1.076C122.751,205.723,119.732,207.417,116.231,209.322Z" fill="#fff"/>
            <g id="Group_970" data-name="Group 970">
              <g id="Group_959" data-name="Group 959">
                <path id="Path_661" data-name="Path 661" d="M117.587,218.795c.163,1.1.326,2.239.493,3.41a63.34,63.34,0,0,0,15.436-1.951,41.124,41.124,0,0,1,16.8-.4c.209-1.174.409-2.3.6-3.38a44.526,44.526,0,0,0-18.16.458A59.228,59.228,0,0,1,117.587,218.795Z" fill="#e3e3e3"/>
              </g>
              <g id="Group_960" data-name="Group 960">
                <path id="Path_662" data-name="Path 662" d="M119.66,234.394c.129,1.129.25,2.262.364,3.391a68.73,68.73,0,0,0,13.493-1.948,41.065,41.065,0,0,1,14.36-.762q.232-1.728.485-3.414a44.754,44.754,0,0,0-15.61.853A65.618,65.618,0,0,1,119.66,234.394Z" fill="#e3e3e3"/>
              </g>
              <g id="Group_961" data-name="Group 961">
                <path id="Path_663" data-name="Path 663" d="M120.876,249.932c.038,1.163.053,2.3.046,3.4a71.515,71.515,0,0,0,12.594-1.914,41.259,41.259,0,0,1,12.833-.924q.092-1.716.224-3.433a44.953,44.953,0,0,0-13.822,1.034A69.462,69.462,0,0,1,120.876,249.932Z" fill="#e3e3e3"/>
              </g>
              <g id="Group_962" data-name="Group 962">
                <path id="Path_664" data-name="Path 664" d="M119.391,268.964A67.245,67.245,0,0,0,133.516,267,41.187,41.187,0,0,1,146.5,266.1c-.027-.386-.053-.777-.083-1.171-.057-.762-.106-1.531-.14-2.3a44.919,44.919,0,0,0-13.523,1.057,65.784,65.784,0,0,1-12.962,1.872Q119.567,267.288,119.391,268.964Z" fill="#e3e3e3"/>
              </g>
              <g id="Group_963" data-name="Group 963">
                <path id="Path_665" data-name="Path 665" d="M118.633,284.548a64.879,64.879,0,0,0,14.883-1.959,41.267,41.267,0,0,1,13.5-.871q.011-1.687-.011-3.448a44.9,44.9,0,0,0-14.254,1,62.339,62.339,0,0,1-14.106,1.883Q118.615,282.883,118.633,284.548Z" fill="#e3e3e3"/>
              </g>
              <g id="Group_964" data-name="Group 964">
                <path id="Path_666" data-name="Path 666" d="M119.269,296.734q.159,1.722.345,3.391a67.7,67.7,0,0,0,13.9-1.951,41.2,41.2,0,0,1,12.773-.936q.147-1.671.269-3.421a44.844,44.844,0,0,0-13.807,1.034A64.526,64.526,0,0,1,119.269,296.734Z" fill="#e3e3e3"/>
              </g>
              <g id="Group_965" data-name="Group 965">
                <path id="Path_667" data-name="Path 667" d="M121.183,312.249q.232,1.693.455,3.38a73.724,73.724,0,0,0,11.878-1.872,41.5,41.5,0,0,1,11.068-1.046c.133-1.118.273-2.255.413-3.414a45.107,45.107,0,0,0-12.246,1.137A70.9,70.9,0,0,1,121.183,312.249Z" fill="#e3e3e3"/>
              </g>
              <g id="Group_966" data-name="Group 966">
                <path id="Path_668" data-name="Path 668" d="M122.668,327.723c.03,1.091.045,2.232.049,3.41a76.709,76.709,0,0,0,10.8-1.8,41.837,41.837,0,0,1,9.87-1.076c0-1.144.034-2.281.087-3.421a45.443,45.443,0,0,0-10.723,1.178A75.918,75.918,0,0,1,122.668,327.723Z" fill="#e3e3e3"/>
              </g>
              <g id="Group_967" data-name="Group 967">
                <path id="Path_669" data-name="Path 669" d="M122.312,346.751a76.684,76.684,0,0,0,11.2-1.83,41.369,41.369,0,0,1,10.916-1.042c-.053-1.175-.121-2.323-.212-3.44a45.306,45.306,0,0,0-11.469,1.159,74.47,74.47,0,0,1-10.287,1.724Q122.4,345.017,122.312,346.751Z" fill="#e3e3e3"/>
              </g>
              <g id="Group_968" data-name="Group 968">
                <path id="Path_670" data-name="Path 670" d="M121.327,362.4a73.4,73.4,0,0,0,12.189-1.894,41.521,41.521,0,0,1,10.852-1.053c.049-1.14.091-2.285.121-3.425a45.233,45.233,0,0,0-11.738,1.156,71.575,71.575,0,0,1-11.17,1.792Q121.455,360.7,121.327,362.4Z" fill="#e3e3e3"/>
              </g>
              <g id="Group_969" data-name="Group 969">
                <path id="Path_671" data-name="Path 671" d="M119.993,378.037a68.69,68.69,0,0,0,13.523-1.948,41.485,41.485,0,0,1,9.855-1.076c.091-1.11.178-2.254.265-3.421a45.274,45.274,0,0,0-10.886,1.174,67.892,67.892,0,0,1-12.439,1.857C120.205,375.79,120.1,376.931,119.993,378.037Z" fill="#e3e3e3"/>
              </g>
            </g>
          </g>
          <g id="Group_974" data-name="Group 974">
            <g id="Group_972" data-name="Group 972">
              <path id="Path_672" data-name="Path 672" d="M146.921,389.165c.519-.034,1.034-.072,1.553-.11,3.069-18.043,1.3-44.528.64-52.644-.682-8.427.629-19.263,3.6-29.721,2.3-8.123.89-26.958-.243-42.091-.318-4.247-.621-8.26-.8-11.556-.58-10.655,3.277-30.372,5.4-40.254-.47-.25-.936-.5-1.4-.743-2.129,9.783-6.127,29.948-5.521,41.08.182,3.312.485,7.332.8,11.587,1.125,15.016,2.527,33.7.3,41.561-3.016,10.628-4.346,21.658-3.649,30.258C148.262,344.66,150.043,371.311,146.921,389.165Z" fill="#264cbe"/>
            </g>
            <g id="Group_973" data-name="Group 973">
              <path id="Path_673" data-name="Path 673" d="M115.484,315.75c1.8,11.094,1.235,18.3.576,26.64-.212,2.7-.432,5.483-.587,8.559-.481,9.654-2.114,29.1-2.838,37.5.5.057,1,.11,1.508.159.724-8.408,2.361-27.9,2.845-37.586.152-3.054.371-5.831.584-8.514.663-8.438,1.239-15.728-.6-27-.39-2.421-.807-4.876-1.22-7.32C113.715,296.1,111.6,283.593,112.6,277.6c.242-1.463.553-3.122.887-4.88,1.356-7.229,3.05-16.224,2.516-24.03-.531-7.737-3.7-28.686-4.918-36.582-.47.254-.939.512-1.413.769,1.269,8.256,4.3,28.4,4.819,35.915.519,7.612-1.152,16.505-2.493,23.647-.334,1.766-.648,3.433-.894,4.91-1.038,6.241,1,18.308,3.16,31.088C114.677,310.882,115.09,313.333,115.484,315.75Z" fill="#264cbe"/>
            </g>
          </g>
        </g>
        <g id="Group_977" data-name="Group 977">
          <path id="Path_674" data-name="Path 674" d="M85.66,238.623S70.223,290.1,66.4,308.448s-4.119,56.485-4.119,56.485-6.749,14.01-6.908,20.244c-.17,6.646,3.319,11.935,2.921,16.284s4.9,1.988,3.4-6.822,2.748-16.789,4.58-16.533-1.516,9.619.111,12.993,3.732-3.18,5.825-7.157c2.174-4.13,2.046-13.14,1.057-19.572s10.67-45.5,10.726-56.82l14.764-49.889S93.881,236.835,85.66,238.623Z" fill="#ffa681"/>
          <path id="Path_675" data-name="Path 675" d="M100.65,256.408c-.523,3.308-2.353,8.987-4.717,16.133v0c-.2.6-.406,1.216-.61,1.841a.555.555,0,0,0-.03.087c-.591,1.777-1.209,3.637-1.845,5.562,0,.011-.007.023-.011.034-2.618,7.949-5.517,17.043-7.949,26.386-.837,3.2-1.618,6.43-2.311,9.65-.887,4.111-1.637,8.211-2.186,12.223-1.974,14.455-5.748,32.763-5.748,32.763-5.536,2.273-14.19-.727-14.19-.727S60.829,334,62.065,323.751a274.692,274.692,0,0,1,5.88-32.036c6.631-28.489,18.3-56.364,21.5-63.757.254-.591.455-1.05.6-1.368H92.8C98.218,230.037,102.064,247.5,100.65,256.408Z" fill="#08aefe"/>
          <path id="Path_676" data-name="Path 676" d="M60.6,355.086l.434,6.067s8.228,2.674,14.4.791l1.631-5.412C71.124,356.846,65.637,356.7,60.6,355.086Z" fill="#009cf8"/>
          <g id="Group_976" data-name="Group 976">
            <path id="Path_677" data-name="Path 677" d="M95.933,272.541v0a.8.8,0,0,1-.045.261q-.279.768-.565,1.58a.555.555,0,0,0-.03.087c-.606,1.72-1.224,3.592-1.845,5.562,0,.011-.007.023-.011.034a299.194,299.194,0,0,0-8.01,31.369q.022-2.484.061-4.982c-.837,3.2-1.618,6.43-2.311,9.65a116.411,116.411,0,0,1,2.353-12.67,296.912,296.912,0,0,1,8.934-31.149.757.757,0,0,1,1.469.254Z" fill="#264cbe"/>
          </g>
        </g>
      </g>
      <g id="Group_1015" data-name="Group 1015">
        <g id="Group_982" data-name="Group 982">
          <g id="Group_980" data-name="Group 980">
            <g id="Group_979" data-name="Group 979">
              <path id="Path_678" data-name="Path 678" d="M372.072,408.681h36.465c-.121-2.529-.241-4.954-.357-7.243C407.544,388.952,407,380.45,407,380.45l-29.655,1.317-2.459.111-4.362.2s.421,7.6,1.076,18.74C371.748,403.276,371.9,405.915,372.072,408.681Z" fill="#18315b"/>
            </g>
          </g>
          <path id="Path_679" data-name="Path 679" d="M374.889,381.878l-4.362.2s.421,7.6,1.076,18.74a264.728,264.728,0,0,0,36.576.624c-.636-12.486-1.176-20.988-1.176-20.988l-29.655,1.317Z" fill="#000b29"/>
          <g id="Group_981" data-name="Group 981">
            <path id="Path_680" data-name="Path 680" d="M378.86,408.681c-.667-11.557-1.213-21.431-1.513-26.913l-2.459.111c.3,5.457.843,15.285,1.508,26.8Z" fill="#000b29"/>
          </g>
        </g>
        <g id="Group_986" data-name="Group 986">
          <g id="Group_984" data-name="Group 984">
            <g id="Group_983" data-name="Group 983">
              <path id="Path_681" data-name="Path 681" d="M361.374,408.681c.188-3.131.364-6.1.525-8.837.628-10.609,1.022-17.771,1.022-17.771l-4.734-.211-2.455-.111-29.291-1.3s-.322,5.067-.762,13.121c-.233,4.292-.5,9.436-.77,15.11h36.465Z" fill="#18315b"/>
            </g>
          </g>
          <path id="Path_682" data-name="Path 682" d="M325.678,393.57a322.206,322.206,0,0,0,36.22,6.273c.628-10.609,1.022-17.771,1.022-17.771l-4.734-.211-2.455-.111-29.291-1.3S326.119,385.516,325.678,393.57Z" fill="#000b29"/>
          <g id="Group_985" data-name="Group 985">
            <path id="Path_683" data-name="Path 683" d="M356.679,408.681c.665-11.529,1.209-21.365,1.507-26.818l-2.455-.111c-.3,5.479-.847,15.36-1.514,26.929h2.462Z" fill="#000b29"/>
          </g>
        </g>
        <g id="Group_993" data-name="Group 993">
          <g id="Group_988" data-name="Group 988">
            <g id="Group_987" data-name="Group 987">
              <path id="Path_684" data-name="Path 684" d="M412.3,386.133a174.911,174.911,0,0,1-22.283,4.622q-3.875.545-7.745.9-5.221.484-10.439.648a165.3,165.3,0,0,1-17.265-.376,174.91,174.91,0,0,1-33.383-5.8c-.1-10.376.053-47.587.832-83.478q.057-2.416.113-4.824c.005-.34.015-.681.023-1.021.008-.371.018-.741.028-1.109.025-1.139.055-2.273.083-3.4q.087-3.459.184-6.855.06-2.029.121-4.033c.007-.277.018-.552.025-.827q.042-1.32.083-2.624v0c.01-.27.018-.539.028-.809.025-.8.053-1.6.078-2.387.025-.673.048-1.336.071-2,.862-24.211,2.122-43.308,3.927-46,3.06-4.564,13.482-10.623,21.864-15.556,2.987-1.754,6.553-3.579,8.594-4.932,2.977,2.4,5.137,4.562,9.55,4.413,4.937-.169,6.155-3.138,8.038-5.684,1.149.746,4.068,3.14,5.585,4.03,1.3.766,2.7,1.578,4.171,2.422,2.268,1.3,4.68,2.677,7.07,4.083,3.541,2.084,7.032,4.234,9.928,6.288a26.167,26.167,0,0,1,6.324,5.719c1.638,2.46,2.7,18.386,3.382,39.346.028.733.048,1.477.076,2.225,0,.091,0,.181,0,.275.028.761.051,1.543.068,2.324q.1,3.539.2,7.218c.013.517.025,1.038.033,1.558.01.391.023.784.025,1.169.023,1.008.045,2.019.068,3.039.005.2.008.408.013.613.056,2.689.108,5.416.156,8.166q.023,1.206.04,2.417C412.585,333.629,412.441,374.983,412.3,386.133Z" fill="#08aefe"/>
            </g>
          </g>
          <path id="Path_685" data-name="Path 685" d="M411.962,295.9,400.2,307.827l-10.959-11.11-10.956,11.11-11-11.155-11,11.155L345.21,296.6l-11.075,11.228L322.178,295.7c.025-1.139.055-2.273.083-3.4q.087-3.459.184-6.855l11.69-11.856,11.075,11.231,11.072-11.231,11,11.155,11-11.155,10.956,11.11,10.959-11.11,11.566,11.725c.056,2.689.108,5.416.156,8.166Q411.945,294.685,411.962,295.9Z" fill="#0381ff"/>
          <g id="Group_989" data-name="Group 989">
            <path id="Path_686" data-name="Path 686" d="M391.659,357.392h0c-15.75-.069-29.193-7.236-37.7-13.236a86.255,86.255,0,0,1-14.826-13.13.758.758,0,1,1,1.16-.976,84.8,84.8,0,0,0,14.575,12.892c8.319,5.864,21.456,12.867,36.795,12.935a.757.757,0,0,1,0,1.515Z" fill="#264cbe"/>
          </g>
          <g id="Group_990" data-name="Group 990">
            <path id="Path_687" data-name="Path 687" d="M381.835,348.077c-13.41-2.636-25.28-12.907-25.819-13.378a.758.758,0,1,1,1-1.141c.139.122,14.108,12.2,28.343,13.5a.758.758,0,0,1-.137,1.509A33.034,33.034,0,0,1,381.835,348.077Z" fill="#264cbe"/>
          </g>
          <g id="Group_991" data-name="Group 991">
            <path id="Path_688" data-name="Path 688" d="M354.978,231.528a.758.758,0,0,1-.141-1.5c19.2-3.644,24.989-16,25.046-16.121a.758.758,0,1,1,1.381.625c-.243.537-6.176,13.2-26.144,16.986A.85.85,0,0,1,354.978,231.528Z" fill="#264cbe"/>
          </g>
          <g id="Group_992" data-name="Group 992">
            <path id="Path_689" data-name="Path 689" d="M331.549,264.779v.005a.789.789,0,0,1-.1.242c-.287.461-.587.938-.887,1.424a.7.7,0,0,0-.045.081c-.96,1.553-1.961,3.249-2.992,5.041a.055.055,0,0,1-.018.03c-1.611,2.82-3.279,5.878-4.912,8.983q.042-1.32.083-2.624v0c.01-.27.018-.539.028-.809,2.634-4.89,5.26-9.464,7.463-12.932a.758.758,0,0,1,1.383.562Z" fill="#264cbe"/>
          </g>
        </g>
        <g id="Group_996" data-name="Group 996">
          <path id="Path_690" data-name="Path 690" d="M428.308,236.693s24.555-7.892,31.821-24.005c2.1-4.667-15.212-52.046-15.212-52.046l-8.357.4s2.382,16.439,3.825,25.747c1.187,7.653,3.105,16.8,3.752,19.809.141.653.22,1.016.22,1.016-.41.071-.821.15-1.239.233-11.472,2.33-26.12,9.8-26.12,9.8Z" fill="#ffa681"/>
          <g id="Group_995" data-name="Group 995">
            <g id="Group_994" data-name="Group 994">
              <path id="Path_691" data-name="Path 691" d="M450.525,212.16a.787.787,0,0,0,1.1-.173.772.772,0,0,0-.173-1.1,61.918,61.918,0,0,0-7.313-4.286c.141.653.22,1.016.22,1.016-.41.071-.821.15-1.239.233A62.019,62.019,0,0,1,450.525,212.16Z" fill="#f97853"/>
            </g>
          </g>
          <path id="Path_692" data-name="Path 692" d="M390.737,215.017s-7.427,17.43,11.482,27.134c13.086,6.716,42.9-10.818,42.9-10.818l-10.628-22.565S407.212,220.019,390.737,215.017Z" fill="#08aefe"/>
          <path id="Path_693" data-name="Path 693" d="M440.639,134c-.74.519-.589,3.72-.263,6.735-.1.015-.211.033-.318.052-.879-4.024-2.629-10.868-4.125-9.562-.98.855.332,6.757,1.226,10.286q-.277.086-.555.175c-1.127-4.19-3.557-12.261-5.174-10.692-1.079,1.047.992,8.154,2.142,11.779l-.471.185c-1.1-3.517-3.45-10.17-5.06-8.607-1.458,1.415,2.719,11.473,2.719,11.473h0l1.1,3.948s-1.3.562-3.333-1.736-4.46-2.7-2.773.622c1.907,3.757,4.729,6.451,5.971,9.109s5.151,3.537,5.151,3.537l7.847-.379s1.522-13.263-1.4-19.585h0C442.811,137.588,441.927,133.1,440.639,134Z" fill="#ffa681"/>
        </g>
        <g id="Group_1013" data-name="Group 1013">
          <path id="Path_694" data-name="Path 694" d="M343.549,164.591c0,13.366,8.228,22.576,21.589,22.576s22.684-9.9,22.684-23.268a28.655,28.655,0,0,0-1.758-10.174c-.068-.181-.136-.363-.21-.539-.142-.346-.289-.692-.448-1.026-.233-.516-.493-1.021-.766-1.508-3.482-6.261-9.72-10.242-18.1-10.242C350.513,140.411,343.549,151.225,343.549,164.591Z" fill="#18315b"/>
          <g id="Group_999" data-name="Group 999">
            <path id="Path_695" data-name="Path 695" d="M346.55,170.346s-3.713-4.951-6.474-.857,1.143,16.186,7.9,13.234Z" fill="#f97853"/>
            <g id="Group_997" data-name="Group 997">
              <path id="Path_696" data-name="Path 696" d="M346.5,178.987a.572.572,0,0,1-.55-.417c-1.048-3.733-4.915-5.246-4.954-5.261a.572.572,0,0,1,.4-1.069c.181.068,4.443,1.722,5.649,6.021a.571.571,0,0,1-.4.7A.545.545,0,0,1,346.5,178.987Z" fill="#ea5143"/>
            </g>
            <g id="Group_998" data-name="Group 998">
              <path id="Path_697" data-name="Path 697" d="M342.6,177.106a.571.571,0,0,1-.48-.881,5.218,5.218,0,0,1,2.144-1.728.571.571,0,1,1,.467,1.042,4.125,4.125,0,0,0-1.65,1.3A.57.57,0,0,1,342.6,177.106Z" fill="#ea5143"/>
            </g>
          </g>
          <g id="Group_1004" data-name="Group 1004">
            <path id="Path_698" data-name="Path 698" d="M384.817,170.346s3.713-4.951,6.474-.857-1.143,16.186-7.9,13.234Z" fill="#f97853"/>
            <g id="Group_1000" data-name="Group 1000">
              <path id="Path_699" data-name="Path 699" d="M384.865,178.987a.573.573,0,0,0,.55-.417c1.048-3.733,4.915-5.246,4.954-5.261a.572.572,0,0,0-.4-1.069c-.181.068-4.443,1.722-5.65,6.021a.571.571,0,0,0,.4.7A.558.558,0,0,0,384.865,178.987Z" fill="#ea5143"/>
            </g>
            <g id="Group_1003" data-name="Group 1003">
              <g id="Group_1002" data-name="Group 1002">
                <g id="Group_1001" data-name="Group 1001">
                  <path id="Path_700" data-name="Path 700" d="M388.769,177.106a.571.571,0,0,0,.48-.881A5.209,5.209,0,0,0,387.1,174.5a.571.571,0,1,0-.467,1.042,4.125,4.125,0,0,1,1.65,1.3A.57.57,0,0,0,388.769,177.106Z" fill="#ea5143"/>
                </g>
              </g>
            </g>
          </g>
          <path id="Path_701" data-name="Path 701" d="M374.824,192.979V205s-3.586,6.124-8.436,6.541-9.15-5.273-9.15-5.273V193.824Z" fill="#ffa681"/>
          <path id="Path_702" data-name="Path 702" d="M374.824,192.979v5.336c-3.254,3.611-9.034,4.513-17.586,3.25v-7.741Z" fill="#f97853"/>
          <path id="Path_703" data-name="Path 703" d="M387.5,162.1a117.088,117.088,0,0,1-1.56,15.19c-.223,1.165-.474,2.262-.754,3.245-2.531,8.86-8.86,24.056-26.581,17.726-7.826-2.794-11.454-11.511-13.07-20.377a85.615,85.615,0,0,1-1.182-16.452,12.556,12.556,0,0,1,6.37-10.683c10.46-5.93,21.5-3.719,28.763-.925A12.513,12.513,0,0,1,387.5,162.1Z" fill="#ffa681"/>
          <path id="Path_704" data-name="Path 704" d="M358.085,171.915c0,1.284-.662,2.324-1.478,2.324s-1.478-1.04-1.478-2.324.662-2.324,1.478-2.324S358.085,170.632,358.085,171.915Z" fill="#18315b"/>
          <path id="Path_705" data-name="Path 705" d="M375.5,171.868c0,1.284-.661,2.324-1.478,2.324s-1.478-1.04-1.478-2.324.662-2.324,1.478-2.324S375.5,170.584,375.5,171.868Z" fill="#18315b"/>
          <path id="Path_706" data-name="Path 706" d="M378.841,163.88s-4.662-1.843-8.252-.292l.359,2s5.269-.446,7.923.63A3.46,3.46,0,0,0,378.841,163.88Z" fill="#18315b"/>
          <path id="Path_707" data-name="Path 707" d="M351.677,163.88s4.662-1.843,8.252-.292l-.359,2s-5.268-.446-7.923.63A3.46,3.46,0,0,1,351.677,163.88Z" fill="#18315b"/>
          <g id="Group_1005" data-name="Group 1005">
            <path id="Path_708" data-name="Path 708" d="M365.882,181.656a6.078,6.078,0,0,0,2.068-.436.571.571,0,0,0-.432-1.058,3.435,3.435,0,0,1-2.292.217.621.621,0,0,1-.281-.532,86.753,86.753,0,0,1,.345-8.749.571.571,0,1,0-1.138-.094,84.678,84.678,0,0,0-.343,8.96,1.747,1.747,0,0,0,.831,1.4A2.4,2.4,0,0,0,365.882,181.656Z" fill="#f97853"/>
          </g>
          <path id="Path_709" data-name="Path 709" d="M358.211,184.557c.95,3.3,3.649,6.584,7.368,6.63,3.715-.045,6.415-3.334,7.364-6.63Z" fill="#fff"/>
          <g id="Group_1006" data-name="Group 1006">
            <path id="Path_710" data-name="Path 710" d="M365.261,194.767a5.967,5.967,0,0,0,2.785-.781.572.572,0,0,0-.592-.978,4.856,4.856,0,0,1-2.193.615,4.621,4.621,0,0,1-2.079-.613.571.571,0,1,0-.6.972A5.671,5.671,0,0,0,365.261,194.767Z" fill="#f97853"/>
          </g>
          <path id="Path_711" data-name="Path 711" d="M386.9,170.447h-2.589c.286-2.6.7-7.177-1.438-7.833-6.746-2.072,2-6.839-1.049-9.216s-10.624-1.361-15.895-1.532c-5.3-.172-13.826-.1-15.894.383s-.937,3.917-.177,6.585-2.542,5.61-3.1,8.37a12.165,12.165,0,0,0,0,3.243H344.6c-.256-3.358-.294-6.484-.248-9.019a12.556,12.556,0,0,1,6.37-10.683c10.46-5.93,21.5-3.719,28.763-.925A12.513,12.513,0,0,1,387.5,162.1C387.38,164.657,387.19,167.569,386.9,170.447Z" fill="#18315b"/>
          <g id="Group_1012" data-name="Group 1012">
            <g id="Group_1007" data-name="Group 1007">
              <path id="Path_712" data-name="Path 712" d="M356.347,178.645a6.467,6.467,0,1,1,6.467-6.467A6.474,6.474,0,0,1,356.347,178.645Zm0-11.926a5.459,5.459,0,1,0,5.459,5.459A5.465,5.465,0,0,0,356.347,166.719Z" fill="#fff"/>
            </g>
            <g id="Group_1008" data-name="Group 1008">
              <path id="Path_713" data-name="Path 713" d="M374.024,178.645a6.467,6.467,0,1,1,6.467-6.467A6.474,6.474,0,0,1,374.024,178.645Zm0-11.926a5.459,5.459,0,1,0,5.459,5.459A5.465,5.465,0,0,0,374.024,166.719Z" fill="#fff"/>
            </g>
            <g id="Group_1009" data-name="Group 1009">
              <path id="Path_714" data-name="Path 714" d="M350.973,170.1a.5.5,0,0,1-.355-.146h0a7.944,7.944,0,0,0-6.821-1.98.5.5,0,1,1-.229-.981,8.822,8.822,0,0,1,7.76,2.247.5.5,0,0,1-.355.86Z" fill="#fff"/>
            </g>
            <g id="Group_1010" data-name="Group 1010">
              <path id="Path_715" data-name="Path 715" d="M379.517,170.1a.5.5,0,0,1-.277-.926c.193-.126,4.769-3.078,8.663-2.437a.5.5,0,1,1-.164.994c-3.505-.577-7.9,2.257-7.948,2.286A.484.484,0,0,1,379.517,170.1Z" fill="#fff"/>
            </g>
            <g id="Group_1011" data-name="Group 1011">
              <path id="Path_716" data-name="Path 716" d="M367.912,170.726a4.076,4.076,0,0,0-2.784-1.635,3.713,3.713,0,0,0-2.652,1.633l-.844-.551a4.669,4.669,0,0,1,3.5-2.09,5.026,5.026,0,0,1,3.6,2.054Z" fill="#fff"/>
            </g>
          </g>
        </g>
        <g id="Group_1014" data-name="Group 1014">
          <path id="Path_717" data-name="Path 717" d="M329.42,263.829a183.541,183.541,0,0,1-14.835,23.641,61.808,61.808,0,0,1-7.271,8.121c-3.944,3.561-7.79,5.424-10.923,3.843-11.619-5.857-37.521-52.472-37.521-52.472l6.379-7.566s11.528,13.313,19.959,21.28c7.775,7.347,13.754,12.839,13.754,12.839,1.076-1.638,2.223-3.433,3.415-5.333,1.268-2.016,2.583-4.151,3.922-6.346,9.708-15.939,20.481-35.074,20.481-35.074Z" fill="#ffa681"/>
          <path id="Path_718" data-name="Path 718" d="M314.585,287.47a61.808,61.808,0,0,1-7.271,8.121l-4.937-27.409c1.268-2.016,2.583-4.151,3.922-6.346Z" fill="#f97853"/>
          <path id="Path_719" data-name="Path 719" d="M326.778,226.762l-23.284,36.62,7.815,32.209,19.268-31.374S332.913,242.753,326.778,226.762Z" fill="#08aefe"/>
        </g>
      </g>
      <g id="Group_1038" data-name="Group 1038">
        <g id="Group_1021" data-name="Group 1021">
          <path id="Path_720" data-name="Path 720" d="M297.5,408.681c-1.663-9.216-3.3-19.61-4.792-29.7q-.49-3.348-.962-6.629c-1.2-8.357-2.262-16.259-3.119-22.817-.327-2.491-.62-4.791-.887-6.843-.831-6.546-1.319-10.612-1.319-10.612l-36.769,1.39-36.882-1.39s-.951,8.045-2.473,19.709c-.278,2.123-.575,4.362-.887,6.7-.819,6.121-1.755,12.881-2.762,19.8l-.045.3c-.316,2.157-.635,4.329-.966,6.5a.646.646,0,0,1-.015.086v0c-.789,5.249-1.616,10.491-2.457,15.534-.346,2.082-.7,4.126-1.049,6.117-.109.621-.219,1.234-.328,1.844H297.5Z" fill="#006bde"/>
          <g id="Group_1016" data-name="Group 1016">
            <path id="Path_721" data-name="Path 721" d="M221.247,343.121a3.465,3.465,0,1,1-3.465-3.465A3.465,3.465,0,0,1,221.247,343.121Z" fill="#264cbe"/>
            <path id="Path_722" data-name="Path 722" d="M229.847,356.547a3.465,3.465,0,1,1-3.465-3.465A3.465,3.465,0,0,1,229.847,356.547Z" fill="#264cbe"/>
            <path id="Path_723" data-name="Path 723" d="M246.766,349.616a3.465,3.465,0,1,1-3.465-3.465A3.465,3.465,0,0,1,246.766,349.616Z" fill="#264cbe"/>
            <path id="Path_724" data-name="Path 724" d="M220.063,370.8a3.465,3.465,0,1,1-3.465-3.465A3.466,3.466,0,0,1,220.063,370.8Z" fill="#264cbe"/>
            <path id="Path_725" data-name="Path 725" d="M241.205,369.323a3.465,3.465,0,1,1-3.465-3.465A3.465,3.465,0,0,1,241.205,369.323Z" fill="#264cbe"/>
            <path id="Path_726" data-name="Path 726" d="M212.554,355.037a3.461,3.461,0,0,1-3.141,3.45c.312-2.337.609-4.577.887-6.7A3.463,3.463,0,0,1,212.554,355.037Z" fill="#264cbe"/>
            <path id="Path_727" data-name="Path 727" d="M275.658,389.683a3.465,3.465,0,1,1-3.465-3.466A3.465,3.465,0,0,1,275.658,389.683Z" fill="#264cbe"/>
            <path id="Path_728" data-name="Path 728" d="M274.021,370.8a3.465,3.465,0,1,1-3.465-3.465A3.466,3.466,0,0,1,274.021,370.8Z" fill="#264cbe"/>
            <path id="Path_729" data-name="Path 729" d="M292.709,378.977a3.466,3.466,0,1,1-1.36-6.655,2.761,2.761,0,0,1,.4.026Q292.221,375.624,292.709,378.977Z" fill="#264cbe"/>
            <path id="Path_730" data-name="Path 730" d="M277.486,403.518a3.465,3.465,0,1,1-3.465-3.466A3.465,3.465,0,0,1,277.486,403.518Z" fill="#264cbe"/>
            <path id="Path_731" data-name="Path 731" d="M292.309,397.986a3.465,3.465,0,1,1-3.466-3.465A3.465,3.465,0,0,1,292.309,397.986Z" fill="#264cbe"/>
            <path id="Path_732" data-name="Path 732" d="M261.465,408.681a3.456,3.456,0,0,0-5.712,0Z" fill="#264cbe"/>
            <path id="Path_733" data-name="Path 733" d="M217.782,392.7a3.465,3.465,0,1,1-3.466-3.466A3.465,3.465,0,0,1,217.782,392.7Z" fill="#264cbe"/>
            <path id="Path_734" data-name="Path 734" d="M208.639,381.75a3.458,3.458,0,0,1-3.014,3.431.646.646,0,0,0,.015-.086c.331-2.172.65-4.344.966-6.5A3.474,3.474,0,0,1,208.639,381.75Z" fill="#264cbe"/>
            <path id="Path_735" data-name="Path 735" d="M204.588,403.515a3.474,3.474,0,0,1-2.469,3.322c.353-1.991.7-4.036,1.049-6.117A3.461,3.461,0,0,1,204.588,403.515Z" fill="#264cbe"/>
            <path id="Path_736" data-name="Path 736" d="M226.382,404.982a3.465,3.465,0,1,1-3.466-3.465A3.466,3.466,0,0,1,226.382,404.982Z" fill="#264cbe"/>
            <path id="Path_737" data-name="Path 737" d="M244.67,402.268a3.465,3.465,0,1,1-3.465-3.465A3.466,3.466,0,0,1,244.67,402.268Z" fill="#264cbe"/>
            <path id="Path_738" data-name="Path 738" d="M231.623,385.229a3.465,3.465,0,1,1-3.466-3.465A3.466,3.466,0,0,1,231.623,385.229Z" fill="#264cbe"/>
            <path id="Path_739" data-name="Path 739" d="M250.232,381.764a3.465,3.465,0,1,1-3.465-3.465A3.465,3.465,0,0,1,250.232,381.764Z" fill="#264cbe"/>
            <path id="Path_740" data-name="Path 740" d="M258.609,363.478a3.465,3.465,0,1,1-3.465-3.466A3.465,3.465,0,0,1,258.609,363.478Z" fill="#264cbe"/>
            <path id="Path_741" data-name="Path 741" d="M288.628,349.532a3.263,3.263,0,0,1-.744.083,3.464,3.464,0,0,1-.143-6.926C288.008,344.741,288.3,347.041,288.628,349.532Z" fill="#264cbe"/>
            <path id="Path_742" data-name="Path 742" d="M270.555,349.616a3.465,3.465,0,1,1-3.465-3.465A3.465,3.465,0,0,1,270.555,349.616Z" fill="#264cbe"/>
            <path id="Path_743" data-name="Path 743" d="M283.248,361.966a3.465,3.465,0,1,1-3.465-3.466A3.465,3.465,0,0,1,283.248,361.966Z" fill="#264cbe"/>
            <path id="Path_744" data-name="Path 744" d="M262.074,392.7a3.465,3.465,0,1,1-3.465-3.466A3.465,3.465,0,0,1,262.074,392.7Z" fill="#264cbe"/>
          </g>
          <path id="Path_745" data-name="Path 745" d="M288.659,332.987c-19.4,12.663-55.012,11.671-77.393,0,2.138-13.317,4.953-26.65,4.348-44.374q-.1-2.914-.248-5.787-.129-2.5-.289-4.953c-1.932-29.487-6.963-53.6-4.491-56.711a23.522,23.522,0,0,1,5.1-4.344c.872-.594,1.8-1.2,2.788-1.8,2.322-1.417,4.9-2.845,7.5-4.235,6.151-3.284,12.4-6.332,15.527-8.413a19.891,19.891,0,0,0,8.241,2.078,2.269,2.269,0,0,0,.229-.008,2.06,2.06,0,0,0,.222.008,19.919,19.919,0,0,0,8.244-2.078c2.9,1.932,8.372,4.626,13.952,7.564a120.932,120.932,0,0,1,11.5,6.677,23.058,23.058,0,0,1,4.911,4.22c1.225,1.544.71,8.316-.338,18.349-1.037,9.871-2.589,22.907-3.528,37.235-.259,3.979-.473,8.056-.616,12.194C283.71,306.338,286.521,319.67,288.659,332.987Z" fill="#009cf8"/>
          <g id="Group_1017" data-name="Group 1017">
            <path id="Path_746" data-name="Path 746" d="M276.8,318.26h0c-15.62-.069-28.952-7.176-37.386-13.127a85.524,85.524,0,0,1-14.7-13.022.752.752,0,0,1,1.15-.968,84.032,84.032,0,0,0,14.454,12.785c8.25,5.815,21.279,12.761,36.491,12.828a.752.752,0,0,1,0,1.5Z" fill="#006bde"/>
          </g>
          <g id="Group_1018" data-name="Group 1018">
            <path id="Path_747" data-name="Path 747" d="M266.456,309.167c-13.3-2.614-25.072-12.8-25.606-13.268a.752.752,0,1,1,.99-1.131c.138.121,13.992,12.1,28.109,13.389a.751.751,0,1,1-.137,1.5A32.988,32.988,0,0,1,266.456,309.167Z" fill="#006bde"/>
          </g>
          <g id="Group_1019" data-name="Group 1019">
            <path id="Path_748" data-name="Path 748" d="M246.766,240.36a.752.752,0,0,1-.14-1.491c19.043-3.614,24.783-15.865,24.839-15.988a.752.752,0,0,1,1.37.619c-.241.533-6.125,13.088-25.928,16.845A.691.691,0,0,1,246.766,240.36Z" fill="#006bde"/>
          </g>
          <path id="Path_749" data-name="Path 749" d="M272.383,209.939c-3.78,8.622-13.072,17.55-25.156,15.462-11.7-2.023-17.252-8.212-21.257-14.614,6.152-3.285,12.4-6.329,15.526-8.412a19.974,19.974,0,0,0,8.239,2.079,2.23,2.23,0,0,0,.229-.008,2.116,2.116,0,0,0,.225.008,20.014,20.014,0,0,0,8.244-2.079C261.337,204.3,266.806,207,272.383,209.939Z" fill="#ffa681"/>
          <g id="Group_1020" data-name="Group 1020">
            <path id="Path_750" data-name="Path 750" d="M262.281,203.006a.6.6,0,0,0-.6.594c0,.485-.2,11.881-10.432,12.764-9.489.825-13.417-8.259-14.63-12.027a.532.532,0,0,0-.508-.369H236a.534.534,0,0,0-.508.7c1.295,3.888,5.431,13.277,15.1,12.932q.377-.014.763-.047c11.322-.977,11.524-13.818,11.525-13.948A.6.6,0,0,0,262.281,203.006Z" fill="#fff"/>
          </g>
        </g>
        <g id="Group_1031" data-name="Group 1031">
          <path id="Path_751" data-name="Path 751" d="M269.513,142.43s9.143,14.162,8.141,28.913S279,203.122,265.8,202.374s-36.743,5.292-44.226-6.2S269.513,142.43,269.513,142.43Z" fill="#18315b"/>
          <path id="Path_752" data-name="Path 752" d="M272.9,168.47s2.373,21.382-7.773,27.269-17.489-.686-17.489-.686S269.026,165.25,272.9,168.47Z" fill="#000b29"/>
          <g id="Group_1030" data-name="Group 1030">
            <g id="Group_1024" data-name="Group 1024">
              <path id="Path_753" data-name="Path 753" d="M230.757,168.371s-3.643-4.857-6.352-.841,1.121,15.88,7.753,12.984Z" fill="#f97853"/>
              <g id="Group_1022" data-name="Group 1022">
                <path id="Path_754" data-name="Path 754" d="M230.71,176.848a.562.562,0,0,1-.54-.409c-1.028-3.663-4.822-5.147-4.861-5.162a.561.561,0,0,1,.4-1.049,9.655,9.655,0,0,1,5.543,5.908.561.561,0,0,1-.539.712Z" fill="#ea5143"/>
              </g>
              <g id="Group_1023" data-name="Group 1023">
                <path id="Path_755" data-name="Path 755" d="M226.879,175a.56.56,0,0,1-.471-.864,5.12,5.12,0,0,1,2.1-1.7.56.56,0,1,1,.457,1.023,4.053,4.053,0,0,0-1.619,1.28A.555.555,0,0,1,226.879,175Z" fill="#ea5143"/>
              </g>
            </g>
            <g id="Group_1027" data-name="Group 1027">
              <path id="Path_756" data-name="Path 756" d="M268.3,168.371s3.643-4.857,6.352-.841-1.121,15.88-7.753,12.984Z" fill="#f97853"/>
              <g id="Group_1025" data-name="Group 1025">
                <path id="Path_757" data-name="Path 757" d="M268.348,176.848a.562.562,0,0,0,.54-.409c1.028-3.663,4.822-5.147,4.861-5.162a.561.561,0,0,0-.4-1.049,9.655,9.655,0,0,0-5.543,5.908.561.561,0,0,0,.388.691A.572.572,0,0,0,268.348,176.848Z" fill="#ea5143"/>
              </g>
              <g id="Group_1026" data-name="Group 1026">
                <path id="Path_758" data-name="Path 758" d="M272.179,175a.56.56,0,0,0,.471-.864,5.12,5.12,0,0,0-2.1-1.7.56.56,0,0,0-.457,1.023,4.052,4.052,0,0,1,1.619,1.28A.556.556,0,0,0,272.179,175Z" fill="#ea5143"/>
              </g>
            </g>
            <path id="Path_759" data-name="Path 759" d="M258.5,190.577v11.8s-3.519,6.008-8.277,6.418-8.977-5.173-8.977-5.173V191.407Z" fill="#ffa681"/>
            <path id="Path_760" data-name="Path 760" d="M258.5,190.577v5.235c-3.193,3.543-8.861,4.8-17.253,3.56v-7.965Z" fill="#f97853"/>
            <path id="Path_761" data-name="Path 761" d="M270.936,160.277a114.94,114.94,0,0,1-1.53,14.9c-.219,1.143-.465,2.219-.74,3.184-2.483,8.693-8.693,23.6-26.079,17.392-7.679-2.741-11.238-11.294-12.824-19.992a84.07,84.07,0,0,1-1.16-16.142,12.317,12.317,0,0,1,6.249-10.481c10.262-5.818,21.091-3.649,28.22-.908A12.277,12.277,0,0,1,270.936,160.277Z" fill="#ffa681"/>
            <path id="Path_762" data-name="Path 762" d="M241.873,169.063c0,1.259-.649,2.281-1.45,2.281s-1.45-1.021-1.45-2.281.649-2.28,1.45-2.28S241.873,167.8,241.873,169.063Z" fill="#18315b"/>
            <path id="Path_763" data-name="Path 763" d="M259.775,169.063c0,1.259-.649,2.281-1.45,2.281s-1.45-1.021-1.45-2.281.649-2.28,1.45-2.28S259.775,167.8,259.775,169.063Z" fill="#18315b"/>
            <path id="Path_764" data-name="Path 764" d="M237.551,162.274a24.194,24.194,0,0,1,6.2-.929,1.077,1.077,0,0,1,1.073,1.263l0,.017a1.073,1.073,0,0,1-1.109.881c-1.746-.081-6.328.164-8.492,1.041a1.621,1.621,0,0,1,.493-1.153A3.736,3.736,0,0,1,237.551,162.274Z" fill="#18315b"/>
            <path id="Path_765" data-name="Path 765" d="M260.976,162.321a24.2,24.2,0,0,0-6.2-.929,1.077,1.077,0,0,0-1.073,1.263l0,.017a1.073,1.073,0,0,0,1.108.881c1.746-.081,6.328.164,8.492,1.041a1.625,1.625,0,0,0-.493-1.154A3.724,3.724,0,0,0,260.976,162.321Z" fill="#18315b"/>
            <g id="Group_1028" data-name="Group 1028">
              <path id="Path_766" data-name="Path 766" d="M249.724,179.467a2.365,2.365,0,0,1-1.219-.291,1.712,1.712,0,0,1-.815-1.368,82.91,82.91,0,0,1,.337-8.791.561.561,0,1,1,1.118.092,84.8,84.8,0,0,0-.339,8.584.608.608,0,0,0,.276.522A3.368,3.368,0,0,0,251.33,178a.56.56,0,1,1,.423,1.037A5.989,5.989,0,0,1,249.724,179.467Z" fill="#f97853"/>
            </g>
            <path id="Path_767" data-name="Path 767" d="M242.606,183.006c.424,2.132,1.832,6.054,6.576,6.054s6.09-3.584,6.548-6.054Z" fill="#fff"/>
            <g id="Group_1029" data-name="Group 1029">
              <path id="Path_768" data-name="Path 768" d="M249.115,192.331a5.6,5.6,0,0,1-2.629-.769.56.56,0,0,1,.588-.954h0a4.51,4.51,0,0,0,2.041.6,4.771,4.771,0,0,0,2.153-.6.56.56,0,0,1,.58.959A5.857,5.857,0,0,1,249.115,192.331Z" fill="#f97853"/>
            </g>
          </g>
          <path id="Path_769" data-name="Path 769" d="M273.193,159.364a1.846,1.846,0,0,1-1.349,1.033,35.566,35.566,0,0,1-.2,4.148c-.692,8.1-2.735,9.523-3.2,7.52a93.494,93.494,0,0,1-.139-11.447,26.416,26.416,0,0,1-2.969-.372l-1.879-7.865-.658,7.767c-2.818.981-9.394-.59-9.394-.59l-2.206-7.752-1.364,7.459c-4.227,2.059-9.511.688-9.511.688l-1.214-8.045-2.8,8.045s-9.018,3.235-9.116,0c-.06-1.883,1.319-7.185,2.484-11.292a16.984,16.984,0,0,1,8.192-10.4c11.186-6.005,23.016-2.811,27.074-.387C273.546,143.014,273.193,159.364,273.193,159.364Z" fill="#18315b"/>
          <path id="Path_770" data-name="Path 770" d="M232.158,143.029s-7.424,8.83-9.867,24.6-5.825,27.423,3.679,32.631c10.286,5.636,9.4-5.923,9.247-9.065s-8.9-11.729-3.059-35.915C234.043,147.473,232.158,143.029,232.158,143.029Z" fill="#18315b"/>
          <path id="Path_771" data-name="Path 771" d="M230.423,175.619v.019c0,.117.011.744.056,1.725.023.609.06,1.349.116,2.191.35,5.313,1.383,14.49,4.419,17.672,1.2,1.259,3.51,1.89,6.23,2.146V195.2a16.521,16.521,0,0,1-6.835-6.347,39.031,39.031,0,0,1-3.78-11.656Z" fill="#000b29"/>
          <path id="Path_772" data-name="Path 772" d="M271.07,180.781a1.313,1.313,0,1,1-1.313-1.313A1.313,1.313,0,0,1,271.07,180.781Z" fill="#fff"/>
        </g>
        <g id="Group_1037" data-name="Group 1037">
          <path id="Path_773" data-name="Path 773" d="M297.83,279.7c-3.719,10.648-20.377,9.873-39.349,4.052-.027-.008-.055-.018-.082-.025-.06-.017-.117-.037-.177-.055l-2.61-.832c-.36-.117-.722-.237-1.082-.36q-3.067-1.027-6.172-2.21a211.841,211.841,0,0,1-20.052-8.881l.045-.112,1.94-5.039.662-1.715s35.172,3.832,52.856.135c.3-.063.592-.125.88-.192a11.018,11.018,0,0,0-.2-1.167c-9.37-31.9.877-38.016,4.307-42.465C288.794,220.834,304.852,259.6,297.83,279.7Z" fill="#009cf8"/>
          <g id="Group_1032" data-name="Group 1032">
            <path id="Path_774" data-name="Path 774" d="M292.1,269.829a.763.763,0,0,1-.328.075.753.753,0,0,1-.675-.42c-1.34-2.745-5.889-4.377-7.286-4.824.3-.063.592-.125.88-.192-.07-.392-.137-.782-.2-1.167,1.777.587,6.419,2.377,7.956,5.527A.749.749,0,0,1,292.1,269.829Z" fill="#006bde"/>
          </g>
          <g id="Group_1033" data-name="Group 1033">
            <path id="Path_775" data-name="Path 775" d="M242.837,268.492c-7.178,0-13.007-.413-13.515-.45a.75.75,0,1,1,.11-1.495c.265.019,26.648,1.885,37.05-2.334a.75.75,0,1,1,.564,1.39C261.287,267.938,251.156,268.492,242.837,268.492Z" fill="#006bde"/>
          </g>
          <g id="Group_1034" data-name="Group 1034">
            <path id="Path_776" data-name="Path 776" d="M255.612,282.841h0c6.019-1.66,11.491-3.277,14.65-4.289,4.387-1.407,8.016-5.841,9.666-9.611a.75.75,0,0,1,1.374.6c-1.785,4.077-5.749,8.886-10.583,10.438-2.293.735-5.8,1.785-9.842,2.94a9.091,9.091,0,0,1-5.268-.08Z" fill="#006bde"/>
          </g>
          <g id="Group_1036" data-name="Group 1036">
            <path id="Path_777" data-name="Path 777" d="M271.837,277.685c-54.356,18.307-71.078,6.326-71.078,6.326-3.659-33.092,9.826-62.85,9.826-62.85,3.984,6.569,8.489,18.035,8.489,18.035l1.19,25.366-.09.7-.043.332-.225,1.735-.005.035.35.075c16.442,3.469,46.512-.407,46.512-.407Z" fill="#009cf8"/>
            <g id="Group_1035" data-name="Group 1035">
              <path id="Path_778" data-name="Path 778" d="M220.251,267.444a53.521,53.521,0,0,0-8.206,8.551.751.751,0,0,1-1.2-.907,0,0,0,0,0,0,0,54.985,54.985,0,0,1,9.281-9.486l-.225,1.735-.005.035Z" fill="#006bde"/>
            </g>
            <path id="Path_779" data-name="Path 779" d="M266.763,267.037s6.018-13.67,15.167-12.453l2.759,9.884c-5.008,2.127-5.741,10.714-12.851,13.217Z" fill="#ffa681"/>
          </g>
          <path id="Path_780" data-name="Path 780" d="M230.955,264.525a21.78,21.78,0,0,0-13.8-11.509c-10-2.59-16.374,2.124-17.045,3.9s3.772.079,3.772.079a8.63,8.63,0,0,0-4.554,3.539c-1.66,2.72,4.041-.215,4.041-.215s-4.088,1.792-4.608,3.453,4.872-1.145,5.885-1.092c0,0-4.815,1.914-4.782,3.628s5.531-1.081,9.636-.86a64.744,64.744,0,0,1,10.4,1.922,68.966,68.966,0,0,0,9.476,1.247Z" fill="#ffa681"/>
        </g>
      </g>
      <g id="Group_1084" data-name="Group 1084">
        <g id="Group_1077" data-name="Group 1077">
          <g id="Group_1057" data-name="Group 1057">
            <g id="Group_1056" data-name="Group 1056">
              <g id="Group_1039" data-name="Group 1039">
                <path id="Path_781" data-name="Path 781" d="M327.535,125.831a6.714,6.714,0,1,1,6.714-6.714A6.722,6.722,0,0,1,327.535,125.831Zm0-11.321a4.608,4.608,0,1,0,4.607,4.608A4.613,4.613,0,0,0,327.535,114.51Z" fill="#006bde"/>
              </g>
              <g id="Group_1040" data-name="Group 1040">
                <path id="Path_782" data-name="Path 782" d="M386.11,114.425a6.714,6.714,0,1,1,6.714-6.714A6.722,6.722,0,0,1,386.11,114.425Zm0-11.321a4.608,4.608,0,1,0,4.607,4.608A4.613,4.613,0,0,0,386.11,103.1Z" fill="#009cf8"/>
              </g>
              <g id="Group_1047" data-name="Group 1047">
                <g id="Group_1043" data-name="Group 1043">
                  <g id="Group_1041" data-name="Group 1041">
                    <path id="Path_783" data-name="Path 783" d="M394.4,136.242a1.053,1.053,0,0,1-1.053-1.053v-4.644a1.053,1.053,0,0,1,2.106,0v4.644A1.053,1.053,0,0,1,394.4,136.242Z" fill="#006bde"/>
                  </g>
                  <g id="Group_1042" data-name="Group 1042">
                    <path id="Path_784" data-name="Path 784" d="M394.4,144.369a1.053,1.053,0,0,1-1.053-1.053v-4.644a1.053,1.053,0,0,1,2.106,0v4.644A1.052,1.052,0,0,1,394.4,144.369Z" fill="#006bde"/>
                  </g>
                </g>
                <g id="Group_1046" data-name="Group 1046">
                  <g id="Group_1044" data-name="Group 1044">
                    <path id="Path_785" data-name="Path 785" d="M400.924,137.983h-4.172a1.053,1.053,0,1,1,0-2.106h4.172a1.053,1.053,0,1,1,0,2.106Z" fill="#006bde"/>
                  </g>
                  <g id="Group_1045" data-name="Group 1045">
                    <path id="Path_786" data-name="Path 786" d="M392.058,137.983h-4.172a1.053,1.053,0,1,1,0-2.106h4.172a1.053,1.053,0,1,1,0,2.106Z" fill="#006bde"/>
                  </g>
                </g>
              </g>
              <g id="Group_1055" data-name="Group 1055">
                <g id="Group_1054" data-name="Group 1054">
                  <g id="Group_1050" data-name="Group 1050">
                    <g id="Group_1048" data-name="Group 1048">
                      <path id="Path_787" data-name="Path 787" d="M358.943,108.107a1.053,1.053,0,0,1-1.053-1.053V102.41a1.053,1.053,0,0,1,2.106,0v4.644A1.053,1.053,0,0,1,358.943,108.107Z" fill="#08aefe"/>
                    </g>
                    <g id="Group_1049" data-name="Group 1049">
                      <path id="Path_788" data-name="Path 788" d="M358.943,116.234a1.052,1.052,0,0,1-1.053-1.053v-4.644a1.053,1.053,0,0,1,2.106,0v4.644A1.052,1.052,0,0,1,358.943,116.234Z" fill="#08aefe"/>
                    </g>
                  </g>
                  <g id="Group_1053" data-name="Group 1053">
                    <g id="Group_1051" data-name="Group 1051">
                      <path id="Path_789" data-name="Path 789" d="M365.462,109.849H361.29a1.053,1.053,0,1,1,0-2.106h4.172a1.053,1.053,0,1,1,0,2.106Z" fill="#08aefe"/>
                    </g>
                    <g id="Group_1052" data-name="Group 1052">
                      <path id="Path_790" data-name="Path 790" d="M356.6,109.849h-4.172a1.053,1.053,0,1,1,0-2.106H356.6a1.053,1.053,0,1,1,0,2.106Z" fill="#08aefe"/>
                    </g>
                  </g>
                </g>
              </g>
            </g>
          </g>
          <g id="Group_1076" data-name="Group 1076">
            <g id="Group_1075" data-name="Group 1075">
              <g id="Group_1058" data-name="Group 1058">
                <path id="Path_791" data-name="Path 791" d="M87.568,102.082a6.714,6.714,0,1,1,6.714,6.714A6.722,6.722,0,0,1,87.568,102.082Zm2.107,0a4.607,4.607,0,1,0,4.607-4.608A4.612,4.612,0,0,0,89.675,102.082Z" fill="#088bfe"/>
              </g>
              <g id="Group_1059" data-name="Group 1059">
                <path id="Path_792" data-name="Path 792" d="M60.607,127.672a6.714,6.714,0,1,1,6.714,6.714A6.722,6.722,0,0,1,60.607,127.672Zm2.106,0a4.608,4.608,0,1,0,4.608-4.608A4.612,4.612,0,0,0,62.713,127.672Z" fill="#009cf8"/>
              </g>
              <g id="Group_1066" data-name="Group 1066">
                <g id="Group_1062" data-name="Group 1062">
                  <g id="Group_1060" data-name="Group 1060">
                    <path id="Path_793" data-name="Path 793" d="M46.648,137.093A1.052,1.052,0,0,0,47.7,136.04V131.4a1.053,1.053,0,0,0-2.106,0v4.644A1.053,1.053,0,0,0,46.648,137.093Z" fill="#08aefe"/>
                  </g>
                  <g id="Group_1061" data-name="Group 1061">
                    <path id="Path_794" data-name="Path 794" d="M46.648,145.221a1.052,1.052,0,0,0,1.053-1.053v-4.644a1.053,1.053,0,0,0-2.106,0v4.644A1.054,1.054,0,0,0,46.648,145.221Z" fill="#08aefe"/>
                  </g>
                </g>
                <g id="Group_1065" data-name="Group 1065">
                  <g id="Group_1063" data-name="Group 1063">
                    <path id="Path_795" data-name="Path 795" d="M40.129,138.835H44.3a1.053,1.053,0,1,0,0-2.106H40.129a1.053,1.053,0,1,0,0,2.106Z" fill="#08aefe"/>
                  </g>
                  <g id="Group_1064" data-name="Group 1064">
                    <path id="Path_796" data-name="Path 796" d="M48.995,138.835h4.172a1.053,1.053,0,1,0,0-2.106H48.995a1.053,1.053,0,1,0,0,2.106Z" fill="#08aefe"/>
                  </g>
                </g>
              </g>
              <g id="Group_1074" data-name="Group 1074">
                <g id="Group_1073" data-name="Group 1073">
                  <g id="Group_1069" data-name="Group 1069">
                    <g id="Group_1067" data-name="Group 1067">
                      <path id="Path_797" data-name="Path 797" d="M70.915,101.393a1.053,1.053,0,0,0,1.053-1.053V95.7a1.053,1.053,0,0,0-2.106,0v4.644A1.052,1.052,0,0,0,70.915,101.393Z" fill="#08aefe"/>
                    </g>
                    <g id="Group_1068" data-name="Group 1068">
                      <path id="Path_798" data-name="Path 798" d="M70.915,109.521a1.053,1.053,0,0,0,1.053-1.053v-4.644a1.053,1.053,0,0,0-2.106,0v4.644A1.053,1.053,0,0,0,70.915,109.521Z" fill="#08aefe"/>
                    </g>
                  </g>
                  <g id="Group_1072" data-name="Group 1072">
                    <g id="Group_1070" data-name="Group 1070">
                      <path id="Path_799" data-name="Path 799" d="M64.4,103.135h4.172a1.053,1.053,0,0,0,0-2.106H64.4a1.053,1.053,0,0,0,0,2.106Z" fill="#08aefe"/>
                    </g>
                    <g id="Group_1071" data-name="Group 1071">
                      <path id="Path_800" data-name="Path 800" d="M73.262,103.135h4.172a1.053,1.053,0,0,0,0-2.106H73.262a1.053,1.053,0,0,0,0,2.106Z" fill="#08aefe"/>
                    </g>
                  </g>
                </g>
              </g>
            </g>
          </g>
        </g>
        <g id="Group_1083" data-name="Group 1083">
          <g id="Group_1080" data-name="Group 1080">
            <g id="Group_1078" data-name="Group 1078">
              <path id="Path_801" data-name="Path 801" d="M271.69,102.564a.743.743,0,0,1-.369-.055c-1.278-.539-2.027-.791-2.035-.794a.748.748,0,0,1,.473-1.419c.032.011.8.27,2.143.834a.749.749,0,0,1-.212,1.434Z" fill="#bbe2f2"/>
            </g>
            <g id="Group_1079" data-name="Group 1079">
              <path id="Path_802" data-name="Path 802" d="M309.8,142.673c.509,1.357.985,2.756,1.416,4.159a.749.749,0,0,0,.793.524.8.8,0,0,0,.142-.029.747.747,0,0,0,.495-.934c-.44-1.432-.926-2.86-1.445-4.244a.748.748,0,0,0-1.4.524Z" fill="#bbe2f2"/>
              <path id="Path_803" data-name="Path 803" d="M312.38,151.068c.343,1.4.652,2.851.921,4.3a.748.748,0,0,0,.813.607l.058-.008a.749.749,0,0,0,.6-.872c-.273-1.475-.589-2.949-.938-4.381a.748.748,0,0,0-1.453.355Z" fill="#bbe2f2"/>
              <path id="Path_804" data-name="Path 804" d="M315.534,173.65a.748.748,0,0,0,.668-.732c.023-1.5.012-3.006-.032-4.475a.748.748,0,1,0-1.495.045c.044,1.446.054,2.929.032,4.407a.747.747,0,0,0,.736.759A.683.683,0,0,0,315.534,173.65Z" fill="#bbe2f2"/>
              <path id="Path_805" data-name="Path 805" d="M314.628,158.873a.746.746,0,0,0-.645.838c.088.676.168,1.359.239,2.03.082.774.155,1.565.216,2.349a.747.747,0,0,0,.8.687l.02,0a.749.749,0,0,0,.667-.8c-.063-.8-.136-1.6-.219-2.389-.072-.683-.154-1.378-.243-2.066a.747.747,0,0,0-.819-.647Z" fill="#bbe2f2"/>
              <path id="Path_806" data-name="Path 806" d="M308.131,138.61A.748.748,0,0,0,309.5,138c-.609-1.362-1.269-2.72-1.961-4.035a.748.748,0,0,0-1.324.7C306.889,135.948,307.534,137.276,308.131,138.61Z" fill="#bbe2f2"/>
              <path id="Path_807" data-name="Path 807" d="M275.293,104.368c1.284.656,2.58,1.37,3.852,2.123a.748.748,0,0,0,.763-1.287c-1.3-.769-2.622-1.5-3.933-2.168a.748.748,0,0,0-.682,1.332Z" fill="#bbe2f2"/>
              <path id="Path_808" data-name="Path 808" d="M286.437,111.409a.74.74,0,0,0,.532.149.748.748,0,0,0,.375-1.338c-1.184-.9-2.41-1.784-3.644-2.617a.748.748,0,0,0-.836,1.24C284.074,109.659,285.276,110.523,286.437,111.409Z" fill="#bbe2f2"/>
              <path id="Path_809" data-name="Path 809" d="M299,123.652a.748.748,0,1,0,1.167-.935c-.929-1.16-1.909-2.309-2.913-3.413a.747.747,0,1,0-1.106,1C297.132,121.391,298.092,122.516,299,123.652Z" fill="#bbe2f2"/>
              <path id="Path_810" data-name="Path 810" d="M293.1,117.15a.748.748,0,1,0,1.044-1.071c-1.063-1.035-2.177-2.054-3.31-3.031a.747.747,0,0,0-.976,1.132C290.962,115.137,292.053,116.136,293.1,117.15Z" fill="#bbe2f2"/>
              <path id="Path_811" data-name="Path 811" d="M304.045,130.84a.747.747,0,1,0,1.276-.779c-.776-1.271-1.6-2.534-2.458-3.754a.748.748,0,0,0-1.225.859C302.475,128.36,303.285,129.6,304.045,130.84Z" fill="#bbe2f2"/>
            </g>
          </g>
          <g id="Group_1082" data-name="Group 1082">
            <g id="Group_1081" data-name="Group 1081">
              <path id="Path_812" data-name="Path 812" d="M271.675,97.448l3.273-12.12-40.1.344Z" fill="#08aefe"/>
              <path id="Path_813" data-name="Path 813" d="M234.85,85.671l34.879,14.7.092.04,1.5,2.485.353-5.451Z" fill="#006bde"/>
              <path id="Path_814" data-name="Path 814" d="M271.322,102.9l-3.251-.512,1.75-1.973Z" fill="#006bde"/>
              <path id="Path_815" data-name="Path 815" d="M265.433,98.563l4.389,1.85L260.783,110.6,234.85,85.672Z" fill="#08aefe"/>
            </g>
          </g>
        </g>
      </g>
      <g id="Group_1085" data-name="Group 1085">
        <path id="Path_816" data-name="Path 816" d="M456.055,416.312v.731a7.634,7.634,0,0,1-7.634,7.632H52.473a7.631,7.631,0,0,1-7.632-7.632v-.731a7.631,7.631,0,0,1,7.632-7.632H448.421A7.634,7.634,0,0,1,456.055,416.312Z" fill="#08aefe"/>
        <path id="Path_817" data-name="Path 817" d="M456.055,416.312v.365H44.841v-.365a7.631,7.631,0,0,1,7.632-7.632H448.421A7.634,7.634,0,0,1,456.055,416.312Z" fill="#006bde"/>
      </g>
      <g id="Group_1086" data-name="Group 1086">
        <path id="Path_818" data-name="Path 818" d="M311.044,384.671H186.658a5.381,5.381,0,0,1-5.381-5.381V314.213a5.381,5.381,0,0,1,5.381-5.381H311.043a5.381,5.381,0,0,1,5.381,5.381V379.29A5.38,5.38,0,0,1,311.044,384.671Z" fill="#18315b"/>
        <rect id="Rectangle_517" data-name="Rectangle 517" width="20.931" height="23.861" transform="translate(238.386 384.585)" fill="#000b29"/>
        <circle id="Ellipse_444" data-name="Ellipse 444" cx="10.388" cy="10.388" r="10.388" transform="translate(238.229 337.293)" fill="#1d567e"/>
        <path id="Path_819" data-name="Path 819" d="M275.51,408.445H221.522v-1.819a6.646,6.646,0,0,1,6.645-6.646h40.7a6.645,6.645,0,0,1,6.645,6.646v1.819Z" fill="#18315b"/>
      </g>
    </g>
  </g>
</svg>
