<svg id="Component_24_7" data-name="Component 24 – 7" xmlns="http://www.w3.org/2000/svg" width="75.078" height="41" viewBox="0 0 75.078 41">
  <text id="Pap" transform="translate(55.078 23)" fill="#08aefe" font-size="19" font-family="TropicalSunday, Tropical Sunday"><tspan x="-19.107" y="0">Pap</tspan></text>
  <path id="icons8_creativity" d="M12.946,5.467A2.942,2.942,0,0,0,11.1,5.011a3.072,3.072,0,0,0-2.732,3.1v.35c-3.278,1.025-4.78,3.583-4.78,5.65a5.467,5.467,0,0,0,.472,2.19,5.511,5.511,0,0,1,3.89-1.742,5.514,5.514,0,0,1,3.749,1.466.9.9,0,1,1-1.283,1.251,3.693,3.693,0,0,0-2.466-.924A3.791,3.791,0,0,0,5.2,17.695a4.191,4.191,0,0,0-1.018,2.839c0,2.232,2.222,4.017,4.182,4.142h0A2.988,2.988,0,0,0,11.352,27.7a2.955,2.955,0,0,0,2.039-.816,1.168,1.168,0,0,0,.351-.85V6.961A1.771,1.771,0,0,0,12.946,5.467Zm-1.3,18.054a.9.9,0,0,1-.9-.9,1.5,1.5,0,0,0-1.494-1.494.9.9,0,1,1,0-1.792,3.29,3.29,0,0,1,3.286,3.286A.9.9,0,0,1,11.651,23.521ZM9.858,12.767a.9.9,0,0,1,0-1.792.9.9,0,0,0,.9-.9.9.9,0,1,1,1.792,0A2.692,2.692,0,0,1,9.858,12.767Zm10.874,1.792a5.511,5.511,0,0,1,3.89,1.742,5.467,5.467,0,0,0,.472-2.19c0-2.067-1.5-4.625-4.78-5.65v-.35a3.071,3.071,0,0,0-2.732-3.1,2.946,2.946,0,0,0-1.849.456,1.769,1.769,0,0,0-.8,1.494V26.038a1.164,1.164,0,0,0,.348.847,2.976,2.976,0,0,0,5.029-2.193v-.017c1.96-.124,4.182-1.91,4.182-4.142a4.191,4.191,0,0,0-1.018-2.839,3.789,3.789,0,0,0-2.746-1.343,3.687,3.687,0,0,0-2.465.924.9.9,0,1,1-1.283-1.251A5.51,5.51,0,0,1,20.732,14.559Zm-1.314,4.78a.9.9,0,0,1,0,1.792,1.5,1.5,0,0,0-1.494,1.494.9.9,0,0,1-1.792,0A3.29,3.29,0,0,1,19.418,19.339Zm-3.286-9.261a.9.9,0,1,1,1.792,0,.9.9,0,0,0,.9.9.9.9,0,0,1,0,1.792A2.692,2.692,0,0,1,16.132,10.078ZM24.5,5a1.195,1.195,0,1,0,1.195,1.195A1.195,1.195,0,0,0,24.5,5ZM4.182,25.314a1.195,1.195,0,1,0,1.195,1.195A1.195,1.195,0,0,0,4.182,25.314Zm20.314,0a1.195,1.195,0,1,0,1.195,1.195A1.195,1.195,0,0,0,24.5,25.314Zm2.987-13.742a1.195,1.195,0,1,0,1.195,1.195A1.195,1.195,0,0,0,27.484,11.572Zm0,7.17a1.195,1.195,0,1,0,1.195,1.195A1.195,1.195,0,0,0,27.484,18.742ZM1.195,11.572A1.195,1.195,0,1,0,2.39,12.767a1.195,1.195,0,0,0-1.195-1.195Zm0,7.17A1.195,1.195,0,1,0,2.39,19.937a1.195,1.195,0,0,0-1.195-1.195ZM4.182,5A1.195,1.195,0,1,0,5.377,6.195,1.195,1.195,0,0,0,4.182,5Z" transform="translate(0 4)" fill="#08aefe"/>
</svg>
