<svg xmlns="http://www.w3.org/2000/svg" width="456.02" height="376.191" viewBox="0 0 456.02 376.191">
  <g id="_5155589_2710476" data-name="5155589_2710476" transform="translate(-21.99 -68.476)">
    <g id="OBJECTS">
      <g id="Group_1088" data-name="Group 1088">
        <g id="Group_1087" data-name="Group 1087">
          <path id="Path_820" data-name="Path 820" d="M428.2,427.629c-22.722-17.263-61.583-60.1-10.408-127.346,63.284-83.158-12.5-117.275-85.15-113.714-58.444,2.865-124.218-70.609-189.831-57.477-87.088,17.43-30.541,92.426-89.589,132.831C2.861,296.38,24.482,401.374,90.022,427.629Z" fill="#dcedf9"/>
        </g>
        <path id="Path_821" data-name="Path 821" d="M469.208,275.132c-.351-12.331-11.838-17.115-19.505-8.187a38.479,38.479,0,0,0-9.376,22.292c-1.756,21.985,17.479,15.615,24.666,3.843C468.059,288.059,469.385,281.365,469.208,275.132Z" fill="#dcedf9"/>
        <path id="Path_822" data-name="Path 822" d="M257.55,124.737c-12.121-2.294-19.25,7.9-12.168,17.3a38.478,38.478,0,0,0,19.772,13.925c21.1,6.415,18.99-13.737,9.028-23.274C269.932,128.623,263.677,125.9,257.55,124.737Z" fill="#dcedf9"/>
        <path id="Path_823" data-name="Path 823" d="M57.213,237.72c4.85-11.343-3.575-20.5-14.278-15.609a38.488,38.488,0,0,0-17.856,16.31c-10.808,19.225,9.325,21.5,20.785,13.828C50.751,248.975,54.761,243.453,57.213,237.72Z" fill="#dcedf9"/>
      </g>
      <g id="Group_1089" data-name="Group 1089">
        <ellipse id="Ellipse_445" data-name="Ellipse 445" cx="207.76" cy="13.677" rx="207.76" ry="13.677" transform="translate(42.607 417.313)" fill="#dcedf9"/>
      </g>
      <g id="Group_1110" data-name="Group 1110">
        <g id="Group_1098" data-name="Group 1098">
          <g id="Group_1093" data-name="Group 1093">
            <g id="Group_1090" data-name="Group 1090">
              <path id="Path_824" data-name="Path 824" d="M452.528,318.783c-12.721,12.716,1.468,13.794-7.865,23.4-8.508,8.753-21.062.233-20.226,21.612.183,4.676-3.221,8.146-7.995,9.924a18.2,18.2,0,0,1-20.277-5.155q-.578-.65-1.094-1.358a18.532,18.532,0,0,1-2.241-18.134c2.16-5.344,5.985-10.6,12.764-12.7,15.9-4.916,7.076-25.98,20.519-26.9,16.212-1.116,16.793-7.062,28.3-15.077C466.609,285.892,469.768,301.551,452.528,318.783Z" fill="#0077eb"/>
            </g>
            <g id="Group_1092" data-name="Group 1092">
              <g id="Group_1091" data-name="Group 1091">
                <path id="Path_825" data-name="Path 825" d="M446.825,311.835c-.355.366-29.85,30.776-50.661,56.725q-.578-.65-1.094-1.358c20.867-25.964,50.178-56.188,50.535-56.554a.851.851,0,1,1,1.22,1.187Z" fill="#0059d3"/>
              </g>
            </g>
          </g>
          <g id="Group_1097" data-name="Group 1097">
            <g id="Group_1094" data-name="Group 1094">
              <path id="Path_826" data-name="Path 826" d="M455.794,361.232c-19.929,11.732-2.615,17.643-17.324,26.591-13.409,8.156-26.292-6.492-32.136,20.389-1.279,5.88-6.633,9.1-13.148,9.778A23.4,23.4,0,0,1,369.6,405.043c-.34-.663-.649-1.346-.924-2.043a23.827,23.827,0,0,1,3.05-23.294c4.409-5.956,10.864-11.268,19.977-11.693,21.38-1,17.175-30.061,34.206-26.882,20.539,3.831,23.177-3.382,40.081-9.655C483.912,324.826,482.8,345.334,455.794,361.232Z" fill="#008eff"/>
            </g>
            <g id="Group_1096" data-name="Group 1096">
              <g id="Group_1095" data-name="Group 1095">
                <path id="Path_827" data-name="Path 827" d="M450.932,350.748c-.56.342-47.068,28.7-81.328,54.3-.34-.663-.649-1.346-.924-2.043,34.336-25.6,80.553-53.782,81.116-54.123a1.094,1.094,0,0,1,1.136,1.87Z" fill="#0077eb"/>
              </g>
            </g>
          </g>
        </g>
        <g id="Group_1107" data-name="Group 1107">
          <g id="Group_1102" data-name="Group 1102">
            <g id="Group_1099" data-name="Group 1099">
              <path id="Path_828" data-name="Path 828" d="M67.125,173.516c6.838,16.635-6.67,12.163-1.759,24.621,4.478,11.356,19.345,8.332,10.336,27.737-1.971,4.245-.167,8.759,3.554,12.238a18.2,18.2,0,0,0,20.7,3.057c.522-.251,1.035-.53,1.533-.832a18.53,18.53,0,0,0,9.056-15.87c.066-5.763-1.438-12.089-6.886-16.634-12.782-10.665,3.482-26.7-8.567-32.734-14.53-7.277-12.775-12.988-20.3-24.818C66.807,137.74,57.857,150.971,67.125,173.516Z" fill="#0077eb"/>
            </g>
            <g id="Group_1101" data-name="Group 1101">
              <g id="Group_1100" data-name="Group 1100">
                <path id="Path_829" data-name="Path 829" d="M75.065,169.3c.187.475,15.685,39.9,24.888,71.867.522-.251,1.035-.53,1.533-.832-9.25-32-24.65-71.184-24.838-71.66a.851.851,0,1,0-1.583.625Z" fill="#0059d3"/>
              </g>
            </g>
          </g>
          <g id="Group_1106" data-name="Group 1106">
            <g id="Group_1103" data-name="Group 1103">
              <path id="Path_830" data-name="Path 830" d="M47.653,216.97C62.074,235.048,43.79,234.382,54.332,248c9.609,12.409,26.876,3.332,22.729,30.526-.907,5.949,2.942,10.872,8.786,13.831a23.4,23.4,0,0,0,26.65-3.666c.554-.5,1.087-1.026,1.593-1.578a23.826,23.826,0,0,0,5.475-22.846c-1.99-7.138-6.121-14.406-14.48-18.059-19.612-8.571-5.3-34.213-22.342-37.33-20.552-3.761-20.439-11.441-33.985-23.34C34.4,172.919,28.108,192.47,47.653,216.97Z" fill="#008eff"/>
            </g>
            <g id="Group_1105" data-name="Group 1105">
              <g id="Group_1104" data-name="Group 1104">
                <path id="Path_831" data-name="Path 831" d="M55.94,208.914c.4.519,33.706,43.621,56.557,79.772.554-.5,1.087-1.026,1.593-1.578-22.922-36.178-56.017-79.015-56.421-79.535a1.094,1.094,0,1,0-1.729,1.341Z" fill="#0077eb"/>
              </g>
            </g>
          </g>
        </g>
        <g id="Group_1108" data-name="Group 1108">
          <path id="Path_832" data-name="Path 832" d="M144.921,201.232c5.81-3.978,20.36,5.835,27.968,17.75l-6.75-18.908a41.393,41.393,0,0,0-13.4-7.46c-10.393-3.684-20.811-9.454-14.99-13.44,5.454-3.735,18.612,4.686,26.5,15.59l-8.668-24.282a27.315,27.315,0,0,0-7.574-3.99c-6.55-2.322-13.115-5.958-9.447-8.47,3.183-2.18,10.53,2.21,15.546,8.328l-2.809-7.87a39.671,39.671,0,0,0-5.992-8.533c-6.673-6.9-11.719-14.671-6.572-15.8s13.581,12.4,14.908,24.626l1.446,4.05c-1.122-8.891,2.074-19.655,6.531-20.036,4.429-.379,1.651,6.593-1.948,12.538a24.817,24.817,0,0,0-3.7,9.974l6.828,19.128c-1.738-14.084,3.325-31.069,10.378-31.672,7.028-.6,2.62,10.462-3.091,19.894-4.316,7.128-5.532,12.8-5.864,15.764l8.188,22.938c-1.452-13.917,3.527-30.809,10.47-30.864,5.353-.042,3.714,7.516-2.68,18.186a45.355,45.355,0,0,0-6.179,17.191l3.857,10.8a3.556,3.556,0,0,1-1.986.709l-1.535-4.3c-2.168-2.1-6.683-5.66-14.442-8.41C149.518,210.988,139.1,205.218,144.921,201.232Z" fill="#008eff"/>
        </g>
        <g id="Group_1109" data-name="Group 1109">
          <path id="Path_833" data-name="Path 833" d="M93.8,361.479c-5.96,3.749-2.74,21,5.169,32.719l-14.667-13.71a41.422,41.422,0,0,1-1.518-15.264c.751-11-.4-22.854-6.373-19.1-5.6,3.52-3.1,18.941,3.772,30.511L61.351,359.031a27.306,27.306,0,0,1-.65-8.536c.474-6.933-.254-14.4-4.016-12.036-3.266,2.054-2.158,10.541,1.462,17.576l-6.1-5.706a39.661,39.661,0,0,1-5.448-8.891c-3.683-8.868-8.8-16.585-11.882-12.31s5.982,17.393,16.67,23.469l3.141,2.936c-7.712-4.564-18.859-5.91-20.981-1.972-2.108,3.914,5.393,4.136,12.279,3.2a24.828,24.828,0,0,1,10.622.57L71.281,371.2c-12.233-7.193-29.831-9.3-33.188-3.068-3.345,6.21,8.558,6.563,19.483,5.072,8.257-1.127,13.942.012,16.8.886l17.792,16.631c-12.194-6.865-29.672-9.011-32.483-2.662-2.167,4.895,5.42,6.4,17.752,4.771a45.355,45.355,0,0,1,18.231,1.164l8.381,7.834a3.557,3.557,0,0,0,1.44-1.54l-3.335-3.117c-1.062-2.823-2.537-8.383-1.976-16.6C100.927,369.575,99.774,357.723,93.8,361.479Z" fill="#008eff"/>
        </g>
      </g>
      <g id="Group_1114" data-name="Group 1114">
        <rect id="Rectangle_519" data-name="Rectangle 519" width="318.094" height="219.728" transform="translate(76.492 206.893)" fill="#ffaa01"/>
        <path id="Path_834" data-name="Path 834" d="M394.576,206.9v14.086L235.54,361.947,76.493,220.987V206.9L235.529,348.344Z" fill="#f88800"/>
        <g id="Group_1111" data-name="Group 1111">
          <path id="Path_835" data-name="Path 835" d="M204.894,320.606,85.705,426.621H76.492v-5.6L198.043,312.908Z" fill="#f88800"/>
        </g>
        <g id="Group_1113" data-name="Group 1113">
          <g id="Group_1112" data-name="Group 1112">
            <path id="Path_836" data-name="Path 836" d="M394.586,421.763v4.858H384.539L265.349,320.606l6.852-7.7Z" fill="#f88800"/>
          </g>
        </g>
        <path id="Path_837" data-name="Path 837" d="M76.483,206.891,235.53,348.344,394.577,206.891Z" fill="#fdcc50"/>
      </g>
      <g id="Group_1185" data-name="Group 1185">
        <g id="Group_1129" data-name="Group 1129">
          <g id="Group_1122" data-name="Group 1122">
            <path id="Path_838" data-name="Path 838" d="M306.827,187.1l4.059,8.685-8.581.133-3.31-7.9Z" fill="#f9af8b"/>
            <g id="Group_1121" data-name="Group 1121">
              <g id="Group_1120" data-name="Group 1120">
                <g id="Group_1115" data-name="Group 1115">
                  <path id="Path_839" data-name="Path 839" d="M308.184,195.245s1.762-2.367,3.162-2.266,12.2,8.686,15.9,9.394,3.356,4.477,1.808,4.477c-4.458,0-29.06.041-29.06.041s-.744-8.8.2-11.425S305.292,195.866,308.184,195.245Z" fill="#008eff"/>
                </g>
                <g id="Group_1119" data-name="Group 1119">
                  <g id="Group_1116" data-name="Group 1116">
                    <path id="Path_840" data-name="Path 840" d="M314.153,201.235a.518.518,0,0,1-.6-.752,7.974,7.974,0,0,1,2.7-2.811,3.573,3.573,0,0,1,3.667.171.518.518,0,0,1-.618.832,2.547,2.547,0,0,0-2.582-.077,7.058,7.058,0,0,0-2.264,2.4A.528.528,0,0,1,314.153,201.235Z" fill="#fff"/>
                  </g>
                  <g id="Group_1117" data-name="Group 1117">
                    <path id="Path_841" data-name="Path 841" d="M312.608,199.776a.518.518,0,0,1-.6-.753,7.974,7.974,0,0,1,2.7-2.811,3.57,3.57,0,0,1,3.667.171.518.518,0,1,1-.618.831,2.548,2.548,0,0,0-2.582-.077,7.014,7.014,0,0,0-2.263,2.4A.526.526,0,0,1,312.608,199.776Z" fill="#fff"/>
                  </g>
                  <g id="Group_1118" data-name="Group 1118">
                    <path id="Path_842" data-name="Path 842" d="M316.246,202.419a.518.518,0,0,1-.6-.753,7.982,7.982,0,0,1,2.7-2.812,3.57,3.57,0,0,1,3.667.171.518.518,0,1,1-.618.832,2.548,2.548,0,0,0-2.582-.077,7.014,7.014,0,0,0-2.263,2.4A.523.523,0,0,1,316.246,202.419Z" fill="#fff"/>
                  </g>
                </g>
              </g>
            </g>
          </g>
          <g id="Group_1128" data-name="Group 1128">
            <g id="Group_1126" data-name="Group 1126">
              <g id="Group_1125" data-name="Group 1125">
                <g id="Group_1124" data-name="Group 1124">
                  <g id="Group_1123" data-name="Group 1123">
                    <path id="Path_843" data-name="Path 843" d="M309.272,189.934l-3.8,1.24-2.113.126-3.632.213c-4.8-3.795-17.744-15.217-20.266-21.951,0,0-16.656,38.733-39.685,38.733-1.494,0,2.454-19.274,6.208-23.282,0,0,21.226-39.559,34.987-35.36C287.132,151.533,293.365,160.5,309.272,189.934Z" fill="#2e3052"/>
                  </g>
                </g>
              </g>
            </g>
            <g id="Group_1127" data-name="Group 1127">
              <path id="Path_844" data-name="Path 844" d="M305.47,191.174l-2.113.126c-14.126-10.7-20.67-19.754-23.683-25.556a.44.44,0,0,0-.387-.264.232.232,0,0,0-.215.172c-6.764,15.923-14.881,25.479-20.5,30.695-6.124,5.682-10.6,7.555-10.789,7.634l-.259-.633-.259-.63c.044-.019,4.488-1.887,10.445-7.433,5.5-5.12,13.458-14.51,20.108-30.169a1.583,1.583,0,0,1,1.418-1,1.8,1.8,0,0,1,1.649,1C283.923,170.965,290.652,180.21,305.47,191.174Z" fill="#001030"/>
            </g>
            <path id="Path_845" data-name="Path 845" d="M295.917,188.922a12.257,12.257,0,0,0,2.636,3.5s8.134-.376,12.09-2.363l-1.775-4.135A60.959,60.959,0,0,1,295.917,188.922Z" fill="#524e84"/>
          </g>
        </g>
        <g id="Group_1144" data-name="Group 1144">
          <g id="Group_1131" data-name="Group 1131">
            <g id="Group_1130" data-name="Group 1130">
              <path id="Path_846" data-name="Path 846" d="M306.563,133.4c-11.567,4.711-20.812,7.08-28.68,8.055a.033.033,0,0,0-.016,0c-.1,0-1.953.153-2.665.125a20.705,20.705,0,0,1-7.9-1.911c-2.07-.967-5.028-3.466-8.122-6.445-3.832-3.7-7.873-8.132-10.667-11.3-2.174-2.462-3.6-4.16-3.6-4.16,1.929-2.87,6.2-5.481,9.919-6.877,0,0,7.758,12.919,19.512,19.263q.96.522,1.955.97c2.678-.434,9.924-.764,13.065-.988a126.368,126.368,0,0,0,15.467-2.082Z" fill="#08aefe"/>
            </g>
          </g>
          <g id="Group_1143" data-name="Group 1143">
            <g id="Group_1142" data-name="Group 1142">
              <g id="Group_1132" data-name="Group 1132">
                <path id="Path_847" data-name="Path 847" d="M304.546,127.615s1.611-4.068,3.8-5.23,8.428-5.249,9.759-4.026,1.056,7.1-4.535,12.008a11.173,11.173,0,0,1-7.149,2.995Z" fill="#f9af8b"/>
              </g>
              <g id="Group_1139" data-name="Group 1139">
                <g id="Group_1133" data-name="Group 1133">
                  <path id="Path_848" data-name="Path 848" d="M318.506,122.1l-9.2,8.6a1.339,1.339,0,0,1-1.4.212l-5.642-2.727a.637.637,0,0,1-.339-.347l-.013-.045-.277-.943,1.5-.567,14.483-5.5.785-.3.294,1,.023.069a.031.031,0,0,1,0,.025A.57.57,0,0,1,318.506,122.1Z" fill="#001030"/>
                </g>
                <g id="Group_1134" data-name="Group 1134">
                  <path id="Path_849" data-name="Path 849" d="M317.612,120.777l-14.483,5.5,8.191-7.654a1.346,1.346,0,0,1,1.395-.213Z" fill="#1f2232"/>
                </g>
                <g id="Group_1136" data-name="Group 1136">
                  <g id="Group_1135" data-name="Group 1135">
                    <path id="Path_850" data-name="Path 850" d="M307.623,129.952l-5.644-2.729a.546.546,0,0,1-.146-.956l9.206-8.6a1.343,1.343,0,0,1,1.395-.211l5.644,2.729a.546.546,0,0,1,.145.956l-9.2,8.6A1.345,1.345,0,0,1,307.623,129.952Z" fill="#2e3052"/>
                  </g>
                </g>
                <g id="Group_1137" data-name="Group 1137">
                  <path id="Path_851" data-name="Path 851" d="M308.307,128.411l-4.373-2.114a.546.546,0,0,1-.146-.956l7.159-6.688a1.343,1.343,0,0,1,1.395-.211l4.373,2.115a.546.546,0,0,1,.146.956L309.7,128.2A1.346,1.346,0,0,1,308.307,128.411Z" fill="#2e3052"/>
                </g>
                <g id="Group_1138" data-name="Group 1138">
                  <path id="Path_852" data-name="Path 852" d="M318.721,121.569l0,0a.028.028,0,0,0,0-.025Z" fill="#1f2232"/>
                </g>
              </g>
              <g id="Group_1140" data-name="Group 1140">
                <path id="Path_853" data-name="Path 853" d="M308.191,120.327s1.311.205,1.445,1.332-1.086.679-1.871.431a1.919,1.919,0,0,0-1.6.128C305.824,122.622,305.883,119.993,308.191,120.327Z" fill="#f9af8b"/>
              </g>
              <g id="Group_1141" data-name="Group 1141">
                <path id="Path_854" data-name="Path 854" d="M314.053,126.449a51.688,51.688,0,0,1,3.635-5.229c1.051-1.231,1.587.554.868,1.8S316.418,126.8,314.053,126.449Z" fill="#f9af8b"/>
              </g>
            </g>
          </g>
        </g>
        <g id="Group_1155" data-name="Group 1155">
          <g id="Group_1148" data-name="Group 1148">
            <g id="Group_1147" data-name="Group 1147">
              <g id="Group_1146" data-name="Group 1146">
                <g id="Group_1145" data-name="Group 1145">
                  <path id="Path_855" data-name="Path 855" d="M218.19,187.415l-4.56-29.4-.27-1.742.031-1.313,1.016-41.645,11.554-3.9.619-.211,2.6-.879,2.057-.694,12.2,1.679,1.986.273.7.1,8.728,1.2c.081,27.608-2.569,33.573,2.532,56.031C259.944,175.38,250.522,205.38,218.19,187.415Z" fill="#08aefe"/>
                </g>
              </g>
            </g>
          </g>
          <g id="Group_1150" data-name="Group 1150">
            <g id="Group_1149" data-name="Group 1149">
              <path id="Path_856" data-name="Path 856" d="M224.685,179.894h0c9.135-2.551,15.8-8.856,19.782-13.7a51.973,51.973,0,0,0,6.517-9.989.456.456,0,0,0-.829-.382,51.026,51.026,0,0,1-6.409,9.81c-3.9,4.732-10.409,10.893-19.307,13.378a.457.457,0,0,0,.244.88Z" fill="#0077eb"/>
            </g>
          </g>
          <g id="Group_1152" data-name="Group 1152">
            <g id="Group_1151" data-name="Group 1151">
              <path id="Path_857" data-name="Path 857" d="M235.07,180.385c7.937-2.179,14.61-8.874,14.913-9.181a.456.456,0,1,0-.65-.641c-.078.079-7.932,7.954-16.423,9.367a.456.456,0,0,0,.15.9A20.02,20.02,0,0,0,235.07,180.385Z" fill="#0077eb"/>
            </g>
          </g>
          <g id="Group_1154" data-name="Group 1154">
            <g id="Group_1153" data-name="Group 1153">
              <path id="Path_858" data-name="Path 858" d="M229.453,121.662c7.932-2.2,14.588-8.911,14.89-9.219a.456.456,0,1,0-.651-.64c-.078.079-7.912,7.974-16.4,9.408a.456.456,0,0,0,.152.9A20.079,20.079,0,0,0,229.453,121.662Z" fill="#0077eb"/>
            </g>
          </g>
        </g>
        <g id="Group_1170" data-name="Group 1170">
          <g id="Group_1163" data-name="Group 1163">
            <path id="Path_859" data-name="Path 859" d="M299.055,263.5l3.194,7.11-6.55,2.817-3.81-7.344Z" fill="#f9af8b"/>
            <g id="Group_1162" data-name="Group 1162">
              <g id="Group_1161" data-name="Group 1161">
                <g id="Group_1156" data-name="Group 1156">
                  <path id="Path_860" data-name="Path 860" d="M300.819,270.458s.67-2.874,1.994-3.34,14.651,3.092,18.325,2.264,4.1,1.956,4.038,3.5-27.262,11.3-27.262,11.3-4.153-7.551-4.338-10.334S298.415,272.182,300.819,270.458Z" fill="#008eff"/>
                </g>
                <g id="Group_1160" data-name="Group 1160">
                  <g id="Group_1157" data-name="Group 1157">
                    <path id="Path_861" data-name="Path 861" d="M308.682,273.566a.518.518,0,0,1-.85-.45,7.977,7.977,0,0,1,1.35-3.655,3.574,3.574,0,0,1,3.43-1.308.518.518,0,1,1-.235,1.009,2.549,2.549,0,0,0-2.4.961,7.041,7.041,0,0,0-1.117,3.1A.512.512,0,0,1,308.682,273.566Z" fill="#fff"/>
                  </g>
                  <g id="Group_1158" data-name="Group 1158">
                    <path id="Path_862" data-name="Path 862" d="M306.684,272.845a.519.519,0,0,1-.85-.452,7.977,7.977,0,0,1,1.35-3.655,3.569,3.569,0,0,1,3.43-1.308.518.518,0,0,1-.235,1.009,2.549,2.549,0,0,0-2.4.961,7.02,7.02,0,0,0-1.117,3.1A.512.512,0,0,1,306.684,272.845Z" fill="#fff"/>
                  </g>
                  <g id="Group_1159" data-name="Group 1159">
                    <path id="Path_863" data-name="Path 863" d="M311.075,273.816a.518.518,0,0,1-.85-.45,7.977,7.977,0,0,1,1.35-3.655,3.572,3.572,0,0,1,3.43-1.308.518.518,0,0,1-.235,1.009,2.549,2.549,0,0,0-2.4.961,7.02,7.02,0,0,0-1.117,3.1A.514.514,0,0,1,311.075,273.816Z" fill="#fff"/>
                  </g>
                </g>
              </g>
            </g>
          </g>
          <g id="Group_1169" data-name="Group 1169">
            <g id="Group_1168" data-name="Group 1168">
              <g id="Group_1166" data-name="Group 1166">
                <g id="Group_1165" data-name="Group 1165">
                  <g id="Group_1164" data-name="Group 1164">
                    <path id="Path_864" data-name="Path 864" d="M300.7,264.877a18.7,18.7,0,0,1-5.06,2.964c-.414.188-.84.368-1.26.543-.741.3-1.478.583-2.17.821,0,0-15.538-28.639-21.5-49.407,0,0-52.594-6.495-54.416-24.915a9.954,9.954,0,0,1-.008-1.892,13.531,13.531,0,0,1,1.9-5.573c1.2-2.067,19.2-.052,28.926,2.677,0,0,26.366,10.271,36.113,20.852C288.162,216.3,300.7,264.877,300.7,264.877Z" fill="#2e3052"/>
                  </g>
                </g>
              </g>
              <g id="Group_1167" data-name="Group 1167">
                <path id="Path_865" data-name="Path 865" d="M295.644,267.841c-.414.188-.84.368-1.26.543-7.858-13.006-18.769-43.39-21.2-50.683a1.445,1.445,0,0,0-1.1-.96c-25.553-4.8-40.276-11.506-48.128-16.283a51.031,51.031,0,0,1-7.653-5.576,9.954,9.954,0,0,1-.008-1.892,46.728,46.728,0,0,0,8.526,6.4c7.752,4.687,22.287,11.271,47.518,16.016a2.809,2.809,0,0,1,2.146,1.868C276.91,224.568,287.865,255.089,295.644,267.841Z" fill="#001030"/>
              </g>
            </g>
            <path id="Path_866" data-name="Path 866" d="M289.408,266.2l2.481,3.968s6.179-1.068,10.36-5.294l-1.545-3.545A111.659,111.659,0,0,1,289.408,266.2Z" fill="#524e84"/>
          </g>
        </g>
        <g id="Group_1172" data-name="Group 1172">
          <path id="Path_867" data-name="Path 867" d="M205.7,198.288s3.579,4.853,3.284,7.365-3.536,7.243-6.127,7.472,2.977-6.081,1.663-5.877c-1.59.246-12.325,9.054-14.59,9.054s2.665-4.094,4.586-5.128c0,0-5.079,2.271-6.261,3.453s-2.04-1.353,3.869-4.948c0,0-5.421,3.077-5.79,3.126-1.206.161,2.234-3.872,5.2-5.331,0,0-4.345,2.116-4.787,2.125-.611.013.7-1.409,3.925-3.2,2.9-1.608,7.655-8.991,7.655-8.991Z" fill="#f9af8b"/>
          <g id="Group_1171" data-name="Group 1171">
            <path id="Path_868" data-name="Path 868" d="M214.406,113.318s-12.047,23.139-14.79,47.341l-1.292,36.751s1.238,2.619,7.377.878l5.938-36.746,4.55-16.813S218.256,124.038,214.406,113.318Z" fill="#08aefe"/>
          </g>
        </g>
        <g id="Group_1184" data-name="Group 1184">
          <path id="Path_869" data-name="Path 869" d="M251.407,88.3a13.311,13.311,0,1,1-10.791-15.425A13.312,13.312,0,0,1,251.407,88.3Z" fill="#2e3052"/>
          <path id="Path_870" data-name="Path 870" d="M251.608,85.911s3.893-.368,4.041-4.058c.125-3.14-3.828-1.789-3.088-4.129s1.829-4.395-1.165-5.542c-2.619-1-2.993.847-6.077-2.479-3.644-3.929-8.179,2.875-11.973,2.433-5.6-.652-6.848,2.356-7.836,4.765a4.751,4.751,0,0,0,.834,4.543Z" fill="#2e3052"/>
          <g id="Group_1176" data-name="Group 1176">
            <path id="Path_871" data-name="Path 871" d="M248.556,91.578s2.566-2.4,3.705.161-2.239,8.938-5.727,6.619Z" fill="#fc8664"/>
            <g id="Group_1173" data-name="Group 1173">
              <path id="Path_872" data-name="Path 872" d="M247.729,96.414a.325.325,0,0,0,.349-.179,5.013,5.013,0,0,1,3.29-2.452.324.324,0,0,0-.12-.637,5.584,5.584,0,0,0-3.754,2.809.325.325,0,0,0,.152.433A.334.334,0,0,0,247.729,96.414Z" fill="#fd664d"/>
            </g>
            <g id="Group_1175" data-name="Group 1175">
              <g id="Group_1174" data-name="Group 1174">
                <path id="Path_873" data-name="Path 873" d="M250.1,95.749a.32.32,0,0,0,.182-.02.324.324,0,0,0,.174-.424,2.963,2.963,0,0,0-1.028-1.179.325.325,0,1,0-.364.538,2.337,2.337,0,0,1,.793.892A.33.33,0,0,0,250.1,95.749Z" fill="#fd664d"/>
              </g>
            </g>
          </g>
          <path id="Path_874" data-name="Path 874" d="M231.259,101.572,230.07,108.3s2.241,3.452,4.911,4.165,4.884-2.212,4.884-2.212l1.143-6.466Z" fill="#f9af8b"/>
          <path id="Path_875" data-name="Path 875" d="M231.259,101.572l-.527,2.983c1.463,2.341,4.6,3.417,9.512,3.556l.765-4.328Z" fill="#fc8664"/>
          <path id="Path_876" data-name="Path 876" d="M227.223,83.05a66.4,66.4,0,0,0-.629,8.648c.009.674.042,1.312.1,1.889.539,5.205,2.576,14.327,13.111,12.54,4.652-.788,7.542-5.305,9.323-10.1a48.787,48.787,0,0,0,2.288-9.083,7.129,7.129,0,0,0-2.506-6.6c-5.263-4.35-11.653-4.2-15.992-3.361A7.1,7.1,0,0,0,227.223,83.05Z" fill="#f9af8b"/>
          <path id="Path_877" data-name="Path 877" d="M243.42,91.575c-.127.718.14,1.365.6,1.446s.929-.436,1.056-1.153-.14-1.365-.6-1.446S243.547,90.857,243.42,91.575Z" fill="#2e3052"/>
          <path id="Path_878" data-name="Path 878" d="M233.744,89.865c-.127.718.14,1.365.6,1.446s.929-.436,1.056-1.154-.14-1.365-.6-1.446S233.871,89.147,233.744,89.865Z" fill="#2e3052"/>
          <path id="Path_879" data-name="Path 879" d="M247.639,88.205s-3.2-1.967-6.05-1.291l0,1.269a11.349,11.349,0,0,1,5.6,1.41C247.473,89.057,247.76,88.827,247.639,88.205Z" fill="#2e3052"/>
          <path id="Path_880" data-name="Path 880" d="M231.9,85.423s3.68-.751,6.126.861l-.438,1.19a11.34,11.34,0,0,0-5.748-.6C231.764,86.28,231.574,85.966,231.9,85.423Z" fill="#2e3052"/>
          <g id="Group_1178" data-name="Group 1178">
            <g id="Group_1177" data-name="Group 1177">
              <path id="Path_881" data-name="Path 881" d="M237.938,95.88a3.437,3.437,0,0,1-1.113-.448.324.324,0,0,1,.346-.549c.268.168.928.474,1.26.348a.354.354,0,0,0,.21-.27,49.124,49.124,0,0,0,.672-4.926.324.324,0,1,1,.646.06,48.088,48.088,0,0,1-.694,5.044.992.992,0,0,1-.6.7A1.378,1.378,0,0,1,237.938,95.88Z" fill="#fc8664"/>
            </g>
          </g>
          <path id="Path_882" data-name="Path 882" d="M241.611,98.545c-.493,1.267-1.788,3.531-4.711,3.014s-3.361-2.872-3.375-4.443Z" fill="#fff"/>
          <g id="Group_1179" data-name="Group 1179">
            <path id="Path_883" data-name="Path 883" d="M236.645,103.233a3.384,3.384,0,0,1-1.48-.712.325.325,0,0,1,.428-.488,2.763,2.763,0,0,0,1.165.561,2.645,2.645,0,0,0,1.223-.137.324.324,0,1,1,.239.6A3.238,3.238,0,0,1,236.645,103.233Z" fill="#fc8664"/>
          </g>
          <path id="Path_884" data-name="Path 884" d="M248.508,93.767a13.6,13.6,0,0,0,.994-3.835c-.038-1.6-1.155-2.73-.467-4.142s-.6-3.294-1.712-3.764-3.915-.375-6.354-2.109c-2.328-1.657-6.9-1.574-7.906-.071-1.22,1.821-.068,2.217-2.822,3.932-1.1.684-.364,3.093-.458,4.559a9.764,9.764,0,0,1-.243,1.705l-.073.359-2.845-.5c.081-2.285.336-4.775.6-6.849a7.107,7.107,0,0,1,5.7-6.071c4.34-.843,10.728-.991,15.993,3.361a7.129,7.129,0,0,1,2.5,6.6,51.707,51.707,0,0,1-1.6,7.057Z" fill="#2e3052"/>
          <g id="Group_1183" data-name="Group 1183">
            <path id="Path_885" data-name="Path 885" d="M227.664,91.35a12.155,12.155,0,0,0,.219-2.252A2.716,2.716,0,0,0,226.8,86.5a1.777,1.777,0,0,0-2.437.175c-1.949,2.016-1.488,9.444,2.584,8.462Z" fill="#f9af8b"/>
            <g id="Group_1181" data-name="Group 1181">
              <g id="Group_1180" data-name="Group 1180">
                <path id="Path_886" data-name="Path 886" d="M226.583,92.938a.326.326,0,0,1-.205-.334,5.016,5.016,0,0,0-1.535-3.806.325.325,0,0,1,.435-.482,5.587,5.587,0,0,1,1.746,4.351.325.325,0,0,1-.355.291A.348.348,0,0,1,226.583,92.938Z" fill="#fc8664"/>
              </g>
            </g>
            <g id="Group_1182" data-name="Group 1182">
              <path id="Path_887" data-name="Path 887" d="M224.906,91.137a.325.325,0,0,1-.073-.565,2.961,2.961,0,0,1,1.491-.472.324.324,0,1,1,.032.648,2.352,2.352,0,0,0-1.142.349A.321.321,0,0,1,224.906,91.137Z" fill="#fc8664"/>
            </g>
          </g>
        </g>
      </g>
      <g id="Group_1237" data-name="Group 1237">
        <g id="Group_1187" data-name="Group 1187">
          <path id="Path_888" data-name="Path 888" d="M377.917,245.057a115.269,115.269,0,0,1-9.54,14.895,39.1,39.1,0,0,1-4.676,5.116c-2.536,2.244-5.01,3.417-7.024,2.422-7.472-3.69-24.129-33.059-24.129-33.059l4.1-4.767s7.414,8.387,12.835,13.407c5,4.629,8.845,8.089,8.845,8.089.692-1.032,1.43-2.163,2.2-3.36.815-1.27,1.661-2.615,2.522-4,6.243-10.042,13.761-21.026,13.761-21.026Z" fill="#f9af8b"/>
          <path id="Path_889" data-name="Path 889" d="M337.738,232.548s1.691-2.776,1.037-5.262-1.289-8.106-4.005-7.954c-.992.056.457,2.4-.208,4.578a36.645,36.645,0,0,1-4.855-2.839c-1.713-1.265-5.259-3.32-6.908-4.26a.511.511,0,0,0-.712.68c.423.716,1.457,1.787,3.849,3.283,0,0-5.941-3.327-6.936-2.6s6.51,4.756,6.51,4.756-6.061-2.449-6.556-1.553c-.3.546,5.641,4.038,5.641,4.038s-5.9-1.823-4.807-.44c.319.4,11.534,5.478,13.871,11.371C333.657,236.35,336.925,234.56,337.738,232.548Z" fill="#f9af8b"/>
          <path id="Path_890" data-name="Path 890" d="M368.378,259.952a39.1,39.1,0,0,1-4.676,5.116L360.527,247.8c.815-1.27,1.661-2.615,2.522-4Z" fill="#fc8664"/>
          <g id="Group_1186" data-name="Group 1186">
            <path id="Path_891" data-name="Path 891" d="M377.036,222l-15.79,22.774,5.025,20.293,12.39-19.766S380.981,232.077,377.036,222Z" fill="#08aefe"/>
          </g>
        </g>
        <g id="Group_1198" data-name="Group 1198">
          <path id="Path_892" data-name="Path 892" d="M385.14,416.873v7.189l6.712-.105.438-7.619Z" fill="#f9af8b"/>
          <g id="Group_1188" data-name="Group 1188">
            <path id="Path_893" data-name="Path 893" d="M402.18,311.824c-.046.853-.278,4.957-.63,10.678-.945,15.717-2.715,43.646-3.753,49.92-1.066,6.437-.584,27.548-.241,38.6a6.612,6.612,0,0,1-1.9,4.839,7.085,7.085,0,0,1-1.557,1.19,6.944,6.944,0,0,1-3.373.872H385.61a6.758,6.758,0,0,1-6.83-6.9c.287-9.343.639-26.385-.028-39.551-.639-12.53.287-34.7,1-48.522h.009c.287-5.52.538-9.7.639-11.4Z" fill="#2e3052"/>
          </g>
          <path id="Path_894" data-name="Path 894" d="M380.4,311.543l21.779.281c-.046.853-.278,4.957-.63,10.678a93.8,93.8,0,0,1-21.788.445C380.049,317.426,380.3,313.25,380.4,311.543Z" fill="#001030"/>
          <g id="Group_1189" data-name="Group 1189">
            <path id="Path_895" data-name="Path 895" d="M395.572,391.312c.19,7.067.388,14.373.259,20.263-.037,1.653-.1,3.067-.173,4.28a6.622,6.622,0,0,1-1.563,1.191c.124-1.407.222-3.206.273-5.5.127-5.856-.071-13.144-.261-20.194-.234-8.615-.454-16.754.025-20.218,1.045-7.581,3.382-48.679,3.995-59.65l1.465.064c-.613,10.964-2.957,52.146-4.01,59.777C395.121,374.673,395.34,382.757,395.572,391.312Z" fill="#001030"/>
          </g>
          <g id="Group_1197" data-name="Group 1197">
            <g id="Group_1196" data-name="Group 1196">
              <g id="Group_1195" data-name="Group 1195">
                <g id="Group_1190" data-name="Group 1190">
                  <path id="Path_896" data-name="Path 896" d="M386.86,423.794s-1.39-1.915-2.529-1.859-10.066,6.7-13.085,7.2-2.484,2.681-1.957,3.8,23.987.1,23.987.1.8-6.818.078-8.924S389.2,424.339,386.86,423.794Z" fill="#008eff"/>
                </g>
                <g id="Group_1194" data-name="Group 1194">
                  <g id="Group_1191" data-name="Group 1191">
                    <path id="Path_897" data-name="Path 897" d="M381.9,428.458a.429.429,0,0,0,.33-.03.409.409,0,0,0,.17-.559,6.392,6.392,0,0,0-2.142-2.285,2.952,2.952,0,0,0-2.982.072.407.407,0,0,0-.1.575.426.426,0,0,0,.587.1,2.106,2.106,0,0,1,2.1-.016,5.647,5.647,0,0,1,1.8,1.95A.409.409,0,0,0,381.9,428.458Z" fill="#fff"/>
                  </g>
                  <g id="Group_1192" data-name="Group 1192">
                    <path id="Path_898" data-name="Path 898" d="M383.185,427.324a.43.43,0,0,0,.33-.03.408.408,0,0,0,.17-.559,6.4,6.4,0,0,0-2.142-2.286,2.954,2.954,0,0,0-2.983.072.407.407,0,0,0-.1.575.426.426,0,0,0,.587.1,2.106,2.106,0,0,1,2.1-.016,5.613,5.613,0,0,1,1.8,1.95A.425.425,0,0,0,383.185,427.324Z" fill="#fff"/>
                  </g>
                  <g id="Group_1193" data-name="Group 1193">
                    <path id="Path_899" data-name="Path 899" d="M380.181,429.365a.429.429,0,0,0,.33-.029.408.408,0,0,0,.17-.559,6.4,6.4,0,0,0-2.142-2.286,2.951,2.951,0,0,0-2.983.072.407.407,0,0,0-.1.575.426.426,0,0,0,.587.1,2.11,2.11,0,0,1,2.1-.016,5.6,5.6,0,0,1,1.8,1.95A.434.434,0,0,0,380.181,429.365Z" fill="#fff"/>
                  </g>
                </g>
              </g>
            </g>
          </g>
        </g>
        <g id="Group_1207" data-name="Group 1207">
          <path id="Path_900" data-name="Path 900" d="M417.829,416.873l.723,7.178,5.989-.094.438-7.619Z" fill="#f9af8b"/>
          <g id="Group_1199" data-name="Group 1199">
            <path id="Path_901" data-name="Path 901" d="M430.159,371.468c-.667,13.165-.315,30.208-.028,39.551a6.764,6.764,0,0,1-6.83,6.9h-5.116a6.972,6.972,0,0,1-3.142-.745,6.783,6.783,0,0,1-3.689-6.156c.343-11.05.825-32.16-.241-38.6-1.056-6.383-2.873-35.165-3.809-50.719-.306-5.194-.519-8.907-.575-9.824l21.816.281c.065,1.108.167,2.815.287,4.976C429.538,329.575,430.9,356.968,430.159,371.468Z" fill="#2e3052"/>
          </g>
          <path id="Path_902" data-name="Path 902" d="M428.834,317.136a215.463,215.463,0,0,1-21.528,4.567c-.306-5.194-.519-8.907-.575-9.824l21.816.281C428.611,313.268,428.713,314.975,428.834,317.136Z" fill="#001030"/>
          <g id="Group_1200" data-name="Group 1200">
            <path id="Path_903" data-name="Path 903" d="M414.765,411.544c.051,2.366.154,4.2.281,5.627a6.72,6.72,0,0,1-1.553-1.081c-.088-1.263-.154-2.754-.193-4.514-.127-5.89.071-13.2.261-20.263.232-8.555.449-16.639-.012-19.988-1.052-7.634-3.4-48.837-4.007-59.787l1.463-.065c.613,10.957,2.95,52.076,4,59.66.479,3.464.256,11.6.024,20.218C414.836,398.4,414.638,405.687,414.765,411.544Z" fill="#001030"/>
          </g>
          <g id="Group_1206" data-name="Group 1206">
            <g id="Group_1201" data-name="Group 1201">
              <path id="Path_904" data-name="Path 904" d="M420.887,422.948a28.168,28.168,0,0,1,3.9-.782c.845.016,6.5,6.214,8.406,6.579,3.454.662,3.459,5.947,1.357,6.209-6.08.759-16.481-1.757-16.481-1.757s-.958-6.781-.542-8.909S419.188,423.573,420.887,422.948Z" fill="#008eff"/>
            </g>
            <g id="Group_1205" data-name="Group 1205">
              <g id="Group_1202" data-name="Group 1202">
                <path id="Path_905" data-name="Path 905" d="M425.921,428.736a.432.432,0,0,1-.326-.06.409.409,0,0,1-.115-.573,6.424,6.424,0,0,1,2.355-2.074,2.949,2.949,0,0,1,2.962.351.407.407,0,0,1,.043.582.427.427,0,0,1-.594.042,2.106,2.106,0,0,0-2.089-.213,5.667,5.667,0,0,0-1.978,1.773A.418.418,0,0,1,425.921,428.736Z" fill="#fff"/>
              </g>
              <g id="Group_1203" data-name="Group 1203">
                <path id="Path_906" data-name="Path 906" d="M424.757,427.487a.432.432,0,0,1-.326-.06.408.408,0,0,1-.115-.573,6.433,6.433,0,0,1,2.355-2.075,2.946,2.946,0,0,1,2.962.351.407.407,0,0,1,.043.582.426.426,0,0,1-.594.042,2.106,2.106,0,0,0-2.089-.213,5.646,5.646,0,0,0-1.978,1.773A.419.419,0,0,1,424.757,427.487Z" fill="#fff"/>
              </g>
              <g id="Group_1204" data-name="Group 1204">
                <path id="Path_907" data-name="Path 907" d="M427.547,429.8a.432.432,0,0,1-.326-.06.408.408,0,0,1-.115-.573,6.433,6.433,0,0,1,2.355-2.075,2.948,2.948,0,0,1,2.962.351.407.407,0,0,1,.043.582.427.427,0,0,1-.594.042,2.1,2.1,0,0,0-2.088-.212,5.646,5.646,0,0,0-1.978,1.773A.42.42,0,0,1,427.547,429.8Z" fill="#fff"/>
              </g>
            </g>
          </g>
        </g>
        <g id="Group_1218" data-name="Group 1218">
          <g id="Group_1209" data-name="Group 1209">
            <g id="Group_1208" data-name="Group 1208">
              <path id="Path_908" data-name="Path 908" d="M433.5,314.029a121.259,121.259,0,0,1-59.045,0c-.1-7.2-.207-35.973.36-59.591q.015-.7.034-1.387c0-.228.012-.456.018-.681v-.037c.008-.295.014-.585.024-.876.42-15.576,1.155-28.3,2.411-29.995l0,0c2.934-3.95,17.678-10.257,21.757-13.073.34.536,2.347,3.515,4.977,3.735,2.887.25,5.453-3.078,5.453-3.078v-.63c4.1,2.814,17.455,8.652,20.385,12.59C433.078,225.32,433.633,301.767,433.5,314.029Z" fill="#08aefe"/>
            </g>
          </g>
          <g id="Group_1211" data-name="Group 1211">
            <g id="Group_1210" data-name="Group 1210">
              <path id="Path_909" data-name="Path 909" d="M380.82,243.349a71.843,71.843,0,0,0-5.271,9.664c-.151.322-.277.593-.372.8-.125.269-.2.425-.2.437a.439.439,0,0,1-.161.189q.015-.7.034-1.387c0-.228.012-.456.018-.681v-.037c.227-.478.5-1.04.8-1.656a58.039,58.039,0,0,1,4.423-7.858.464.464,0,0,1,.639-.094A.444.444,0,0,1,380.82,243.349Z" fill="#0077eb"/>
            </g>
          </g>
          <g id="Group_1213" data-name="Group 1213">
            <g id="Group_1212" data-name="Group 1212">
              <path id="Path_910" data-name="Path 910" d="M418.549,225.966h-.015a32.048,32.048,0,0,1-17.56-6.07,30.717,30.717,0,0,1-6.2-5.729.44.44,0,0,1,.093-.625.463.463,0,0,1,.639.091c.084.11,8.532,10.986,23.06,11.439a.447.447,0,1,1-.014.894Z" fill="#0077eb"/>
            </g>
          </g>
          <g id="Group_1215" data-name="Group 1215">
            <g id="Group_1214" data-name="Group 1214">
              <path id="Path_911" data-name="Path 911" d="M392.172,299.013a.447.447,0,0,1-.029-.894c12.846-.825,20.508-7.2,24.674-12.408a34.36,34.36,0,0,0,6.047-11.256.456.456,0,0,1,.556-.32.447.447,0,0,1,.328.545,34.547,34.547,0,0,1-6.189,11.555c-4.282,5.361-12.157,11.93-25.356,12.777Z" fill="#0077eb"/>
            </g>
          </g>
          <g id="Group_1217" data-name="Group 1217">
            <g id="Group_1216" data-name="Group 1216">
              <path id="Path_912" data-name="Path 912" d="M399.069,291.022a.455.455,0,0,1-.44-.331.445.445,0,0,1,.322-.548c11.163-2.957,13.317-12.09,13.338-12.182a.457.457,0,0,1,.543-.342.447.447,0,0,1,.349.531,15.816,15.816,0,0,1-2.561,5.272,19.97,19.97,0,0,1-11.431,7.585A.555.555,0,0,1,399.069,291.022Z" fill="#0077eb"/>
            </g>
          </g>
        </g>
        <g id="Group_1220" data-name="Group 1220">
          <path id="Path_913" data-name="Path 913" d="M447.957,313.238c-.281,3.914-2.679,6.821-2.691,9.4s-3.05.892-1.643-4.2-.679-10.014-1.792-9.969.354,5.737-.816,7.627-2.054-2.079-3.079-4.533c-1.065-2.548-.469-7.833.5-11.555s-3.77-27.325-3.15-33.976l-1.709-8.629-1-5.034-.187-5.254,9.127-3.543c.344,1.687.7,3.435,1.045,5.194.154.775.3,1.553.454,2.328,1.221,6.292,2.317,12.486,2.764,16.459,1.233,10.99-.791,33.407-.791,33.407S448.221,309.568,447.957,313.238Z" fill="#f9af8b"/>
          <path id="Path_914" data-name="Path 914" d="M443.012,251.092c-2.058,2.3-5.348,5.237-9.44,6.309l-1-5.034-.187-5.254,9.127-3.543c.344,1.687.7,3.435,1.045,5.194C442.712,249.539,442.863,250.317,443.012,251.092Z" fill="#fc8664"/>
          <g id="Group_1219" data-name="Group 1219">
            <path id="Path_915" data-name="Path 915" d="M445.547,246.11a19.281,19.281,0,0,1-2.989,2.654,17.374,17.374,0,0,1-9.974,3.6c-.5-14.562-1.248-26.867-2.33-30.479C432.18,224.217,441.428,235.685,445.547,246.11Z" fill="#08aefe"/>
          </g>
        </g>
        <g id="Group_1222" data-name="Group 1222">
          <g id="Group_1221" data-name="Group 1221">
            <path id="Path_916" data-name="Path 916" d="M426.32,241.887a71.944,71.944,0,0,1,5.271,9.664c.151.322.276.592.372.8.126.268.2.425.2.436a.454.454,0,0,0,.418.266h.009c0-.228-.011-.456-.018-.682.135,0,.269,0,.4-.005-.062-.132-.21-.454-.422-.908-.267-.57-.637-1.352-1.073-2.242a57.857,57.857,0,0,0-4.422-7.858.462.462,0,0,0-.639-.094A.442.442,0,0,0,426.32,241.887Z" fill="#0077eb"/>
          </g>
        </g>
        <g id="Group_1236" data-name="Group 1236">
          <path id="Path_917" data-name="Path 917" d="M418.07,185c0,7.888-4.957,13.324-13.008,13.324S391.4,192.479,391.4,184.591s4.767-13.864,12.818-13.864C413.874,170.727,418.07,177.112,418.07,185Z" fill="#2e3052"/>
          <g id="Group_1229" data-name="Group 1229">
            <path id="Path_918" data-name="Path 918" d="M416.261,188.4s2.237-2.922,3.9-.506-.688,9.553-4.76,7.811Z" fill="#fc8664"/>
            <g id="Group_1225" data-name="Group 1225">
              <g id="Group_1224" data-name="Group 1224">
                <g id="Group_1223" data-name="Group 1223">
                  <path id="Path_919" data-name="Path 919" d="M416.29,193.495a.345.345,0,0,0,.331-.246,5.275,5.275,0,0,1,2.984-3.1.335.335,0,0,0,.2-.435.346.346,0,0,0-.443-.2,5.87,5.87,0,0,0-3.4,3.554.337.337,0,0,0,.238.416A.385.385,0,0,0,416.29,193.495Z" fill="#fd664d"/>
                </g>
              </g>
            </g>
            <g id="Group_1228" data-name="Group 1228">
              <g id="Group_1227" data-name="Group 1227">
                <g id="Group_1226" data-name="Group 1226">
                  <path id="Path_920" data-name="Path 920" d="M418.641,192.385a.343.343,0,0,0,.186-.054.333.333,0,0,0,.1-.466,3.118,3.118,0,0,0-1.292-1.02.346.346,0,0,0-.454.17.334.334,0,0,0,.173.445,2.467,2.467,0,0,1,.994.77A.346.346,0,0,0,418.641,192.385Z" fill="#fd664d"/>
                </g>
              </g>
            </g>
          </g>
          <g id="Group_1234" data-name="Group 1234">
            <path id="Path_921" data-name="Path 921" d="M393.209,188.4s-2.237-2.922-3.9-.506.688,9.553,4.76,7.811Z" fill="#fc8664"/>
            <g id="Group_1230" data-name="Group 1230">
              <path id="Path_922" data-name="Path 922" d="M393.18,193.495a.344.344,0,0,1-.331-.246,5.275,5.275,0,0,0-2.984-3.1.335.335,0,0,1-.2-.435.346.346,0,0,1,.443-.2,5.87,5.87,0,0,1,3.4,3.554.337.337,0,0,1-.238.416A.385.385,0,0,1,393.18,193.495Z" fill="#fd664d"/>
            </g>
            <g id="Group_1233" data-name="Group 1233">
              <g id="Group_1232" data-name="Group 1232">
                <g id="Group_1231" data-name="Group 1231">
                  <path id="Path_923" data-name="Path 923" d="M390.828,192.385a.343.343,0,0,1-.186-.054.333.333,0,0,1-.1-.466,3.118,3.118,0,0,1,1.292-1.02.348.348,0,0,1,.455.17.333.333,0,0,1-.174.445,2.467,2.467,0,0,0-.994.77A.345.345,0,0,1,390.828,192.385Z" fill="#fd664d"/>
                </g>
              </g>
            </g>
          </g>
          <path id="Path_924" data-name="Path 924" d="M399.229,201.754v7.1s2.16,3.614,5.082,3.86,5.512-3.112,5.512-3.112v-7.346Z" fill="#f9af8b"/>
          <path id="Path_925" data-name="Path 925" d="M399.229,201.754V204.9c1.96,2.131,5.442,2.664,10.594,1.918v-4.568Z" fill="#fc8664"/>
          <path id="Path_926" data-name="Path 926" d="M417.457,188.17a41.8,41.8,0,0,1-.588,4.672c-.971,5.232-3.159,10.376-7.873,12.027-10.673,3.734-14.488-5.235-16.013-10.463-.167-.579-.318-1.226-.451-1.916-.243-1.246-.431-2.636-.578-4.036-.174-1.7-.29-3.416-.362-4.927a7.382,7.382,0,0,1,4.827-7.248c4.376-1.648,11.025-2.951,17.326.549a7.38,7.38,0,0,1,3.839,6.3C417.611,184.556,417.591,186.295,417.457,188.17Z" fill="#f9af8b"/>
          <path id="Path_927" data-name="Path 927" d="M416.134,188.455c-.359.643-2.359,6.688-2.916,7.536-1.262-2.719-7.35-.743-7.35-.743a3.862,3.862,0,0,1-2.324.01l-.031-.01s-6.16-1.892-7.374.958c-.564-.844-2.3-6.776-2.626-7.75h-1.559c.147,1.4.335,2.79.578,4.036.133.69.284,1.336.451,1.916,1.525,5.228,5.34,14.2,16.013,10.463,4.714-1.651,6.9-6.8,7.873-12.027a41.833,41.833,0,0,0,.588-4.672Zm-5.739,11.056v0h0a6.784,6.784,0,0,1-1.432,1.065c-2.7,1.433-3,1.216-4.065,1.263a8.19,8.19,0,0,1-4.106-1.1,11.656,11.656,0,0,1-1.952-1.457s-1.1-3.674,5.87-2.753C411.69,195.361,410.511,198.794,410.395,199.511Z" fill="#2e3052"/>
          <path id="Path_928" data-name="Path 928" d="M409.312,189.322c0,.758.4,1.372.89,1.372s.89-.614.89-1.372-.4-1.372-.89-1.372S409.312,188.564,409.312,189.322Z" fill="#2e3052"/>
          <path id="Path_929" data-name="Path 929" d="M398.82,189.294c0,.758.4,1.372.89,1.372s.89-.614.89-1.372-.4-1.372-.89-1.372S398.82,188.536,398.82,189.294Z" fill="#2e3052"/>
          <path id="Path_930" data-name="Path 930" d="M413.733,185.448s-3.41-1.32-6.036-.209l.263,1.431s3.854-.319,5.8.452A2.446,2.446,0,0,0,413.733,185.448Z" fill="#2e3052"/>
          <path id="Path_931" data-name="Path 931" d="M396.772,185.448s3.41-1.32,6.036-.209l-.263,1.431s-3.854-.319-5.8.452A2.446,2.446,0,0,1,396.772,185.448Z" fill="#2e3052"/>
          <g id="Group_1235" data-name="Group 1235">
            <path id="Path_932" data-name="Path 932" d="M404.615,194.631a3.729,3.729,0,0,1-1.246-.257.335.335,0,0,1-.188-.44.347.347,0,0,1,.448-.185,2.106,2.106,0,0,0,1.38.128.367.367,0,0,0,.169-.314,50.171,50.171,0,0,0-.208-5.163.344.344,0,0,1,.686-.056,48.836,48.836,0,0,1,.207,5.288,1.028,1.028,0,0,1-.5.823A1.466,1.466,0,0,1,404.615,194.631Z" fill="#fc8664"/>
          </g>
          <path id="Path_933" data-name="Path 933" d="M409.312,197.1c-.281,1.386-1.216,3.937-4.365,3.937s-4.042-2.331-4.346-3.937Z" fill="#fff"/>
          <path id="Path_934" data-name="Path 934" d="M391.955,188.456h1.56c-.172-1.534-.419-4.236.867-4.623,4.064-1.223-1.2-4.036.632-5.439s6.4-.8,9.575-.9a69.578,69.578,0,0,1,9.575.226c1.249.28.564,2.312.107,3.886s1.531,3.311,1.865,4.94a7.01,7.01,0,0,1,0,1.914h1.3c.154-1.982.177-3.827.149-5.323a7.389,7.389,0,0,0-3.837-6.3c-6.3-3.5-12.95-2.2-17.327-.546a7.382,7.382,0,0,0-4.828,7.245C391.665,185.038,391.779,186.757,391.955,188.456Z" fill="#2e3052"/>
        </g>
      </g>
      <g id="Group_1278" data-name="Group 1278">
        <g id="Group_1277" data-name="Group 1277">
          <g id="Group_1240" data-name="Group 1240">
            <g id="Group_1238" data-name="Group 1238">
              <path id="Path_935" data-name="Path 935" d="M163.28,361.163H84.115c1.308-7.942,7.608-13.712,14.95-13.689l24.632.072,24.632-.072C155.672,347.452,161.971,353.221,163.28,361.163Z" fill="#fff"/>
            </g>
            <g id="Group_1239" data-name="Group 1239">
              <rect id="Rectangle_520" data-name="Rectangle 520" width="4.314" height="73.81" transform="translate(90.342 360.026)" fill="#fff"/>
              <rect id="Rectangle_521" data-name="Rectangle 521" width="4.314" height="73.81" transform="translate(152.74 360.026)" fill="#fff"/>
              <rect id="Rectangle_522" data-name="Rectangle 522" width="58.084" height="4.16" transform="translate(94.655 380.708)" fill="#dcedf9"/>
            </g>
          </g>
          <g id="Group_1276" data-name="Group 1276">
            <g id="Group_1241" data-name="Group 1241">
              <path id="Path_936" data-name="Path 936" d="M104.316,261.8S91.1,279.436,89.335,294.813c-1.242,10.861,14.981,27.09,14.981,27.09l5.588-2.781-5.57-12.561c-1.982-6.117-4.423-8.535-2.62-14.708l4.034-8.7Z" fill="#08aefe"/>
            </g>
            <g id="Group_1242" data-name="Group 1242">
              <path id="Path_937" data-name="Path 937" d="M145.979,261.538s13.05,18.8,14.13,34.241c.932,13.312-15.043,26.124-15.043,26.124l-4.614-2.3,6.389-12.69c1.982-6.117,2.924-9.806.222-16.462l-3.43-7.3Z" fill="#08aefe"/>
            </g>
            <g id="Group_1246" data-name="Group 1246">
              <g id="Group_1243" data-name="Group 1243">
                <path id="Path_938" data-name="Path 938" d="M107.009,301.96l-8.764,27.879s37.943,4.839,49.546,1.708L141.9,301.183l4.081-39.645a56.51,56.51,0,0,0-17.845-4.366c-8.973-.648-14.641.832-23.817,4.632Z" fill="#08aefe"/>
              </g>
              <g id="Group_1245" data-name="Group 1245">
                <g id="Group_1244" data-name="Group 1244">
                  <path id="Path_939" data-name="Path 939" d="M116.494,270.21c8.371-.982,16.159-6.73,16.513-6.994a.467.467,0,1,0-.559-.749c-.092.068-9.256,6.829-18.07,6.949a.468.468,0,0,0,.012.935A20.843,20.843,0,0,0,116.494,270.21Z" fill="#0077eb"/>
                </g>
              </g>
            </g>
            <g id="Group_1248" data-name="Group 1248">
              <path id="Path_940" data-name="Path 940" d="M123.239,419.575l.684,6.156,6.547.149.549-5.108Z" fill="#f9af8b"/>
              <g id="Group_1247" data-name="Group 1247">
                <path id="Path_941" data-name="Path 941" d="M122.212,321.978s-16.953-.931-22.7,3.767-4.588,18.18,1.262,21.861S116.6,358.52,116.6,358.52l6.343,63.06,8.382.285s7.723-63.345,3.807-75.613S122.212,321.978,122.212,321.978Z" fill="#001030"/>
                <path id="Path_942" data-name="Path 942" d="M132.1,418.738a7,7,0,0,1-.216,4.319l-9.644-.214a11.089,11.089,0,0,1-.187-4.23Z" fill="#2e3052"/>
              </g>
            </g>
            <g id="Group_1251" data-name="Group 1251">
              <path id="Path_943" data-name="Path 943" d="M146.2,321.5h-44.49L97.6,297.459a3.409,3.409,0,0,1,3.36-3.984h45.992a3.41,3.41,0,0,1,3.361,3.984Z" fill="#fff"/>
              <g id="Group_1249" data-name="Group 1249">
                <path id="Path_944" data-name="Path 944" d="M142.626,326.73H105.334a3.621,3.621,0,0,1-3.621-3.621V321.5h44.534v1.607A3.62,3.62,0,0,1,142.626,326.73Z" fill="#dcedf9"/>
              </g>
              <g id="Group_1250" data-name="Group 1250">
                <path id="Path_945" data-name="Path 945" d="M127.922,308.48a3.864,3.864,0,1,1-3.864-3.864A3.864,3.864,0,0,1,127.922,308.48Z" fill="#dcedf9"/>
              </g>
            </g>
            <g id="Group_1253" data-name="Group 1253">
              <path id="Path_946" data-name="Path 946" d="M95.431,402.262l-1.451,6.092,5.875,1.161,2.393-5.44Z" fill="#f9af8b"/>
              <g id="Group_1252" data-name="Group 1252">
                <path id="Path_947" data-name="Path 947" d="M130.825,320.934s-11.354-3.915-18.01,4.307-17.8,77.629-17.8,77.629l7.641,3.153,24.562-61.641s20,11.414,22.425-4.812C151.558,326.73,130.825,320.934,130.825,320.934Z" fill="#2e3052"/>
                <path id="Path_948" data-name="Path 948" d="M104.385,402.842a7.238,7.238,0,0,1-1.605,4.167l-9.391-3.32a11.447,11.447,0,0,1,1.181-4.21Z" fill="#524e84"/>
              </g>
            </g>
            <g id="Group_1259" data-name="Group 1259">
              <g id="Group_1254" data-name="Group 1254">
                <path id="Path_949" data-name="Path 949" d="M98.463,407.352a35.712,35.712,0,0,0-4.609-2.013c-1.048-.206-9.705,5.935-12.157,5.875-4.448-.109-5.872,6.422-3.344,7.311,7.312,2.571,20.844,2.252,20.844,2.252s3-8.124,3.062-10.866S100.395,408.581,98.463,407.352Z" fill="#008eff"/>
              </g>
              <g id="Group_1258" data-name="Group 1258">
                <g id="Group_1255" data-name="Group 1255">
                  <path id="Path_950" data-name="Path 950" d="M90.686,413.155a.542.542,0,0,0,.419.013.516.516,0,0,0,.3-.677,8.137,8.137,0,0,0-2.354-3.2,3.732,3.732,0,0,0-3.755-.362.516.516,0,0,0-.21.708.54.54,0,0,0,.723.212,2.666,2.666,0,0,1,2.639.3,7.177,7.177,0,0,1,1.969,2.722A.534.534,0,0,0,90.686,413.155Z" fill="#fff"/>
                </g>
                <g id="Group_1256" data-name="Group 1256">
                  <path id="Path_951" data-name="Path 951" d="M92.461,411.923a.542.542,0,0,0,.419.013.516.516,0,0,0,.3-.677,8.144,8.144,0,0,0-2.354-3.2,3.729,3.729,0,0,0-3.755-.362.515.515,0,0,0-.21.707.54.54,0,0,0,.723.212,2.664,2.664,0,0,1,2.638.3,7.151,7.151,0,0,1,1.969,2.722A.53.53,0,0,0,92.461,411.923Z" fill="#fff"/>
                </g>
                <g id="Group_1257" data-name="Group 1257">
                  <path id="Path_952" data-name="Path 952" d="M88.391,414.033a.542.542,0,0,0,.419.013.516.516,0,0,0,.3-.677,8.144,8.144,0,0,0-2.354-3.2A3.729,3.729,0,0,0,83,409.81a.516.516,0,0,0-.21.708.54.54,0,0,0,.723.212,2.666,2.666,0,0,1,2.639.3,7.139,7.139,0,0,1,1.969,2.722A.529.529,0,0,0,88.391,414.033Z" fill="#fff"/>
                </g>
              </g>
            </g>
            <g id="Group_1265" data-name="Group 1265">
              <g id="Group_1260" data-name="Group 1260">
                <path id="Path_953" data-name="Path 953" d="M126.448,425.473a34.107,34.107,0,0,1,4.663-1.126c1.019-.02,8.13,7.186,10.443,7.536,4.2.636,4.449,7.006,1.927,7.421-7.294,1.2-19.951-1.344-19.951-1.344s-1.474-8.129-1.072-10.714S124.43,426.307,126.448,425.473Z" fill="#008eff"/>
              </g>
              <g id="Group_1264" data-name="Group 1264">
                <g id="Group_1261" data-name="Group 1261">
                  <path id="Path_954" data-name="Path 954" d="M132.79,432.214a.519.519,0,0,1-.4-.057.491.491,0,0,1-.165-.685,7.764,7.764,0,0,1,2.741-2.611,3.561,3.561,0,0,1,3.587.283.491.491,0,0,1,.08.7.515.515,0,0,1-.714.079,2.54,2.54,0,0,0-2.528-.158,6.858,6.858,0,0,0-2.3,2.23A.5.5,0,0,1,132.79,432.214Z" fill="#fff"/>
                </g>
                <g id="Group_1262" data-name="Group 1262">
                  <path id="Path_955" data-name="Path 955" d="M131.327,430.763a.517.517,0,0,1-.4-.057.491.491,0,0,1-.165-.685,7.763,7.763,0,0,1,2.741-2.612,3.553,3.553,0,0,1,3.587.284.49.49,0,0,1,.079.7.515.515,0,0,1-.714.079,2.54,2.54,0,0,0-2.528-.158,6.816,6.816,0,0,0-2.3,2.23A.508.508,0,0,1,131.327,430.763Z" fill="#fff"/>
                </g>
                <g id="Group_1263" data-name="Group 1263">
                  <path id="Path_956" data-name="Path 956" d="M134.8,433.42a.517.517,0,0,1-.4-.057.491.491,0,0,1-.165-.685,7.772,7.772,0,0,1,2.741-2.612,3.553,3.553,0,0,1,3.587.284.49.49,0,0,1,.079.7.515.515,0,0,1-.714.079,2.54,2.54,0,0,0-2.528-.158,6.816,6.816,0,0,0-2.3,2.23A.512.512,0,0,1,134.8,433.42Z" fill="#fff"/>
                </g>
              </g>
            </g>
            <g id="Group_1275" data-name="Group 1275">
              <path id="Path_957" data-name="Path 957" d="M136.346,222.039s5.4,8.357,4.8,17.062.795,18.754-6.994,18.312-21.683,3.123-26.1-3.657S136.346,222.039,136.346,222.039Z" fill="#2e3052"/>
              <path id="Path_958" data-name="Path 958" d="M138.346,237.406s1.4,12.618-4.587,16.092-10.321-.4-10.321-.4S136.059,235.506,138.346,237.406Z" fill="#000b29"/>
              <g id="Group_1274" data-name="Group 1274">
                <g id="Group_1268" data-name="Group 1268">
                  <path id="Path_959" data-name="Path 959" d="M113.475,237.347s-2.15-2.867-3.749-.5.661,9.371,4.575,7.662Z" fill="#fc8664"/>
                  <g id="Group_1266" data-name="Group 1266">
                    <path id="Path_960" data-name="Path 960" d="M113.447,242.35a.332.332,0,0,1-.318-.242,5.115,5.115,0,0,0-2.868-3.046.33.33,0,1,1,.234-.618,5.7,5.7,0,0,1,3.271,3.486.331.331,0,0,1-.229.408A.348.348,0,0,1,113.447,242.35Z" fill="#fd664d"/>
                  </g>
                  <g id="Group_1267" data-name="Group 1267">
                    <path id="Path_961" data-name="Path 961" d="M111.187,241.261a.331.331,0,0,1-.278-.51,3.023,3.023,0,0,1,1.241-1,.331.331,0,0,1,.27.6,2.4,2.4,0,0,0-.955.755A.328.328,0,0,1,111.187,241.261Z" fill="#fd664d"/>
                  </g>
                </g>
                <g id="Group_1271" data-name="Group 1271">
                  <path id="Path_962" data-name="Path 962" d="M135.631,237.347s2.15-2.867,3.749-.5-.661,9.371-4.575,7.662Z" fill="#fc8664"/>
                  <g id="Group_1269" data-name="Group 1269">
                    <path id="Path_963" data-name="Path 963" d="M135.659,242.35a.331.331,0,0,0,.318-.242,5.115,5.115,0,0,1,2.868-3.046.331.331,0,0,0-.235-.618,5.7,5.7,0,0,0-3.271,3.486.331.331,0,0,0,.229.408A.362.362,0,0,0,135.659,242.35Z" fill="#fd664d"/>
                  </g>
                  <g id="Group_1270" data-name="Group 1270">
                    <path id="Path_964" data-name="Path 964" d="M137.919,241.261a.331.331,0,0,0,.278-.51,3.022,3.022,0,0,0-1.242-1,.331.331,0,1,0-.27.6,2.4,2.4,0,0,1,.955.755A.332.332,0,0,0,137.919,241.261Z" fill="#fd664d"/>
                  </g>
                </g>
                <path id="Path_965" data-name="Path 965" d="M129.845,250.452v6.962s-2.076,3.546-4.884,3.787-5.3-3.053-5.3-3.053v-7.207Z" fill="#f9af8b"/>
                <path id="Path_966" data-name="Path 966" d="M129.845,250.452v3.089c-1.884,2.091-5.229,2.832-10.181,2.1v-4.7Z" fill="#fc8664"/>
                <path id="Path_967" data-name="Path 967" d="M137.186,232.571a67.751,67.751,0,0,1-.9,8.795c-.129.675-.275,1.31-.437,1.879-1.465,5.13-5.13,13.928-15.39,10.263-4.531-1.617-6.632-6.665-7.568-11.8a49.663,49.663,0,0,1-.685-9.526A7.267,7.267,0,0,1,115.891,226c6.056-3.433,12.446-2.153,16.653-.536A7.245,7.245,0,0,1,137.186,232.571Z" fill="#f9af8b"/>
                <path id="Path_968" data-name="Path 968" d="M120.035,238.422c0,.743-.383,1.346-.856,1.346s-.855-.6-.855-1.346.383-1.346.855-1.346S120.035,237.679,120.035,238.422Z" fill="#2e3052"/>
                <path id="Path_969" data-name="Path 969" d="M130.6,238.422c0,.743-.383,1.346-.855,1.346s-.856-.6-.856-1.346.383-1.346.856-1.346S130.6,237.679,130.6,238.422Z" fill="#2e3052"/>
                <path id="Path_970" data-name="Path 970" d="M117.485,233.945a14.263,14.263,0,0,1,3.66-.548.635.635,0,0,1,.633.745l0,.01a.633.633,0,0,1-.654.52,16.072,16.072,0,0,0-5.011.614.958.958,0,0,1,.291-.681A2.195,2.195,0,0,1,117.485,233.945Z" fill="#2e3052"/>
                <path id="Path_971" data-name="Path 971" d="M131.308,233.972a14.263,14.263,0,0,0-3.66-.548.636.636,0,0,0-.633.745l0,.01a.633.633,0,0,0,.654.52,16.072,16.072,0,0,1,5.011.614.958.958,0,0,0-.291-.681A2.2,2.2,0,0,0,131.308,233.972Z" fill="#2e3052"/>
                <g id="Group_1272" data-name="Group 1272">
                  <path id="Path_972" data-name="Path 972" d="M124.668,243.9a1.394,1.394,0,0,1-.719-.172,1.011,1.011,0,0,1-.481-.808,48.728,48.728,0,0,1,.2-5.188.331.331,0,0,1,.66.054,50.268,50.268,0,0,0-.2,5.065.361.361,0,0,0,.162.308,1.988,1.988,0,0,0,1.327-.125.331.331,0,1,1,.25.612A3.469,3.469,0,0,1,124.668,243.9Z" fill="#fc8664"/>
                </g>
                <path id="Path_973" data-name="Path 973" d="M120.468,245.984c.25,1.258,1.081,3.573,3.881,3.573s3.594-2.115,3.864-3.573Z" fill="#fff"/>
                <g id="Group_1273" data-name="Group 1273">
                  <path id="Path_974" data-name="Path 974" d="M124.309,251.487a3.3,3.3,0,0,1-1.551-.454.331.331,0,0,1,.348-.563h0a2.671,2.671,0,0,0,1.2.355,2.805,2.805,0,0,0,1.27-.357.331.331,0,0,1,.342.566A3.456,3.456,0,0,1,124.309,251.487Z" fill="#fc8664"/>
                </g>
              </g>
              <path id="Path_975" data-name="Path 975" d="M138.517,232.032a1.09,1.09,0,0,1-.8.61,20.971,20.971,0,0,1-.12,2.448c-.408,4.78-1.614,5.62-1.887,4.438a55,55,0,0,1-.082-6.755,15.664,15.664,0,0,1-1.752-.219l-1.109-4.641-.388,4.584c-1.663.579-5.544-.348-5.544-.348l-1.3-4.575-.805,4.4a9.266,9.266,0,0,1-5.612.406l-.716-4.748-1.654,4.748s-5.322,1.909-5.38,0a35.688,35.688,0,0,1,1.466-6.664,10.029,10.029,0,0,1,4.834-6.136,17.614,17.614,0,0,1,15.977-.228C138.726,222.384,138.517,232.032,138.517,232.032Z" fill="#2e3052"/>
              <path id="Path_976" data-name="Path 976" d="M114.3,222.393s-4.381,5.211-5.823,14.518-3.437,16.183,2.171,19.256c6.07,3.326,5.544-3.495,5.457-5.349s-5.25-6.921-1.805-21.194C115.415,225.015,114.3,222.393,114.3,222.393Z" fill="#2e3052"/>
              <path id="Path_977" data-name="Path 977" d="M113.278,241.625v.011c0,.069.007.439.033,1.018.013.359.035.8.069,1.293.206,3.136.816,8.551,2.608,10.429a5.984,5.984,0,0,0,3.677,1.266v-2.464a9.76,9.76,0,0,1-4.034-3.745,23.029,23.029,0,0,1-2.231-6.879Z" fill="#000b29"/>
              <path id="Path_978" data-name="Path 978" d="M137.265,244.671a.775.775,0,1,1-.775-.775A.775.775,0,0,1,137.265,244.671Z" fill="#fff"/>
            </g>
          </g>
        </g>
      </g>
      <g id="Group_1367" data-name="Group 1367">
        <g id="Group_1282" data-name="Group 1282">
          <g id="Group_1280" data-name="Group 1280">
            <g id="Group_1279" data-name="Group 1279">
              <path id="Path_979" data-name="Path 979" d="M370.749,177.937H351.741a2.642,2.642,0,0,1-2.642-2.642V156.287a2.642,2.642,0,0,1,2.642-2.642h19.008a2.642,2.642,0,0,1,2.642,2.642v19.008A2.642,2.642,0,0,1,370.749,177.937Z" fill="#ffaa01"/>
            </g>
          </g>
          <g id="Group_1281" data-name="Group 1281">
            <path id="Path_980" data-name="Path 980" d="M369.517,165.792a8.271,8.271,0,1,1-8.271-8.27A8.238,8.238,0,0,1,369.517,165.792Z" fill="#fdcc50"/>
            <path id="Path_981" data-name="Path 981" d="M367.623,171.058a8.27,8.27,0,0,1-12.754,0l.111-.22a2.915,2.915,0,0,1,1.748-1.471c1.347-.411,2.6-.827,3.3-2.03a3.569,3.569,0,0,1-1.66-1.77c-.936.2-1.609-1.532-1.108-1.991a.738.738,0,0,1,.552-.213,3.436,3.436,0,0,1,6.87,0,.734.734,0,0,1,.552.213c.5.459-.172,2.19-1.108,1.991a3.137,3.137,0,0,1-1.539,1.66,4.991,4.991,0,0,0,3.176,2.139,2.913,2.913,0,0,1,1.749,1.471Z" fill="#fff"/>
          </g>
        </g>
        <g id="Group_1285" data-name="Group 1285">
          <g id="Group_1284" data-name="Group 1284">
            <g id="Group_1283" data-name="Group 1283">
              <path id="Path_982" data-name="Path 982" d="M55.125,307.108H36.117a2.642,2.642,0,0,1-2.642-2.642V285.458a2.642,2.642,0,0,1,2.642-2.642H55.125a2.642,2.642,0,0,1,2.642,2.642v19.008A2.642,2.642,0,0,1,55.125,307.108Z" fill="#ffaa01"/>
            </g>
          </g>
          <path id="Path_983" data-name="Path 983" d="M45.985,286.908a5.317,5.317,0,0,0-4.938,8.017c.7,1.185,1.429,2.358,2.1,3.564l2.519,4.54,3.842-6.932c.225-.4.469-.8.7-1.2a5.255,5.255,0,0,0,.727-2.816A5.341,5.341,0,0,0,45.985,286.908Zm-.365,6.913a2.245,2.245,0,1,1,2.245-2.245A2.245,2.245,0,0,1,45.62,293.821Z" fill="#fff"/>
        </g>
        <g id="Group_1313" data-name="Group 1313">
          <g id="Group_1288" data-name="Group 1288">
            <g id="Group_1287" data-name="Group 1287">
              <g id="Group_1286" data-name="Group 1286">
                <path id="Path_984" data-name="Path 984" d="M454.265,185.938a5.423,5.423,0,1,1-5.423,5.423A5.429,5.429,0,0,1,454.265,185.938Zm0,9.144a3.721,3.721,0,1,0-3.721-3.721A3.725,3.725,0,0,0,454.265,195.082Z" fill="#008eff"/>
              </g>
            </g>
          </g>
          <g id="Group_1289" data-name="Group 1289">
            <path id="Path_985" data-name="Path 985" d="M434.744,166.914a5.423,5.423,0,1,1-5.422,5.423A5.429,5.429,0,0,1,434.744,166.914Zm0,9.144a3.721,3.721,0,1,0-3.721-3.721A3.725,3.725,0,0,0,434.744,176.058Z" fill="#ffaa01"/>
          </g>
          <g id="Group_1300" data-name="Group 1300">
            <g id="Group_1294" data-name="Group 1294">
              <g id="Group_1291" data-name="Group 1291">
                <g id="Group_1290" data-name="Group 1290">
                  <path id="Path_986" data-name="Path 986" d="M428.044,149.293a.851.851,0,0,1,.851.851V153.9a.851.851,0,0,1-1.7,0v-3.751A.851.851,0,0,1,428.044,149.293Z" fill="#008eff"/>
                </g>
              </g>
              <g id="Group_1293" data-name="Group 1293">
                <g id="Group_1292" data-name="Group 1292">
                  <path id="Path_987" data-name="Path 987" d="M428.044,142.729a.851.851,0,0,1,.851.851v3.751a.851.851,0,0,1-1.7,0V143.58A.851.851,0,0,1,428.044,142.729Z" fill="#008eff"/>
                </g>
              </g>
            </g>
            <g id="Group_1299" data-name="Group 1299">
              <g id="Group_1296" data-name="Group 1296">
                <g id="Group_1295" data-name="Group 1295">
                  <path id="Path_988" data-name="Path 988" d="M422.779,147.887h3.37a.851.851,0,1,1,0,1.7h-3.37a.851.851,0,1,1,0-1.7Z" fill="#008eff"/>
                </g>
              </g>
              <g id="Group_1298" data-name="Group 1298">
                <g id="Group_1297" data-name="Group 1297">
                  <path id="Path_989" data-name="Path 989" d="M429.94,147.887h3.37a.851.851,0,1,1,0,1.7h-3.37a.851.851,0,1,1,0-1.7Z" fill="#008eff"/>
                </g>
              </g>
            </g>
          </g>
          <g id="Group_1312" data-name="Group 1312">
            <g id="Group_1311" data-name="Group 1311">
              <g id="Group_1305" data-name="Group 1305">
                <g id="Group_1302" data-name="Group 1302">
                  <g id="Group_1301" data-name="Group 1301">
                    <path id="Path_990" data-name="Path 990" d="M457.986,170.312a.85.85,0,0,1,.85.851v3.751a.851.851,0,1,1-1.7,0v-3.751A.851.851,0,0,1,457.986,170.312Z" fill="#ffaa01"/>
                  </g>
                </g>
                <g id="Group_1304" data-name="Group 1304">
                  <g id="Group_1303" data-name="Group 1303">
                    <path id="Path_991" data-name="Path 991" d="M457.986,163.748a.85.85,0,0,1,.85.851v3.751a.851.851,0,1,1-1.7,0V164.6A.85.85,0,0,1,457.986,163.748Z" fill="#ffaa01"/>
                  </g>
                </g>
              </g>
              <g id="Group_1310" data-name="Group 1310">
                <g id="Group_1307" data-name="Group 1307">
                  <g id="Group_1306" data-name="Group 1306">
                    <path id="Path_992" data-name="Path 992" d="M452.721,168.9h3.37a.851.851,0,1,1,0,1.7h-3.37a.851.851,0,1,1,0-1.7Z" fill="#ffaa01"/>
                  </g>
                </g>
                <g id="Group_1309" data-name="Group 1309">
                  <g id="Group_1308" data-name="Group 1308">
                    <path id="Path_993" data-name="Path 993" d="M459.882,168.9h3.37a.851.851,0,1,1,0,1.7h-3.37a.851.851,0,1,1,0-1.7Z" fill="#ffaa01"/>
                  </g>
                </g>
              </g>
            </g>
          </g>
        </g>
        <g id="Group_1345" data-name="Group 1345">
          <g id="Group_1316" data-name="Group 1316">
            <g id="Group_1315" data-name="Group 1315">
              <g id="Group_1314" data-name="Group 1314">
                <path id="Path_994" data-name="Path 994" d="M118.454,116.7a5.423,5.423,0,1,1-5.423,5.423A5.429,5.429,0,0,1,118.454,116.7Zm0,1.7a3.721,3.721,0,1,0,3.722,3.721A3.726,3.726,0,0,0,118.454,118.4Z" fill="#008eff"/>
              </g>
            </g>
          </g>
          <g id="Group_1320" data-name="Group 1320">
            <g id="Group_1319" data-name="Group 1319">
              <g id="Group_1318" data-name="Group 1318">
                <g id="Group_1317" data-name="Group 1317">
                  <path id="Path_995" data-name="Path 995" d="M98.705,98.785a5.423,5.423,0,1,1-5.423,5.423A5.429,5.429,0,0,1,98.705,98.785Zm0,1.7a3.721,3.721,0,1,0,3.721,3.721A3.725,3.725,0,0,0,98.705,100.486Z" fill="#ffaa01"/>
                </g>
              </g>
            </g>
          </g>
          <g id="Group_1331" data-name="Group 1331">
            <g id="Group_1325" data-name="Group 1325">
              <g id="Group_1322" data-name="Group 1322">
                <g id="Group_1321" data-name="Group 1321">
                  <path id="Path_996" data-name="Path 996" d="M91.552,129.781a.851.851,0,0,0,.851.851h3.751a.851.851,0,0,0,0-1.7H92.4A.851.851,0,0,0,91.552,129.781Z" fill="#008eff"/>
                </g>
              </g>
              <g id="Group_1324" data-name="Group 1324">
                <g id="Group_1323" data-name="Group 1323">
                  <path id="Path_997" data-name="Path 997" d="M84.988,129.781a.851.851,0,0,0,.851.851H89.59a.851.851,0,0,0,0-1.7H85.839A.85.85,0,0,0,84.988,129.781Z" fill="#008eff"/>
                </g>
              </g>
            </g>
            <g id="Group_1330" data-name="Group 1330">
              <g id="Group_1327" data-name="Group 1327">
                <g id="Group_1326" data-name="Group 1326">
                  <path id="Path_998" data-name="Path 998" d="M90.145,124.515v3.37a.851.851,0,1,0,1.7,0v-3.37a.851.851,0,0,0-1.7,0Z" fill="#008eff"/>
                </g>
              </g>
              <g id="Group_1329" data-name="Group 1329">
                <g id="Group_1328" data-name="Group 1328">
                  <path id="Path_999" data-name="Path 999" d="M90.145,131.676v3.37a.851.851,0,0,0,1.7,0v-3.37a.851.851,0,0,0-1.7,0Z" fill="#008eff"/>
                </g>
              </g>
            </g>
          </g>
          <g id="Group_1344" data-name="Group 1344">
            <g id="Group_1343" data-name="Group 1343">
              <g id="Group_1337" data-name="Group 1337">
                <g id="Group_1333" data-name="Group 1333">
                  <g id="Group_1332" data-name="Group 1332">
                    <path id="Path_1000" data-name="Path 1000" d="M131.273,100.486a.851.851,0,0,0,.851.851h3.751a.851.851,0,1,0,0-1.7h-3.751A.851.851,0,0,0,131.273,100.486Z" fill="#ffaa01"/>
                  </g>
                </g>
                <g id="Group_1336" data-name="Group 1336">
                  <g id="Group_1335" data-name="Group 1335">
                    <g id="Group_1334" data-name="Group 1334">
                      <path id="Path_1001" data-name="Path 1001" d="M124.709,100.486a.851.851,0,0,0,.851.851h3.751a.851.851,0,1,0,0-1.7H125.56A.851.851,0,0,0,124.709,100.486Z" fill="#ffaa01"/>
                    </g>
                  </g>
                </g>
              </g>
              <g id="Group_1342" data-name="Group 1342">
                <g id="Group_1339" data-name="Group 1339">
                  <g id="Group_1338" data-name="Group 1338">
                    <path id="Path_1002" data-name="Path 1002" d="M129.867,95.221v3.37a.851.851,0,1,0,1.7,0v-3.37a.851.851,0,1,0-1.7,0Z" fill="#ffaa01"/>
                  </g>
                </g>
                <g id="Group_1341" data-name="Group 1341">
                  <g id="Group_1340" data-name="Group 1340">
                    <path id="Path_1003" data-name="Path 1003" d="M129.867,102.382v3.37a.851.851,0,1,0,1.7,0v-3.37a.851.851,0,1,0-1.7,0Z" fill="#ffaa01"/>
                  </g>
                </g>
              </g>
            </g>
          </g>
        </g>
        <g id="Group_1366" data-name="Group 1366">
          <g id="Group_1359" data-name="Group 1359">
            <g id="Group_1347" data-name="Group 1347">
              <g id="Group_1346" data-name="Group 1346">
                <path id="Path_1004" data-name="Path 1004" d="M357.383,126.664a.773.773,0,0,0,.358,0c1.288-.317,2.033-.445,2.041-.446a.678.678,0,0,0,.578-.783.716.716,0,0,0-.834-.543c-.032.006-.8.137-2.149.469a.67.67,0,0,0-.512.822A.7.7,0,0,0,357.383,126.664Z" fill="#dcedf9"/>
              </g>
            </g>
            <g id="Group_1358" data-name="Group 1358">
              <g id="Group_1348" data-name="Group 1348">
                <path id="Path_1005" data-name="Path 1005" d="M315.7,157.532c-.669,1.144-1.312,2.33-1.914,3.526a.734.734,0,0,1-.824.366.806.806,0,0,1-.131-.044.656.656,0,0,1-.342-.9c.613-1.22,1.271-2.431,1.953-3.6a.742.742,0,0,1,.974-.267A.654.654,0,0,1,315.7,157.532Z" fill="#dcedf9"/>
              </g>
              <g id="Group_1349" data-name="Group 1349">
                <path id="Path_1006" data-name="Path 1006" d="M312.106,164.685c-.517,1.209-1.01,2.458-1.462,3.715a.727.727,0,0,1-.855.437l-.055-.015a.665.665,0,0,1-.45-.854c.461-1.28.963-2.554,1.49-3.785a.736.736,0,0,1,.934-.374A.661.661,0,0,1,312.106,164.685Z" fill="#dcedf9"/>
              </g>
              <g id="Group_1350" data-name="Group 1350">
                <path id="Path_1007" data-name="Path 1007" d="M306.022,184.414a.675.675,0,0,1-.534-.738c.183-1.34.4-2.681.642-3.985a.715.715,0,0,1,.831-.547.677.677,0,0,1,.583.779c-.239,1.284-.452,2.6-.633,3.925a.709.709,0,0,1-.8.582A.817.817,0,0,1,306.022,184.414Z" fill="#dcedf9"/>
              </g>
              <g id="Group_1351" data-name="Group 1351">
                <path id="Path_1008" data-name="Path 1008" d="M308.9,171.355a.669.669,0,0,1,.5.83c-.176.591-.345,1.19-.5,1.779-.184.68-.361,1.375-.526,2.066a.719.719,0,0,1-.858.509l-.019,0a.672.672,0,0,1-.523-.8c.168-.7.348-1.41.535-2.1.161-.6.334-1.209.513-1.811a.724.724,0,0,1,.867-.472A.064.064,0,0,0,308.9,171.355Z" fill="#dcedf9"/>
              </g>
              <g id="Group_1352" data-name="Group 1352">
                <path id="Path_1009" data-name="Path 1009" d="M317.845,154.123a.739.739,0,0,1-.783.293.751.751,0,0,1-.207-.084.649.649,0,0,1-.223-.929c.765-1.136,1.577-2.262,2.414-3.346a.749.749,0,0,1,1-.15.649.649,0,0,1,.16.941C319.388,151.909,318.594,153.011,317.845,154.123Z" fill="#dcedf9"/>
              </g>
              <g id="Group_1353" data-name="Group 1353">
                <path id="Path_1010" data-name="Path 1010" d="M353.714,127.81c-1.309.42-2.637.891-3.948,1.4a.763.763,0,0,1-.449.031.707.707,0,0,1-.488-.4.659.659,0,0,1,.389-.879c1.338-.519,2.7-1,4.032-1.428a.73.73,0,0,1,.911.42A.664.664,0,0,1,353.714,127.81Z" fill="#dcedf9"/>
              </g>
              <g id="Group_1354" data-name="Group 1354">
                <path id="Path_1011" data-name="Path 1011" d="M342.168,132.657a.764.764,0,0,1-.526.065.708.708,0,0,1-.45-.325.653.653,0,0,1,.277-.917c1.248-.654,2.533-1.281,3.819-1.865a.739.739,0,0,1,.958.313.656.656,0,0,1-.334.9C344.651,131.4,343.392,132.016,342.168,132.657Z" fill="#dcedf9"/>
              </g>
              <g id="Group_1355" data-name="Group 1355">
                <path id="Path_1012" data-name="Path 1012" d="M328.561,141.959a.748.748,0,0,1-.667.161.728.728,0,0,1-.347-.193.645.645,0,0,1,.033-.952c1.041-.915,2.129-1.813,3.233-2.669a.749.749,0,0,1,1.01.09.646.646,0,0,1-.1.948C330.645,140.184,329.58,141.063,328.561,141.959Z" fill="#dcedf9"/>
              </g>
              <g id="Group_1356" data-name="Group 1356">
                <path id="Path_1013" data-name="Path 1013" d="M335.06,136.921a.75.75,0,0,1-.6.108.715.715,0,0,1-.4-.257.648.648,0,0,1,.158-.941c1.151-.786,2.348-1.552,3.558-2.277a.746.746,0,0,1,.991.205.65.65,0,0,1-.219.93C337.36,135.4,336.188,136.15,335.06,136.921Z" fill="#dcedf9"/>
              </g>
              <g id="Group_1357" data-name="Group 1357">
                <path id="Path_1014" data-name="Path 1014" d="M322.788,147.721a.745.745,0,0,1-.729.224.736.736,0,0,1-.281-.134.645.645,0,0,1-.1-.948c.911-1.034,1.869-2.054,2.848-3.031a.75.75,0,0,1,1.014-.029.644.644,0,0,1,.031.952C324.618,145.711,323.68,146.709,322.788,147.721Z" fill="#dcedf9"/>
              </g>
            </g>
          </g>
          <g id="Group_1365" data-name="Group 1365">
            <g id="Group_1364" data-name="Group 1364">
              <g id="Group_1360" data-name="Group 1360">
                <path id="Path_1015" data-name="Path 1015" d="M358.1,122.105l-1.451-11.226,38.035,5.454Z" fill="#008eff"/>
              </g>
              <g id="Group_1361" data-name="Group 1361">
                <path id="Path_1016" data-name="Path 1016" d="M394.681,116.332l-35.136,8.631-.093.024-1.765,2.023.41-4.9Z" fill="#0077eb"/>
              </g>
              <g id="Group_1362" data-name="Group 1362">
                <path id="Path_1017" data-name="Path 1017" d="M357.687,127.01l3.157-.039-1.392-1.984Z" fill="#0059d3"/>
              </g>
              <g id="Group_1363" data-name="Group 1363">
                <path id="Path_1018" data-name="Path 1018" d="M363.873,123.9l-4.422,1.087,7.192,10.24,28.038-18.894Z" fill="#008eff"/>
              </g>
            </g>
          </g>
        </g>
      </g>
    </g>
  </g>
</svg>
