<svg id="Layer_2" data-name="Layer 2" xmlns="http://www.w3.org/2000/svg" viewBox="0 0 194.34 58.19">
  <g id="Layer_1-2" data-name="Layer 1">
    <g>
      <path  fill="#3378ff" stoke-width="0" d="m6.06,40.36c1.13,0,2.13.28,3.01.83.87.56,1.57,1.32,2.08,2.29.52.97.77,2.09.77,3.35s-.26,2.39-.77,3.37c-.52.98-1.21,1.75-2.09,2.32-.88.57-1.87.85-2.97.85-.58,0-1.13-.09-1.66-.26-.52-.17-1-.41-1.43-.71-.43-.3-.81-.65-1.15-1.06-.33-.41-.6-.85-.8-1.33l.45-.32v7.76c0,.2-.07.37-.21.52-.14.15-.32.22-.54.22s-.4-.07-.54-.22c-.14-.15-.21-.32-.21-.52v-16.26c0-.22.07-.4.2-.55.13-.15.32-.22.55-.22.22,0,.39.07.54.22.14.15.21.33.21.55v2.69l-.35-.2c.17-.52.41-.98.74-1.38s.7-.76,1.13-1.05c.43-.29.91-.51,1.42-.66.52-.15,1.06-.22,1.62-.22Zm-.12,1.4c-.9,0-1.69.22-2.37.66-.68.44-1.22,1.04-1.61,1.8s-.59,1.63-.59,2.63.2,1.86.59,2.64.93,1.39,1.61,1.83,1.47.66,2.37.66,1.66-.22,2.33-.66,1.21-1.05,1.61-1.83c.4-.78.6-1.66.6-2.64s-.2-1.85-.6-2.62c-.4-.76-.94-1.37-1.61-1.81-.67-.44-1.45-.66-2.33-.66Z"/>
      <path  fill="#3378ff" stoke-width="0" d="m20.87,53.45c-1.28,0-2.41-.27-3.39-.82-.98-.55-1.75-1.31-2.29-2.29-.55-.98-.82-2.13-.82-3.44,0-1.41.28-2.62.83-3.62.56-1,1.28-1.77,2.17-2.31.89-.54,1.83-.81,2.83-.81.73,0,1.44.13,2.13.39s1.31.64,1.85,1.15c.54.51.97,1.13,1.3,1.86.32.73.5,1.58.54,2.54-.02.2-.1.37-.25.51-.15.14-.32.21-.52.21h-10l-.3-1.35h9.83l-.32.3v-.5c-.07-.78-.32-1.45-.75-2-.43-.55-.96-.96-1.57-1.25-.62-.28-1.26-.42-1.92-.42-.5,0-1.01.1-1.53.3-.52.2-1,.51-1.42.93-.42.42-.77.96-1.03,1.62-.27.66-.4,1.43-.4,2.33,0,.98.2,1.87.6,2.67.4.8.98,1.43,1.73,1.9.76.47,1.66.7,2.71.7.58,0,1.11-.08,1.57-.25.47-.17.87-.39,1.22-.66s.64-.56.87-.86c.18-.15.37-.22.55-.22.17,0,.31.07.44.2.12.13.19.28.19.45,0,.2-.08.37-.25.52-.5.6-1.15,1.12-1.95,1.56-.8.44-1.67.66-2.62.66Z"/>
      <path  fill="#3378ff" stoke-width="0" d="m29.95,53.2c-.23,0-.42-.08-.55-.22-.13-.15-.2-.32-.2-.52v-11.17c0-.2.07-.37.21-.52.14-.15.32-.22.54-.22s.39.08.54.22c.14.15.21.32.21.52v3.74l-.37.07c.05-.58.2-1.16.44-1.73.24-.57.57-1.1.98-1.58.42-.48.91-.87,1.48-1.17.57-.3,1.22-.45,1.93-.45.3,0,.59.06.87.19.28.12.42.33.42.61,0,.25-.07.44-.2.57-.13.13-.29.2-.47.2-.15,0-.31-.04-.49-.12-.17-.08-.4-.12-.69-.12-.47,0-.93.14-1.4.41s-.89.64-1.27,1.11c-.38.47-.69.99-.91,1.56-.22.57-.34,1.15-.34,1.73v6.16c0,.2-.07.37-.22.52-.15.15-.32.22-.52.22Z"/>
      <path  fill="#3378ff" stoke-width="0" d="m44.36,40.71c.2,0,.37.07.5.2.13.13.2.3.2.5s-.07.37-.2.5-.3.2-.5.2h-6.11c-.18,0-.35-.07-.49-.21-.14-.14-.21-.3-.21-.49,0-.22.07-.39.21-.51.14-.12.3-.19.49-.19h6.11Zm-.95-5.86c.25,0,.52.03.81.08.29.05.54.14.76.26.22.12.32.31.32.56,0,.18-.07.35-.2.49-.13.14-.28.21-.45.21s-.37-.04-.62-.14c-.25-.09-.52-.14-.8-.14-.35,0-.65.08-.9.24s-.44.38-.57.67c-.13.29-.2.64-.2,1.06v14.31c0,.2-.07.37-.21.52-.14.15-.32.22-.54.22s-.4-.08-.54-.22c-.14-.15-.21-.32-.21-.52v-14.31c0-1.06.31-1.88.94-2.44.62-.56,1.43-.85,2.41-.85Z"/>
      <path  fill="#3378ff" stoke-width="0" d="m52.62,53.45c-1.28,0-2.41-.27-3.39-.82-.98-.55-1.75-1.31-2.29-2.29-.55-.98-.82-2.13-.82-3.44,0-1.41.28-2.62.83-3.62.56-1,1.28-1.77,2.17-2.31.89-.54,1.83-.81,2.83-.81.73,0,1.44.13,2.13.39s1.31.64,1.85,1.15c.54.51.97,1.13,1.3,1.86.32.73.5,1.58.54,2.54-.02.2-.1.37-.25.51-.15.14-.32.21-.52.21h-10l-.3-1.35h9.83l-.32.3v-.5c-.07-.78-.32-1.45-.75-2-.43-.55-.96-.96-1.57-1.25-.62-.28-1.26-.42-1.92-.42-.5,0-1.01.1-1.53.3-.52.2-1,.51-1.42.93-.42.42-.77.96-1.03,1.62-.27.66-.4,1.43-.4,2.33,0,.98.2,1.87.6,2.67.4.8.98,1.43,1.73,1.9.76.47,1.66.7,2.71.7.58,0,1.11-.08,1.57-.25.47-.17.87-.39,1.22-.66s.64-.56.87-.86c.18-.15.37-.22.55-.22.17,0,.31.07.44.2.12.13.19.28.19.45,0,.2-.08.37-.25.52-.5.6-1.15,1.12-1.95,1.56-.8.44-1.67.66-2.62.66Z"/>
      <path  fill="#3378ff" stoke-width="0" d="m66.56,40.16c.8,0,1.53.09,2.19.26.67.17,1.2.41,1.61.71.41.3.61.62.61.97,0,.17-.06.33-.17.49s-.27.24-.47.24-.36-.05-.49-.15c-.12-.1-.25-.22-.37-.35s-.3-.26-.54-.37c-.22-.1-.52-.19-.92-.27s-.86-.12-1.37-.12c-.93,0-1.77.23-2.52.7-.75.47-1.34,1.09-1.77,1.88-.43.79-.65,1.68-.65,2.66s.21,1.9.62,2.69c.42.8.99,1.43,1.72,1.88.73.46,1.59.69,2.57.69.67,0,1.18-.06,1.55-.17.37-.12.68-.25.95-.4.32-.18.54-.36.69-.54.14-.17.33-.26.56-.26.22,0,.38.06.49.19.11.12.16.29.16.49,0,.27-.2.56-.59.89-.39.32-.93.61-1.61.85-.68.24-1.46.36-2.34.36-1.25,0-2.34-.29-3.28-.87-.94-.58-1.67-1.38-2.19-2.38-.52-1.01-.79-2.14-.79-3.4s.27-2.32.8-3.32c.53-1,1.28-1.8,2.23-2.41.96-.61,2.07-.91,3.33-.91Z"/>
      <path  fill="#3378ff" stoke-width="0" d="m73.04,40.51h5.81c.2,0,.37.07.5.21.13.14.2.31.2.51,0,.18-.07.34-.2.47-.13.13-.3.2-.5.2h-5.81c-.2,0-.37-.07-.51-.21s-.21-.3-.21-.49c0-.2.07-.37.21-.5.14-.13.31-.2.51-.2Zm2.57-3.52c.22,0,.39.08.54.22.14.15.21.32.21.52v12.52c0,.47.06.82.19,1.05.12.23.29.39.49.46.2.08.4.11.6.11.13,0,.25-.02.36-.06.11-.04.23-.06.36-.06.15,0,.28.06.39.17.11.12.16.27.16.45,0,.23-.13.43-.4.59-.27.16-.58.24-.95.24-.15,0-.37-.01-.67-.04-.3-.02-.61-.12-.92-.27-.32-.16-.58-.44-.79-.84-.21-.4-.31-.97-.31-1.72v-12.59c0-.2.07-.37.21-.52.14-.15.32-.22.54-.22Z"/>
      <path  stoke-width="0" fill="#2b2a5c" d="m92.77,40.46c.22,0,.4.07.54.22.14.15.21.33.21.55v11.22c0,.2-.07.37-.22.52-.15.15-.32.22-.52.22-.22,0-.4-.08-.54-.22-.14-.15-.21-.32-.21-.52v-2.97l.42-.2c0,.46-.13.94-.39,1.42-.26.48-.61.93-1.06,1.35-.45.42-.98.75-1.58,1.01-.61.26-1.26.39-1.96.39-1.13,0-2.14-.29-3.03-.87-.89-.58-1.59-1.38-2.09-2.39-.51-1.01-.76-2.15-.76-3.42s.26-2.44.77-3.43c.52-.99,1.21-1.77,2.09-2.33.88-.56,1.88-.85,2.99-.85.71,0,1.38.12,2.01.37.62.25,1.17.59,1.63,1.02.47.43.83.93,1.08,1.48.26.56.39,1.13.39,1.73l-.52-.37v-3.17c0-.22.07-.4.21-.55.14-.15.32-.22.54-.22Zm-5.19,11.6c.88,0,1.66-.23,2.34-.69.68-.46,1.22-1.09,1.61-1.9.39-.81.59-1.71.59-2.71s-.2-1.86-.59-2.64-.93-1.41-1.61-1.87c-.68-.46-1.46-.7-2.34-.7s-1.64.22-2.33.67c-.69.45-1.23,1.06-1.62,1.84-.39.78-.59,1.68-.59,2.69s.2,1.9.59,2.71c.39.81.93,1.44,1.61,1.9s1.46.69,2.34.69Z"/>
      <path  stoke-width="0" fill="#2b2a5c" d="m96.71,51.18c-.13-.2-.2-.39-.19-.59,0-.19.11-.34.31-.46.13-.12.29-.17.46-.15.17.02.34.1.49.25.45.58.99,1.05,1.63,1.41.64.36,1.4.54,2.28.54.47,0,.93-.08,1.38-.24.46-.16.84-.4,1.13-.72.3-.32.45-.74.45-1.23s-.15-.93-.45-1.25c-.3-.32-.69-.57-1.16-.75-.47-.18-.98-.34-1.51-.47-.57-.15-1.11-.32-1.65-.51-.53-.19-1-.43-1.41-.72-.41-.29-.74-.64-.98-1.06-.25-.42-.37-.92-.37-1.52,0-.7.19-1.31.57-1.84.38-.53.9-.95,1.56-1.25.66-.3,1.4-.45,2.23-.45.42,0,.86.05,1.35.16.48.11.96.29,1.42.54.46.25.88.59,1.25,1.02.15.15.22.32.22.51s-.08.36-.25.51c-.13.1-.29.15-.46.15s-.32-.07-.44-.2c-.4-.45-.87-.79-1.42-1.02-.55-.23-1.14-.35-1.77-.35-.48,0-.94.08-1.36.24-.42.16-.78.4-1.06.71-.28.32-.42.73-.42,1.25.03.48.2.87.51,1.17.31.3.71.55,1.22.75.51.2,1.08.38,1.71.55.53.13,1.04.29,1.53.47.49.18.92.41,1.3.69.37.27.67.62.9,1.04.22.42.34.94.34,1.57,0,.73-.2,1.36-.61,1.9-.41.53-.95.94-1.63,1.22s-1.44.42-2.27.42c-.9,0-1.77-.17-2.61-.52-.84-.35-1.58-.93-2.23-1.75Z"/>
      <path  stoke-width="0" fill="#2b2a5c" d="m108.4,51.18c-.13-.2-.2-.39-.19-.59,0-.19.11-.34.31-.46.13-.12.29-.17.46-.15.17.02.34.1.49.25.45.58.99,1.05,1.63,1.41.64.36,1.4.54,2.28.54.47,0,.93-.08,1.38-.24.46-.16.84-.4,1.13-.72.3-.32.45-.74.45-1.23s-.15-.93-.45-1.25c-.3-.32-.69-.57-1.16-.75-.47-.18-.98-.34-1.51-.47-.57-.15-1.11-.32-1.65-.51-.53-.19-1-.43-1.41-.72-.41-.29-.74-.64-.98-1.06-.25-.42-.37-.92-.37-1.52,0-.7.19-1.31.57-1.84.38-.53.9-.95,1.56-1.25.66-.3,1.4-.45,2.23-.45.42,0,.86.05,1.35.16.48.11.96.29,1.42.54.46.25.88.59,1.25,1.02.15.15.22.32.22.51s-.08.36-.25.51c-.13.1-.29.15-.46.15s-.32-.07-.44-.2c-.4-.45-.87-.79-1.42-1.02-.55-.23-1.14-.35-1.77-.35-.48,0-.94.08-1.36.24-.42.16-.78.4-1.06.71-.28.32-.42.73-.42,1.25.03.48.2.87.51,1.17.31.3.71.55,1.22.75.51.2,1.08.38,1.71.55.53.13,1.04.29,1.53.47.49.18.92.41,1.3.69.37.27.67.62.9,1.04.22.42.34.94.34,1.57,0,.73-.2,1.36-.61,1.9-.41.53-.95.94-1.63,1.22s-1.44.42-2.27.42c-.9,0-1.77-.17-2.61-.52-.84-.35-1.58-.93-2.23-1.75Z"/>
      <path  stoke-width="0" fill="#2b2a5c" d="m126.58,53.45c-1.28,0-2.41-.27-3.39-.82-.98-.55-1.75-1.31-2.29-2.29-.55-.98-.82-2.13-.82-3.44,0-1.41.28-2.62.83-3.62.56-1,1.28-1.77,2.17-2.31.89-.54,1.83-.81,2.83-.81.73,0,1.44.13,2.13.39s1.31.64,1.85,1.15c.54.51.97,1.13,1.3,1.86.32.73.5,1.58.54,2.54-.02.2-.1.37-.25.51-.15.14-.32.21-.52.21h-10l-.3-1.35h9.83l-.32.3v-.5c-.07-.78-.32-1.45-.75-2-.43-.55-.96-.96-1.57-1.25-.62-.28-1.26-.42-1.92-.42-.5,0-1.01.1-1.53.3-.52.2-1,.51-1.42.93-.42.42-.77.96-1.03,1.62-.27.66-.4,1.43-.4,2.33,0,.98.2,1.87.6,2.67.4.8.98,1.43,1.73,1.9.76.47,1.66.7,2.71.7.58,0,1.11-.08,1.57-.25.47-.17.87-.39,1.22-.66s.64-.56.87-.86c.18-.15.37-.22.55-.22.17,0,.31.07.44.2.12.13.19.28.19.45,0,.2-.08.37-.25.52-.5.6-1.15,1.12-1.95,1.56-.8.44-1.67.66-2.62.66Z"/>
      <path  stoke-width="0" fill="#2b2a5c" d="m134.19,51.18c-.13-.2-.2-.39-.19-.59,0-.19.11-.34.31-.46.13-.12.29-.17.46-.15.17.02.34.1.49.25.45.58.99,1.05,1.63,1.41.64.36,1.4.54,2.28.54.47,0,.93-.08,1.38-.24.46-.16.84-.4,1.13-.72.3-.32.45-.74.45-1.23s-.15-.93-.45-1.25c-.3-.32-.69-.57-1.16-.75-.47-.18-.98-.34-1.51-.47-.57-.15-1.11-.32-1.65-.51-.53-.19-1-.43-1.41-.72-.41-.29-.74-.64-.98-1.06-.25-.42-.37-.92-.37-1.52,0-.7.19-1.31.57-1.84.38-.53.9-.95,1.56-1.25.66-.3,1.4-.45,2.23-.45.42,0,.86.05,1.35.16.48.11.96.29,1.42.54.46.25.88.59,1.25,1.02.15.15.22.32.22.51s-.08.36-.25.51c-.13.1-.29.15-.46.15s-.32-.07-.44-.2c-.4-.45-.87-.79-1.42-1.02-.55-.23-1.14-.35-1.77-.35-.48,0-.94.08-1.36.24-.42.16-.78.4-1.06.71-.28.32-.42.73-.42,1.25.03.48.2.87.51,1.17.31.3.71.55,1.22.75.51.2,1.08.38,1.71.55.53.13,1.04.29,1.53.47.49.18.92.41,1.3.69.37.27.67.62.9,1.04.22.42.34.94.34,1.57,0,.73-.2,1.36-.61,1.9-.41.53-.95.94-1.63,1.22s-1.44.42-2.27.42c-.9,0-1.77-.17-2.61-.52-.84-.35-1.58-.93-2.23-1.75Z"/>
      <path  stoke-width="0" fill="#2b2a5c" d="m145.89,51.18c-.13-.2-.2-.39-.19-.59,0-.19.11-.34.31-.46.13-.12.29-.17.46-.15.17.02.34.1.49.25.45.58.99,1.05,1.63,1.41.64.36,1.4.54,2.28.54.47,0,.93-.08,1.38-.24.46-.16.84-.4,1.13-.72.3-.32.45-.74.45-1.23s-.15-.93-.45-1.25c-.3-.32-.69-.57-1.16-.75-.47-.18-.98-.34-1.51-.47-.57-.15-1.11-.32-1.65-.51-.53-.19-1-.43-1.41-.72-.41-.29-.74-.64-.98-1.06-.25-.42-.37-.92-.37-1.52,0-.7.19-1.31.57-1.84.38-.53.9-.95,1.56-1.25.66-.3,1.4-.45,2.23-.45.42,0,.86.05,1.35.16.48.11.96.29,1.42.54.46.25.88.59,1.25,1.02.15.15.22.32.22.51s-.08.36-.25.51c-.13.1-.29.15-.46.15s-.32-.07-.44-.2c-.4-.45-.87-.79-1.42-1.02-.55-.23-1.14-.35-1.77-.35-.48,0-.94.08-1.36.24-.42.16-.78.4-1.06.71-.28.32-.42.73-.42,1.25.03.48.2.87.51,1.17.31.3.71.55,1.22.75.51.2,1.08.38,1.71.55.53.13,1.04.29,1.53.47.49.18.92.41,1.3.69.37.27.67.62.9,1.04.22.42.34.94.34,1.57,0,.73-.2,1.36-.61,1.9-.41.53-.95.94-1.63,1.22s-1.44.42-2.27.42c-.9,0-1.77-.17-2.61-.52-.84-.35-1.58-.93-2.23-1.75Z"/>
      <path  fill="#3378ff" stoke-width="0" d="m164.36,40.36c1.13,0,2.13.28,3.01.83.87.56,1.57,1.32,2.08,2.29.52.97.77,2.09.77,3.35s-.26,2.39-.77,3.37c-.52.98-1.21,1.75-2.09,2.32-.88.57-1.87.85-2.97.85-.58,0-1.13-.09-1.66-.26-.52-.17-1-.41-1.43-.71-.43-.3-.81-.65-1.15-1.06-.33-.41-.6-.85-.8-1.33l.45-.32v7.76c0,.2-.07.37-.21.52-.14.15-.32.22-.54.22s-.4-.07-.54-.22c-.14-.15-.21-.32-.21-.52v-16.26c0-.22.07-.4.2-.55.13-.15.32-.22.55-.22.22,0,.39.07.54.22.14.15.21.33.21.55v2.69l-.35-.2c.17-.52.41-.98.74-1.38s.7-.76,1.13-1.05c.43-.29.91-.51,1.42-.66.52-.15,1.06-.22,1.62-.22Zm-.12,1.4c-.9,0-1.69.22-2.37.66-.68.44-1.22,1.04-1.61,1.8s-.59,1.63-.59,2.63.2,1.86.59,2.64.93,1.39,1.61,1.83,1.47.66,2.37.66,1.66-.22,2.33-.66,1.21-1.05,1.61-1.83c.4-.78.6-1.66.6-2.64s-.2-1.85-.6-2.62c-.4-.76-.94-1.37-1.61-1.81-.67-.44-1.45-.66-2.33-.66Z"/>
      <path  fill="#3378ff" stoke-width="0" d="m174.17,53.2c-.23,0-.42-.08-.55-.22-.13-.15-.2-.32-.2-.52v-11.17c0-.2.07-.37.21-.52s.32-.22.54-.22.39.08.54.22c.14.15.21.32.21.52v3.74l-.37.07c.05-.58.19-1.16.44-1.73.24-.57.57-1.1.98-1.58.42-.48.91-.87,1.48-1.17.57-.3,1.22-.45,1.93-.45.3,0,.59.06.87.19.28.12.42.33.42.61,0,.25-.07.44-.2.57s-.29.2-.47.2c-.15,0-.31-.04-.49-.12-.18-.08-.4-.12-.69-.12-.47,0-.93.14-1.4.41-.47.27-.89.64-1.27,1.11-.38.47-.69.99-.91,1.56-.22.57-.34,1.15-.34,1.73v6.16c0,.2-.07.37-.22.52-.15.15-.32.22-.52.22Z"/>
      <path  fill="#3378ff" stoke-width="0" d="m194.34,46.82c0,1.26-.27,2.4-.82,3.4s-1.3,1.8-2.24,2.37c-.95.57-2.03.86-3.24.86s-2.25-.29-3.2-.86c-.96-.57-1.71-1.36-2.27-2.37-.56-1.01-.84-2.14-.84-3.4s.28-2.42.84-3.42c.56-1,1.31-1.79,2.27-2.37.96-.58,2.02-.87,3.2-.87s2.29.29,3.24.87c.95.58,1.7,1.37,2.24,2.37s.82,2.14.82,3.42Zm-1.5,0c0-1.01-.21-1.92-.62-2.71-.42-.79-.99-1.41-1.71-1.87-.72-.46-1.55-.69-2.48-.69s-1.71.23-2.44.69-1.31,1.08-1.73,1.87-.64,1.69-.64,2.71.21,1.91.64,2.69c.42.78,1,1.4,1.73,1.86s1.55.69,2.44.69,1.76-.23,2.48-.69c.72-.46,1.29-1.08,1.71-1.86.42-.78.62-1.68.62-2.69Z"/>
    </g>
    <g>
      <path fill="#2b2a5c" d="m46.29,0h0c-7.65,0-13.86,6.2-13.86,13.86h0c0,7.65,6.2,13.86,13.86,13.86h8.69c2.85,0,5.17-2.31,5.17-5.17v-8.69c0-7.65-6.2-13.86-13.86-13.86Zm0,19.05c-2.87,0-5.2-2.33-5.2-5.2s2.33-5.2,5.2-5.2,5.2,2.33,5.2,5.2-2.33,5.2-5.2,5.2Z"/>
      <path  fill="#3378ff" stoke-width="0" d="m65.51,13.86v8.69c0,2.85,2.31,5.17,5.17,5.17h8.69c7.65,0,13.86-6.2,13.86-13.86h0c0-7.65-6.2-13.86-13.86-13.86h0c-7.65,0-13.86,6.2-13.86,13.86Zm8.66,0c0-2.87,2.33-5.2,5.2-5.2s5.2,2.33,5.2,5.2-2.33,5.2-5.2,5.2-5.2-2.33-5.2-5.2Z"/>
      <path  fill="#3378ff" stoke-width="0" d="m0,13.86v8.69c0,2.85,2.31,5.17,5.17,5.17h8.69c7.65,0,13.86-6.2,13.86-13.86h0C27.71,6.2,21.51,0,13.86,0h0C6.2,0,0,6.2,0,13.86Zm8.66,0c0-2.87,2.33-5.2,5.2-5.2s5.2,2.33,5.2,5.2c0,2.87-2.33,5.2-5.2,5.2s-5.2-2.33-5.2-5.2Z"/>
    </g>
  </g>
</svg>