<?xml version="1.0" encoding="UTF-8"?>
<svg id="Layer_2" data-name="Layer 2" xmlns="http://www.w3.org/2000/svg" viewBox="0 0 93.22 27.71">
  <defs>
    <style>
      .cls-1 {
        fill: #2b2a5c;
      }

      .cls-1, .cls-2 {
        stroke-width: 0px;
      }

      .cls-2 {
        fill: #3378ff;
      }
    </style>
  </defs>
  <g id="Layer_1-2" data-name="Layer 1">
    <g>
      <path class="cls-1"  d="m46.29,0h0c-7.65,0-13.86,6.2-13.86,13.86h0c0,7.65,6.2,13.86,13.86,13.86h8.69c2.85,0,5.17-2.31,5.17-5.17v-8.69c0-7.65-6.2-13.86-13.86-13.86Zm0,19.05c-2.87,0-5.2-2.33-5.2-5.2s2.33-5.2,5.2-5.2,5.2,2.33,5.2,5.2-2.33,5.2-5.2,5.2Z"/>
      <path class="cls-2" d="m65.51,13.86v8.69c0,2.85,2.31,5.17,5.17,5.17h8.69c7.65,0,13.86-6.2,13.86-13.86h0c0-7.65-6.2-13.86-13.86-13.86h0c-7.65,0-13.86,6.2-13.86,13.86Zm8.66,0c0-2.87,2.33-5.2,5.2-5.2s5.2,2.33,5.2,5.2-2.33,5.2-5.2,5.2-5.2-2.33-5.2-5.2Z"/>
      <path class="cls-2" d="m0,13.86v8.69c0,2.85,2.31,5.17,5.17,5.17h8.69c7.65,0,13.86-6.2,13.86-13.86h0C27.71,6.2,21.51,0,13.86,0h0C6.2,0,0,6.2,0,13.86Zm8.66,0c0-2.87,2.33-5.2,5.2-5.2s5.2,2.33,5.2,5.2c0,2.87-2.33,5.2-5.2,5.2s-5.2-2.33-5.2-5.2Z"/>
    </g>
  </g>
</svg>