<svg xmlns="http://www.w3.org/2000/svg" xmlns:xlink="http://www.w3.org/1999/xlink" width="28" height="28" viewBox="0 0 28 28">
  <defs>
    <clipPath id="clip-path">
      <rect id="Rectangle_515" data-name="Rectangle 515" width="28" height="28" transform="translate(0.111 0)" fill="#08aefe"/>
    </clipPath>
  </defs>
  <g id="Group_927" data-name="Group 927" transform="translate(-0.111 0)" clip-path="url(#clip-path)">
    <path id="Path_618" data-name="Path 618" d="M24.761,21.883h2.984a.995.995,0,1,1,0,1.989H24.761v2.984a.995.995,0,0,1-1.989,0V23.873H19.788a.995.995,0,0,1,0-1.989h2.984V18.9a.995.995,0,1,1,1.989,0ZM17.8,7.46a5.471,5.471,0,0,0-10.942,0,5.471,5.471,0,0,0,10.942,0ZM9.344,14.324A7.434,7.434,0,0,1,4.867,7.46a7.46,7.46,0,0,1,14.921,0,7.419,7.419,0,0,1-4.576,6.863,10.532,10.532,0,0,1,4.277,2.288A.987.987,0,0,1,18.2,18.1,9.319,9.319,0,0,0,2.878,25.265v.6a1.082,1.082,0,0,1-.9,1.094,1.082,1.082,0,0,1-1.094-.9v-.9A11.2,11.2,0,0,1,9.344,14.324Z" transform="translate(-0.814 0.074)" fill="#08aefe" fill-rule="evenodd"/>
  </g>
</svg>
