<svg xmlns="http://www.w3.org/2000/svg" width="29.443" height="26.499" viewBox="0 0 29.443 26.499">
  <g id="icons8_leaving_queue_1" transform="translate(0 0)">
    <path id="Path_557" data-name="Path 557" d="M13.777,29.5V26.7c0-1.914-3.975-3.092-5.889-3.092S2,24.641,2,26.7v2.8ZM25.555,14.777c-1.619,0-4.417.736-5.447,1.914,2.208.589,4.417,1.767,5.153,3.975h6.183v-2.8C31.443,15.808,27.469,14.777,25.555,14.777Zm-8.833-4.417a2.944,2.944,0,1,0,2.944,2.944A2.944,2.944,0,0,0,16.722,10.361Zm8.833-4.417A2.944,2.944,0,1,0,28.5,8.889,2.944,2.944,0,0,0,25.555,5.944ZM7.889,14.777a2.944,2.944,0,1,0,2.944,2.944A2.944,2.944,0,0,0,7.889,14.777Zm8.833,4.417c-1.619,0-4.417.736-5.447,1.914,2.208.589,4.417,1.767,5.153,3.975H22.61v-2.8C22.61,20.224,18.635,19.194,16.722,19.194ZM7.889,3,3.472,7.417h8.833Z" transform="translate(-2 -3)" fill="#08aefe"/>
    <path id="Path_558" data-name="Path 558" d="M5,5H7.66v5.32H5Z" transform="translate(-0.536 -2.34)" fill="#08aefe"/>
  </g>
</svg>
