<svg xmlns="http://www.w3.org/2000/svg" width="26.032" height="26.032" viewBox="0 0 26.032 26.032">
  <path id="icons8_goal" d="M15.016,2A12.935,12.935,0,0,0,9.893,3.056L10.839,4a4.029,4.029,0,0,1,.516.639,11.063,11.063,0,1,1-6.714,6.715A3.981,3.981,0,0,1,4,10.839l-.946-.946A13.013,13.013,0,1,0,15.016,2ZM3.993,2.991a1,1,0,0,0-.7,1.719L4.589,6H3.717a.711.711,0,0,0-.5,1.214l2.2,2.2a2,2,0,0,0,1.416.587h1.76l5.714,5.714a1,1,0,1,0,1.416-1.416L10.01,8.594V6.834a2,2,0,0,0-.587-1.416l-2.2-2.2A.711.711,0,0,0,6,3.717v.872L4.71,3.295A1,1,0,0,0,3.993,2.991ZM15.016,6a8.937,8.937,0,0,0-3.033.536c.008.1.029.194.029.293v.931l.655.655A7.034,7.034,0,1,1,8.42,12.668l-.655-.655H6.834c-.1,0-.2-.021-.293-.029A9.005,9.005,0,1,0,15.016,6Zm0,4a4.873,4.873,0,0,0-.688.07l2.812,2.812,0,0a3,3,0,1,1-4.243,4.243l0,0L10.08,14.328a4.873,4.873,0,0,0-.07.688,5.006,5.006,0,1,0,5.006-5.006Z" transform="translate(-2 -2)" fill="#08aefe"/>
</svg>
