<svg xmlns="http://www.w3.org/2000/svg" width="25.089" height="24" viewBox="0 0 25.089 24">
  <path id="icons8_performance_1" d="M15.545,4C8.628,4,3,10.162,3,17.736a14.346,14.346,0,0,0,3.688,9.687l.53.578.643-.417a14.446,14.446,0,0,1,7.684-2.452,14.446,14.446,0,0,1,7.684,2.452l.643.417.53-.578a14.346,14.346,0,0,0,3.688-9.687C28.089,10.162,22.461,4,15.545,4ZM14.58,6.167V8.515h1.93V6.167A10.1,10.1,0,0,1,22.339,8.8l-1.521,1.665,1.365,1.494L23.7,10.3a12.165,12.165,0,0,1,2.407,6.383H23.965v2.113H26.11a12.088,12.088,0,0,1-2.725,6.573,15.735,15.735,0,0,0-7.84-2.346A15.735,15.735,0,0,0,7.7,25.365a12.088,12.088,0,0,1-2.725-6.573H7.124V16.679H4.979A12.164,12.164,0,0,1,7.386,10.3l1.521,1.665,1.365-1.494L8.75,8.8A10.1,10.1,0,0,1,14.58,6.167Zm-2.948,5.791-1.364,1.494,2.795,3.06a3.634,3.634,0,0,0-.413,1.224,3.41,3.41,0,0,0,.726,2.154,2.825,2.825,0,0,0,4.338,0,3.561,3.561,0,0,0,0-4.309,2.813,2.813,0,0,0-3.426-.716Zm3.913,4.722a.814.814,0,0,1,.726.305,1.3,1.3,0,0,1,0,1.5.814.814,0,0,1-.726.305.814.814,0,0,1-.726-.305,1.3,1.3,0,0,1,0-1.5A.814.814,0,0,1,15.545,16.679Z" transform="translate(-3 -4)" fill="#08aefe"/>
</svg>
