<svg xmlns="http://www.w3.org/2000/svg" width="19.637" height="23.948" viewBox="0 0 19.637 23.948">
  <g id="Group_498" data-name="Group 498" transform="translate(0.002)">
    <path id="icons8_cv" d="M15.671,3a2.744,2.744,0,0,0-2.73,2.395H10.761A2.729,2.729,0,0,0,8,8.089V24.254a2.729,2.729,0,0,0,2.761,2.694H24.876a2.729,2.729,0,0,0,2.761-2.694V8.089a2.729,2.729,0,0,0-2.761-2.694H22.7A2.744,2.744,0,0,0,19.966,3Zm0,1.8h4.3a.9.9,0,1,1,0,1.8h-4.3a.9.9,0,1,1,0-1.8Zm2.148,6.586a2.4,2.4,0,1,1-2.455,2.395A2.425,2.425,0,0,1,17.819,11.382Zm-3.8,6.586h7.6a1.1,1.1,0,0,1,1.111,1.085v.25c0,1.151-1.561,2.855-4.909,2.855s-4.909-1.7-4.909-2.855v-.25A1.1,1.1,0,0,1,14.022,17.968Z" transform="translate(-8.002 -3)" fill="#08aefe"/>
  </g>
</svg>
