<svg xmlns="http://www.w3.org/2000/svg" width="24" height="24" viewBox="0 0 24 24">
  <path id="icons8_octagon" d="M11,3A1.989,1.989,0,0,0,9.043,5.4L5.4,9.041A2,2,0,0,0,4,12.73v4.541a2,2,0,0,0,1.4,3.686L9.041,24.6A2,2,0,0,0,12.73,26h4.541a2,2,0,0,0,3.686-1.4L24.6,20.959A2,2,0,0,0,26,17.27V12.729a2,2,0,0,0-1.4-3.686L20.959,5.4A2,2,0,0,0,17.27,4H12.729A2,2,0,0,0,11,3Zm1.731,3h4.541a1.982,1.982,0,0,0,2.354.9L23.1,10.373A1.995,1.995,0,0,0,24,12.73v4.541a1.982,1.982,0,0,0-.9,2.354L19.627,23.1a1.995,1.995,0,0,0-2.358.9H12.729a1.982,1.982,0,0,0-2.354-.9L6.9,19.627A1.995,1.995,0,0,0,6,17.27V12.729a1.982,1.982,0,0,0,.9-2.354L10.373,6.9A1.995,1.995,0,0,0,12.73,6Z" transform="translate(-3 -3)" fill="#08aefe"/>
</svg>
